<svg enable-background="new 0 0 512 512" height="512" viewBox="0 0 512 512" width="512" xmlns="http://www.w3.org/2000/svg"><g id="_x30_2_Nft_Art"><g><path d="m493.619 345.414c-4.233 0-7.665 3.432-7.665 7.665v3.986c0 4.233 3.432 7.665 7.665 7.665s7.665-3.432 7.665-7.665v-3.986c0-4.233-3.432-7.665-7.665-7.665z"/><path d="m56.707 469.819h398.586c25.361 0 45.991-20.63 45.991-45.991v-31.735c0-4.233-3.432-7.665-7.665-7.665s-7.665 3.432-7.665 7.665v31.735c0 16.906-13.755 30.66-30.66 30.66h-398.587c-16.906 0-30.66-13.755-30.66-30.66v-335.656c0-16.906 13.755-30.66 30.66-30.66h398.586c16.906 0 30.66 13.755 30.66 30.66v229.875c0 4.233 3.432 7.665 7.665 7.665s7.665-3.432 7.665-7.665v-229.875c0-25.361-20.63-45.991-45.991-45.991h-398.585c-25.361 0-45.991 20.63-45.991 45.991v335.656c0 25.361 20.63 45.991 45.991 45.991z"/><path d="m72.067 95.871c-4.233 0-7.665 3.432-7.665 7.665v304.943c0 4.233 3.432 7.665 7.665 7.665h367.926c4.233 0 7.665-3.432 7.665-7.665v-304.943c0-4.233-3.432-7.665-7.665-7.665zm360.261 304.943h-352.596v-289.613h352.596z"/><path d="m154.901 296.122c13.181 43.986 54.468 75.171 101.001 75.228.035 0 .07.005.105.005h.01.012c46.586 0 87.936-31.207 101.129-75.233 17.726 1.632 33.292-12.606 33.292-30.346 0-17.744-15.506-31.985-33.292-30.35-10.975-36.622-41.451-64.303-78.2-72.602 2.671-4.208 4.273-9.16 4.273-14.503 0-4.233-3.432-7.665-7.665-7.665s-7.665 3.432-7.665 7.665c0 3.611-1.655 6.81-4.207 8.99v-2.047c0-4.233-3.432-7.665-7.665-7.665s-7.665 3.432-7.665 7.665v2.047c-2.552-2.179-4.207-5.379-4.207-8.99 0-4.233-3.432-7.665-7.665-7.665s-7.665 3.432-7.665 7.665c0 5.343 1.602 10.295 4.273 14.503-36.749 8.299-67.225 35.98-78.2 72.602-17.673-1.587-33.292 12.602-33.292 30.35-.002 17.744 15.586 31.937 33.293 30.346zm71.004 17.617c1.643-4.763-1.69-9.802-6.722-10.143-16.61-1.134-29.62-15.083-29.62-31.757 0-17.572 14.282-31.869 31.836-31.869 11.614 0 22.314 6.329 27.925 16.517 2.907 5.28 10.512 5.285 13.429 0 5.614-10.188 16.303-16.517 27.895-16.517 17.572 0 31.866 14.297 31.866 31.869 0 16.67-13.04 30.619-29.684 31.757-5.034.339-8.395 5.407-6.703 10.195 7.117 20.204-7.938 42.228-30.111 42.233-.008 0-.016-.001-.024-.001-21.774-.012-37.219-21.54-30.087-42.284zm-73.818-63.114c1.894 0 3.788.363 5.472 1.044 4.434 1.805 9.364-.857 10.371-5.453 9.001-40.964 46.051-70.693 88.1-70.693s79.099 29.729 88.1 70.693c1.006 4.594 5.934 7.26 10.371 5.453 1.684-.681 3.574-1.044 5.468-1.044 8.354 0 15.151 6.797 15.151 15.151s-6.797 15.147-15.151 15.147c-1.894 0-3.784-.363-5.468-1.044-4.387-1.786-9.354.811-10.371 5.453-5.787 26.335-23.198 47.97-46.045 60.105 4.442-8.75 6.013-18.421 4.639-28.007 20.274-5.382 35.118-23.935 35.118-45.59 0-26.027-21.173-47.2-47.196-47.2-13.298 0-25.787 5.614-34.609 15.147-8.822-9.533-21.326-15.147-34.639-15.147-26.008 0-47.166 21.173-47.166 47.2 0 21.663 14.832 40.223 35.084 45.598-1.369 9.678.227 19.297 4.633 27.987-22.834-12.137-40.235-33.767-46.02-60.092-1.018-4.648-5.991-7.237-10.371-5.453-1.684.681-3.578 1.044-5.472 1.044-8.354 0-15.147-6.793-15.147-15.147s6.794-15.152 15.148-15.152z"/><path d="m265.825 339.785c4.233 0 7.665-3.432 7.665-7.665s-3.432-7.665-7.665-7.665h-19.612c-4.233 0-7.665 3.432-7.665 7.665s3.432 7.665 7.665 7.665z"/><path d="m223.109 260.181c-7.991 0-14.492 6.501-14.492 14.492 0 4.233 3.432 7.665 7.665 7.665 2.975 0 5.558-1.695 6.827-4.177 1.269 2.481 3.851 4.177 6.827 4.177 4.233 0 7.665-3.432 7.665-7.665 0-7.991-6.501-14.492-14.492-14.492z"/><path d="m282.143 282.338c2.975 0 5.558-1.695 6.827-4.177 1.269 2.481 3.851 4.177 6.827 4.177 4.233 0 7.665-3.432 7.665-7.665 0-7.991-6.501-14.492-14.492-14.492s-14.492 6.501-14.492 14.492c0 4.233 3.432 7.665 7.665 7.665z"/></g></g></svg>