<svg enable-background="new 0 0 512 512" height="512" viewBox="0 0 512 512" width="512" xmlns="http://www.w3.org/2000/svg"><g id="_x30_3_File"><g><path d="m415.588 395.121c-4.233 0-7.665 3.432-7.665 7.665v3.986c0 4.233 3.432 7.665 7.665 7.665s7.665-3.432 7.665-7.665v-3.986c0-4.233-3.432-7.665-7.665-7.665z"/><path d="m127.072 501.284h257.856c21.131 0 38.326-17.194 38.326-38.326v-21.154c0-4.233-3.432-7.665-7.665-7.665s-7.665 3.432-7.665 7.665v21.154c0 12.68-10.315 22.995-22.995 22.995h-257.857c-12.68 0-22.995-10.315-22.995-22.995v-413.916c0-12.68 10.315-22.995 22.995-22.995h175.56v66.886c0 21.131 17.194 38.326 38.326 38.326h66.965v236.5c0 4.233 3.432 7.665 7.665 7.665s7.665-3.432 7.665-7.665v-244.136c0-1.737-.844-4.078-2.219-5.453l-105.317-105.242c-1.347-1.344-3.636-2.212-5.449-2.212h-183.196c-21.131 0-38.326 17.194-38.326 38.326v413.917c.001 21.131 17.195 38.325 38.326 38.325zm190.891-408.351v-56.026l79.08 79.021h-56.084c-12.681 0-22.996-10.315-22.996-22.995z"/><path d="m158.9 279.153c4.233 0 7.665-3.432 7.665-7.665v-50.014l35.485 54.214c1.445 2.201 3.877 3.466 6.415 3.466.73 0 1.467-.105 2.189-.318 3.249-.969 5.476-3.956 5.476-7.347v-75.719c0-4.233-3.432-7.665-7.665-7.665s-7.665 3.432-7.665 7.665v50.014l-35.485-54.214c-1.86-2.833-5.378-4.106-8.605-3.148-3.249.969-5.476 3.956-5.476 7.347v75.719c.001 4.232 3.433 7.665 7.666 7.665z"/><path d="m353.156 188.103h-53.824c-4.233 0-7.665 3.432-7.665 7.665s3.432 7.665 7.665 7.665h19.245v68.054c0 4.233 3.432 7.665 7.665 7.665s7.665-3.432 7.665-7.665v-68.054h19.249c4.233 0 7.665-3.432 7.665-7.665s-3.432-7.665-7.665-7.665z"/><path d="m276.778 203.433c4.233 0 7.665-3.432 7.665-7.665s-3.432-7.665-7.665-7.665h-37.906c-4.233 0-7.665 3.432-7.665 7.665v75.719c0 4.233 3.432 7.665 7.665 7.665s7.665-3.432 7.665-7.665v-30.193h30.241c4.233 0 7.665-3.432 7.665-7.665s-3.432-7.665-7.665-7.665h-30.241v-22.531z"/><path d="m353.156 321.752h-194.256c-4.233 0-7.665 3.432-7.665 7.665s3.432 7.665 7.665 7.665h194.255c4.233 0 7.665-3.432 7.665-7.665s-3.431-7.665-7.664-7.665z"/><path d="m360.821 379.342c0-4.233-3.432-7.665-7.665-7.665h-194.256c-4.233 0-7.665 3.432-7.665 7.665s3.432 7.665 7.665 7.665h194.255c4.234 0 7.666-3.432 7.666-7.665z"/><path d="m158.9 421.601c-4.233 0-7.665 3.432-7.665 7.665s3.432 7.665 7.665 7.665h129.622c4.233 0 7.665-3.432 7.665-7.665s-3.432-7.665-7.665-7.665z"/></g></g></svg>