<svg enable-background="new 0 0 512 512" height="512" viewBox="0 0 512 512" width="512" xmlns="http://www.w3.org/2000/svg"><g id="_x30_4_Secured_Token"><g><path d="m468.172 246.341c-4.233 0-7.665 3.432-7.665 7.665v3.986c0 4.233 3.432 7.665 7.665 7.665s7.665-3.432 7.665-7.665v-3.986c0-4.233-3.432-7.665-7.665-7.665z"/><path d="m63.758 398.772 164.707 95.114c8.496 4.937 18.018 7.403 27.539 7.403 9.518 0 19.032-2.466 27.513-7.392l164.703-95.114c17.037-9.761 27.618-28.022 27.618-47.66v-58.102c0-4.233-3.432-7.665-7.665-7.665s-7.665 3.432-7.665 7.665v58.102c0 14.155-7.628 27.322-19.93 34.37l-164.744 95.137c-12.231 7.111-27.431 7.115-39.684-.011l-164.749-95.138c-12.28-7.036-19.908-20.203-19.908-34.358v-190.247c0-14.155 7.628-27.322 19.93-34.37l164.744-95.136c12.231-7.111 27.43-7.115 39.684.011l164.748 95.137c12.28 7.036 19.908 20.203 19.908 34.358v58.102c0 4.233 3.432 7.665 7.665 7.665s7.665-3.432 7.665-7.665v-58.102c0-19.638-10.581-37.899-27.595-47.649l-164.707-95.114c-16.988-9.87-38.086-9.866-55.052-.011l-164.702 95.114c-17.037 9.761-27.618 28.022-27.618 47.66v190.247c0 19.638 10.581 37.899 27.595 47.649z"/><path d="m259.833 86.523c-2.373-1.37-5.292-1.37-7.665 0l-141.022 81.419c-2.373 1.37-3.833 3.9-3.833 6.64v162.835c0 2.74 1.46 5.27 3.833 6.64l141.022 81.419c1.186.685 2.508 1.026 3.833 1.026s2.646-.341 3.833-1.026l141.023-81.419c2.373-1.37 3.833-3.9 3.833-6.64v-162.835c0-2.74-1.46-5.27-3.833-6.64zm129.524 246.47-133.357 76.992-133.357-76.992v-153.987l133.357-76.992 133.357 76.992z"/><path d="m249.727 178.111c-24.451 2.751-44.408 22.453-47.447 46.844-2.762 22.179 7.983 43.285 27.038 54.034v28.565c0 14.716 11.969 26.686 26.682 26.686s26.682-11.969 26.682-26.686v-28.609c16.839-9.465 27.468-27.427 27.468-47.065 0-32.018-27.817-57.38-60.423-53.769zm45.093 53.768c0 15.297-8.994 29.167-22.909 35.335-2.77 1.228-4.559 3.975-4.559 7.006v33.333c0 6.262-5.094 11.355-11.352 11.355s-11.352-5.094-11.352-11.355v-33.273c0-3.02-1.774-5.756-4.529-6.995-15.671-7.029-24.762-23.28-22.629-40.436 2.175-17.445 16.453-31.536 33.95-33.505 23.976-2.696 43.38 16.131 43.38 38.535z"/></g></g></svg>