<svg enable-background="new 0 0 512 512" height="512" viewBox="0 0 512 512" width="512" xmlns="http://www.w3.org/2000/svg"><g id="_x30_6_Digital_File"><g><path d="m415.586 392.363c-4.237 0-7.665 3.432-7.665 7.665v3.986c0 4.233 3.428 7.665 7.665 7.665s7.665-3.432 7.665-7.665v-3.986c.001-4.233-3.428-7.665-7.665-7.665z"/><path d="m127.074 501.284h257.852c21.131 0 38.326-17.194 38.326-38.326v-23.916c0-4.233-3.428-7.665-7.665-7.665s-7.665 3.432-7.665 7.665v23.916c0 12.68-10.315 22.995-22.995 22.995h-257.853c-12.68 0-22.995-10.315-22.995-22.995v-413.916c0-12.68 10.315-22.995 22.995-22.995h175.557v66.886c0 21.131 17.194 38.326 38.326 38.326h66.965v233.741c0 4.233 3.428 7.665 7.665 7.665s7.665-3.432 7.665-7.665v-241.377c0-1.735-.819-4.056-2.216-5.453l-105.321-105.242c-1.417-1.415-3.757-2.212-5.449-2.212h-183.192c-21.131 0-38.326 17.194-38.326 38.326v413.917c0 21.131 17.195 38.325 38.326 38.325zm190.887-408.351v-56.026l79.08 79.021h-56.084c-12.681 0-22.996-10.315-22.996-22.995z"/><path d="m360.815 379.342c0-4.233-3.428-7.665-7.665-7.665h-194.248c-4.237 0-7.665 3.432-7.665 7.665s3.428 7.665 7.665 7.665h194.248c4.237 0 7.665-3.432 7.665-7.665z"/><path d="m158.902 421.601c-4.237 0-7.665 3.432-7.665 7.665s3.428 7.665 7.665 7.665h129.618c4.237 0 7.665-3.432 7.665-7.665s-3.428-7.665-7.665-7.665z"/><path d="m252.194 336.967c1.183.685 2.508 1.026 3.833 1.026s2.65-.341 3.833-1.026l68.297-39.43c2.373-1.37 3.833-3.9 3.833-6.64v-78.859c0-2.74-1.46-5.27-3.833-6.64l-68.297-39.43c-2.365-1.37-5.3-1.37-7.665 0l-68.297 39.43c-2.373 1.37-3.833 3.9-3.833 6.64v78.859c0 2.74 1.46 5.27 3.833 6.64zm-56.8-120.505 60.632-35.002 60.632 35.002v70.012l-60.632 35.002-60.632-35.002z"/><path d="m259.859 292.712 29.972-17.303c2.373-1.37 3.833-3.9 3.833-6.64v-34.602c0-2.74-1.46-5.27-3.833-6.64l-29.972-17.306c-2.365-1.37-5.3-1.37-7.665 0l-29.972 17.306c-2.373 1.37-3.833 3.9-3.833 6.64v34.602c0 2.74 1.46 5.27 3.833 6.64l29.972 17.303c1.183.685 2.508 1.026 3.833 1.026 1.324 0 2.649-.341 3.832-1.026zm-26.14-28.366v-25.754l22.307-12.879 22.307 12.879v25.754l-22.307 12.875z"/></g></g></svg>