<?xml version="1.0" encoding="UTF-8" standalone="no"?>
<svg
   xmlns:dc="http://purl.org/dc/elements/1.1/"
   xmlns:cc="http://creativecommons.org/ns#"
   xmlns:rdf="http://www.w3.org/1999/02/22-rdf-syntax-ns#"
   xmlns:svg="http://www.w3.org/2000/svg"
   xmlns="http://www.w3.org/2000/svg"
   xmlns:sodipodi="http://sodipodi.sourceforge.net/DTD/sodipodi-0.dtd"
   xmlns:inkscape="http://www.inkscape.org/namespaces/inkscape"
   enable-background="new 0 0 512 512"
   height="512"
   viewBox="0 0 512 512"
   width="512"
   version="1.1"
   id="svg19"
   sodipodi:docname="006-artist.svg"
   inkscape:version="0.92.5 (2060ec1f9f, 2020-04-08)">
  <metadata
     id="metadata25">
    <rdf:RDF>
      <cc:Work
         rdf:about="">
        <dc:format>image/svg+xml</dc:format>
        <dc:type
           rdf:resource="http://purl.org/dc/dcmitype/StillImage" />
      </cc:Work>
    </rdf:RDF>
  </metadata>
  <defs
     id="defs23" />
  <sodipodi:namedview
     pagecolor="#ffffff"
     bordercolor="#666666"
     borderopacity="1"
     objecttolerance="10"
     gridtolerance="10"
     guidetolerance="10"
     inkscape:pageopacity="0"
     inkscape:pageshadow="2"
     inkscape:window-width="950"
     inkscape:window-height="480"
     id="namedview21"
     showgrid="false"
     showguides="false"
     inkscape:zoom="0.4609375"
     inkscape:cx="256"
     inkscape:cy="256"
     inkscape:window-x="52"
     inkscape:window-y="27"
     inkscape:window-maximized="0"
     inkscape:current-layer="svg19" />
  <path
     d="m 353.31,501.299 c 4.237,0 7.665,-3.432 7.665,-7.665 0,-4.233 -3.428,-7.665 -7.665,-7.665 h -3.982 c -4.237,0 -7.665,3.432 -7.665,7.665 0,4.233 3.428,7.665 7.665,7.665 z"
     id="path2"
     inkscape:connector-curvature="0" />
  <path
     d="m 121.747,501.299 h 192.549 c 4.237,0 7.665,-3.432 7.665,-7.665 0,-4.233 -3.428,-7.665 -7.665,-7.665 H 121.747 c -50.456,0 -83.487,-53.853 -59.712,-97.457 19.672,-36.383 49.209,-66.482 85.417,-87.045 18.092,-10.259 40.833,-6.213 54.12,9.608 28.162,33.549 80.199,33.867 108.869,-0.09 13.144,-15.749 35.885,-19.747 54.045,-9.514 36.222,20.499 65.782,50.598 85.499,87.06 23.681,43.518 -9.225,97.438 -59.809,97.438 h -1.834 c -4.237,0 -7.665,3.432 -7.665,7.665 0,4.233 3.428,7.665 7.665,7.665 h 1.834 c 62.171,0 102.552,-66.315 73.283,-120.078 -21.079,-38.981 -52.69,-71.172 -91.435,-93.097 -24.612,-13.867 -55.46,-8.38 -73.32,13.002 -22.482,26.62 -63.343,26.361 -85.394,0.09 -18.025,-21.476 -48.895,-26.981 -73.425,-13.081 -38.707,21.981 -70.296,54.172 -91.323,93.059 -29.316,53.754 11.058,120.105 73.185,120.105 z"
     id="path4"
     inkscape:connector-curvature="0" />
  <path
     d="m 255.992,249.858 c 65.94,0 119.58,-53.645 119.58,-119.58 0,-65.935 -53.641,-119.577 -119.58,-119.577 -65.939,0 -119.58,53.641 -119.58,119.577 0,65.936 53.64,119.58 119.58,119.58 z m 0,-223.827 c 57.481,0 104.25,46.765 104.25,104.246 0,57.485 -46.769,104.25 -104.25,104.25 -57.481,0 -104.25,-46.765 -104.25,-104.25 0,-57.48 46.769,-104.246 104.25,-104.246 z"
     id="path6"
     inkscape:connector-curvature="0" />
  <path
     d="m 412.219,197.545 c -2.189,2.99 -3.384,6.644 -3.201,10.376 l 4.349,89.362 c 0.202,4.098 3.586,7.291 7.65,7.291 0.127,0 0.255,-0.004 0.382,-0.007 4.229,-0.206 7.485,-3.803 7.283,-8.032 -0.899,-18.249 2.31,46.886 -4.451,-90.346 h 23.215 c -6.705,137.23 -3.523,72.106 -4.414,90.35 -0.202,4.226 3.054,7.822 7.283,8.028 4.184,0.195 7.822,-3.054 8.032,-7.287 l 4.342,-89.358 c 0.184,-3.749 -1.024,-7.418 -3.232,-10.415 8.314,-6.866 13.734,-17.12 13.734,-28.723 0,-17.853 -25.885,-56.65 -31.072,-64.244 -3.023,-4.424 -9.614,-4.489 -12.665,0.007 -5.18,7.598 -30.99,46.391 -30.99,64.237 -10e-4,11.624 5.428,21.895 13.755,28.761 z m 23.574,-74.697 c 10.637,16.812 22.067,37.91 22.067,45.935 0,12.171 -9.896,22.075 -22.067,22.075 -12.134,0 -22,-9.903 -22,-22.075 0,-8.013 11.4,-29.115 22,-45.935 z"
     id="path14"
     inkscape:connector-curvature="0" />
</svg>
