<svg enable-background="new 0 0 512 512" height="512" viewBox="0 0 512 512" width="512" xmlns="http://www.w3.org/2000/svg"><g id="_x30_8_Nft_Music"><g><path d="m401.214 380.95c-4.237 0-7.665 3.432-7.665 7.665v3.982c0 4.233 3.428 7.665 7.665 7.665s7.665-3.432 7.665-7.665v-3.982c0-4.233-3.428-7.665-7.665-7.665z"/><path d="m149.111 501.29h213.778c25.361 0 45.991-20.63 45.991-45.991v-27.67c0-4.233-3.428-7.665-7.665-7.665s-7.665 3.432-7.665 7.665v27.67c0 16.906-13.751 30.66-30.66 30.66h-213.779c-16.91 0-30.66-13.755-30.66-30.66v-398.586c0-16.906 13.751-30.66 30.66-30.66h28.804v18.407c0 12.68 10.315 22.995 22.995 22.995h110.156c12.68 0 22.995-10.315 22.995-22.995v-18.407h28.827c16.91 0 30.66 13.755 30.66 30.66v296.87c0 4.233 3.428 7.665 7.665 7.665s7.665-3.432 7.665-7.665v-296.87c0-25.361-20.63-45.991-45.991-45.991.771-.001-49.94-.028-213.778 0-25.361 0-45.991 20.63-45.991 45.991v398.586c.003 25.361 20.632 45.991 45.993 45.991zm169.621-456.831c0 4.226-3.436 7.665-7.665 7.665h-110.156c-4.229 0-7.665-3.44-7.665-7.665v-18.406h125.486z"/><path d="m195.177 462.935h121.624c4.237 0 7.665-3.432 7.665-7.665s-3.428-7.665-7.665-7.665h-121.624c-4.237 0-7.665 3.432-7.665 7.665s3.428 7.665 7.665 7.665z"/><path d="m319.466 196.231v-73.758c0-5.215-5.101-8.876-9.978-7.306l-77.497 24.56c-3.189 1.007-5.352 3.964-5.352 7.306v64.046c-2.886-1.187-6.034-1.864-9.342-1.864-13.668 0-24.784 11.071-24.784 24.676 0 13.665 11.116 24.781 24.784 24.781 13.601 0 24.672-11.116 24.672-24.781v-81.247l62.167-19.702v40.481c-2.886-1.186-6.034-1.864-9.342-1.864-13.668 0-24.784 11.067-24.784 24.672 0 13.665 11.116 24.784 24.784 24.784 13.601 0 24.672-11.119 24.672-24.784zm-102.17 47.11c-5.3 0-9.454-4.151-9.454-9.45 0-5.154 4.244-9.346 9.454-9.346 5.15 0 9.342 4.192 9.342 9.346 0 5.209-4.192 9.45-9.342 9.45zm68.043-47.11c0-5.15 4.244-9.342 9.454-9.342 5.15 0 9.342 4.192 9.342 9.342 0 5.214-4.192 9.454-9.342 9.454-5.299 0-9.454-4.154-9.454-9.454z"/><path d="m156.672 285.933c-3.249.969-5.472 3.956-5.472 7.347v75.719c0 4.233 3.428 7.665 7.665 7.665s7.665-3.432 7.665-7.665v-50.014l35.481 54.214c1.445 2.201 3.877 3.466 6.415 3.466.726 0 1.467-.105 2.193-.318 3.249-.969 5.472-3.956 5.472-7.347v-75.72c0-4.233-3.428-7.665-7.665-7.665s-7.665 3.432-7.665 7.665v50.01l-35.481-54.21c-1.857-2.829-5.352-4.109-8.608-3.147z"/><path d="m333.868 368.999v-68.054h19.245c4.237 0 7.665-3.432 7.665-7.665s-3.428-7.665-7.665-7.665h-53.821c-4.237 0-7.665 3.432-7.665 7.665s3.428 7.665 7.665 7.665h19.245v68.054c0 4.233 3.428 7.665 7.665 7.665 4.237.001 7.666-3.432 7.666-7.665z"/><path d="m276.738 300.945c4.237 0 7.665-3.432 7.665-7.665s-3.428-7.665-7.665-7.665h-37.906c-4.237 0-7.665 3.432-7.665 7.665v75.719c0 4.233 3.428 7.665 7.665 7.665s7.665-3.432 7.665-7.665v-30.193h30.241c4.237 0 7.665-3.432 7.665-7.665s-3.428-7.665-7.665-7.665h-30.241v-22.531z"/></g></g></svg>