<svg enable-background="new 0 0 512 512" height="512" viewBox="0 0 512 512" width="512" xmlns="http://www.w3.org/2000/svg"><g id="_x30_9_Fake_Art"><g><path d="m442.478 108.634c-4.237 0-7.665 3.432-7.665 7.665v3.986c0 4.233 3.428 7.665 7.665 7.665s7.665-3.432 7.665-7.665v-3.986c0-4.233-3.428-7.665-7.665-7.665z"/><path d="m351.223 223.113c0-16.086-13.639-29.126-29.942-27.954-9.93-32.301-36.737-56.789-69.124-64.499 2.095-3.664 3.387-7.844 3.387-12.358 0-4.233-3.428-7.665-7.665-7.665s-7.665 3.432-7.665 7.665c0 2.247-.889 4.222-2.168 5.874-.179-4.074-3.478-7.341-7.6-7.341s-7.42 3.267-7.6 7.341c-1.28-1.652-2.169-3.628-2.169-5.874 0-4.233-3.428-7.665-7.665-7.665s-7.665 3.432-7.665 7.665c0 4.514 1.292 8.693 3.386 12.357-32.392 7.71-59.201 32.198-69.131 64.5-16.273-1.194-29.934 11.868-29.934 27.954s13.683 29.066 29.934 27.954c12.069 39.26 49.055 67.032 90.721 67.087.034 0 .066.005.101.005h.01.012c41.709 0 78.755-27.794 90.836-67.092 16.28 1.089 29.941-11.868 29.941-27.954zm-146.888 43.067c.778-2.257.457-4.746-.861-6.729-1.317-1.987-3.488-3.249-5.861-3.41-14.387-.981-25.66-13.07-25.66-27.517 0-15.225 12.373-27.61 27.584-27.61 10.068 0 19.342 5.483 24.201 14.312 2.695 4.895 10.734 4.895 13.429 0 4.858-8.829 14.118-14.312 24.163-14.312 15.225 0 27.614 12.385 27.614 27.61 0 14.447-11.296 26.532-25.72 27.517-2.388.161-4.559 1.433-5.876 3.432s-1.624 4.499-.831 6.759c6.178 17.505-6.875 36.591-26.087 36.596-.008 0-.016-.001-.024-.001-18.872-.011-32.248-18.672-26.071-36.647zm118.862-30.376c-1.572 0-3.189-.307-4.566-.868-4.349-1.769-9.339.758-10.375 5.453-4.922 22.403-19.356 40.982-38.442 51.898 3.183-7.318 4.159-15.138 3.208-22.473 18.085-5.135 31.252-21.835 31.252-41.29 0-23.677-19.268-42.94-42.944-42.94-11.797 0-22.898 4.854-30.878 13.137-7.987-8.283-19.103-13.137-30.915-13.137-23.662 0-42.914 19.264-42.914 42.94 0 19.462 13.152 36.17 31.222 41.294-.955 7.622.109 15.325 3.207 22.458-19.078-10.918-33.505-29.492-38.426-51.887-1.039-4.706-6.036-7.22-10.375-5.453-1.377.561-2.994.868-4.566.868-6.999 0-12.688-5.693-12.688-12.692s5.689-12.692 12.688-12.692c1.572 0 3.189.307 4.566.868 4.366 1.786 9.344-.782 10.375-5.453 7.95-36.177 40.676-62.436 77.819-62.436 37.135 0 69.862 26.259 77.811 62.436 1.038 4.701 6.025 7.216 10.375 5.453 1.377-.561 2.994-.868 4.566-.868 6.999 0 12.695 5.693 12.695 12.692s-5.696 12.692-12.695 12.692z"/><path d="m239.18 289.984c4.237 0 7.665-3.432 7.665-7.665s-3.428-7.665-7.665-7.665h-17.501c-4.237 0-7.665 3.432-7.665 7.665s3.428 7.665 7.665 7.665z"/><path d="m201.064 217.3c-7.583 0-13.758 6.172-13.758 13.755 0 4.233 3.428 7.665 7.665 7.665 2.485 0 4.693-1.183 6.093-3.013 1.4 1.83 3.608 3.013 6.093 3.013 4.237 0 7.665-3.432 7.665-7.665 0-7.583-6.175-13.755-13.758-13.755z"/><path d="m253.739 238.72c2.485 0 4.693-1.183 6.093-3.013 1.4 1.83 3.608 3.013 6.093 3.013 4.237 0 7.665-3.432 7.665-7.665 0-7.583-6.176-13.755-13.758-13.755-7.583 0-13.758 6.172-13.758 13.755 0 4.233 3.429 7.665 7.665 7.665z"/><path d="m450.143 312.961v-157.648c0-4.233-3.428-7.665-7.665-7.665s-7.665 3.432-7.665 7.665v151.462c-8.469-2.539-17.424-3.946-26.708-3.946-1.981 0-3.918.174-5.869.297v-224.771c0-4.233-3.428-7.665-7.665-7.665h-328.298c-4.237 0-7.665 3.432-7.665 7.665v272.112c0 4.233 3.428 7.665 7.665 7.665h256.639c-4.503 10.051-7.218 21.034-7.874 32.577h-262.403c-14.672 0-26.603-11.932-26.603-26.596v-299.475c0-14.627 11.932-26.525 26.603-26.525h355.657c14.627 0 26.521 11.898 26.521 26.525v16.632c0 4.233 3.428 7.665 7.665 7.665s7.665-3.432 7.665-7.665v-16.632c0-23.078-18.774-41.855-41.851-41.855h-355.657c-23.123 0-41.934 18.777-41.934 41.855v299.475c0 23.119 18.811 41.926 41.934 41.926h262.694c5.025 46.69 44.706 83.179 92.776 83.179 51.388 0 93.194-41.81 93.194-93.198 0-36.253-20.854-67.659-51.156-83.059zm-376.205 29.841v-256.782h312.967v219.327c-22.752 5.305-42.321 18.894-55.312 37.454h-257.655zm334.167 131.085c-43.012 0-78.006-34.931-78.006-77.868 0-42.933 34.995-77.86 78.006-77.86 42.937 0 77.864 34.927 77.864 77.86 0 42.937-34.928 77.868-77.864 77.868z"/><path d="m408.037 401.776c4.237 0 7.665-3.432 7.665-7.665v-28.456c0-4.233-3.428-7.665-7.665-7.665s-7.665 3.432-7.665 7.665v28.456c0 4.233 3.429 7.665 7.665 7.665z"/><path d="m412.274 419.988c-.382-.228-.838-.457-1.302-.689-.457-.153-.921-.307-1.452-.46-2.455-.46-5.135.385-6.902 2.148-.382.307-.689.689-.921 1.149-.307.382-.531.842-.764 1.302-.157.46-.307.996-.464 1.456-.075.46-.15.996-.15 1.456 0 1.074.232 1.995.614 2.99.382.921.996 1.763 1.684 2.452 1.377 1.46 3.376 2.223 5.442 2.223.464 0 .996 0 1.46-.153.531-.075.996-.228 1.452-.382.464-.228.921-.46 1.302-.689.464-.307.846-.614 1.153-.999.764-.689 1.302-1.531 1.684-2.452.382-.996.614-1.916.614-2.99 0-1.991-.838-3.986-2.298-5.363-.306-.385-.688-.692-1.152-.999z"/></g></g></svg>