<svg enable-background="new 0 0 512 512" height="512" viewBox="0 0 512 512" width="512" xmlns="http://www.w3.org/2000/svg"><g id="_x31_0_Autographed"><g><path d="m415.586 403.4c-4.237 0-7.665 3.432-7.665 7.665v3.986c0 4.233 3.428 7.665 7.665 7.665s7.665-3.432 7.665-7.665v-3.986c.001-4.233-3.428-7.665-7.665-7.665z"/><path d="m127.074 501.284h257.852c21.131 0 38.326-17.194 38.326-38.326v-12.879c0-4.233-3.428-7.665-7.665-7.665s-7.665 3.432-7.665 7.665v12.879c0 12.68-10.315 22.995-22.995 22.995h-257.853c-12.68 0-22.995-10.315-22.995-22.995v-413.916c0-12.68 10.315-22.995 22.995-22.995h175.557v66.886c0 21.131 17.194 38.326 38.326 38.326h66.965v244.779c0 4.233 3.428 7.665 7.665 7.665s7.665-3.432 7.665-7.665v-252.415c0-1.751-.82-4.058-2.216-5.453l-105.321-105.242c-1.402-1.4-3.745-2.212-5.449-2.212h-183.192c-21.131 0-38.326 17.194-38.326 38.326v413.917c0 21.131 17.195 38.325 38.326 38.325zm190.887-408.351v-56.026l79.08 79.021h-56.084c-12.681 0-22.996-10.315-22.996-22.995z"/><path d="m252.194 336.967c1.183.685 2.508 1.026 3.833 1.026s2.65-.341 3.833-1.026l68.297-39.43c2.373-1.37 3.833-3.9 3.833-6.64v-78.859c0-2.74-1.46-5.27-3.833-6.64l-68.297-39.43c-2.365-1.37-5.3-1.37-7.665 0l-68.297 39.43c-2.373 1.37-3.833 3.9-3.833 6.64v78.859c0 2.74 1.46 5.27 3.833 6.64zm-56.8-120.505 60.632-35.002 60.632 35.002v70.012l-60.632 35.002-60.632-35.002z"/><path d="m259.859 292.712 29.972-17.303c2.373-1.37 3.833-3.9 3.833-6.64v-34.602c0-2.74-1.46-5.27-3.833-6.64l-29.972-17.306c-2.365-1.37-5.3-1.37-7.665 0l-29.972 17.306c-2.373 1.37-3.833 3.9-3.833 6.64v34.602c0 2.74 1.46 5.27 3.833 6.64l29.972 17.303c1.183.685 2.508 1.026 3.833 1.026 1.324 0 2.649-.341 3.832-1.026zm-26.14-28.366v-25.754l22.307-12.879 22.307 12.879v25.754l-22.307 12.875z"/><path d="m314.151 386.839c11.844 3.088 23.008-4.879 25.593-11.988 13.25-25.436 29.649-26.866 33.872-29.624 3.541-2.313 4.858-7.242 2.545-10.787-2.32-3.541-6.722-4.72-10.293-2.407-17.998 7.815-31.307 17.217-40.317 36.926-10.1 14.033-20.551-20.412-43.461-10.858-4.761 1.984-8.017 5.917-8.93 10.794-1.819 9.712 5.704 15.544 10.682 19.399 1.826 1.415 3.548 2.755 4.656 4.012 3.013 3.427 1.946 9.995-1.647 13.141-3.473 3.028-8.324 3.892-13.339 2.388-12.338-3.741-14.67-17.253-15.764-19.092-6.557-11.14-23.053-9.538-31.649.116-5.101 5.73-8.502 14.933-12.134 19.137-6.476 7.499-20.721 6.766-26.469-1.074-2.5-3.421-7.313-4.158-10.712-1.654-3.413 2.5-4.154 7.298-1.654 10.712 11.644 15.892 37.589 16.9 50.437 2.04 4.679-5.41 8.517-15.077 11.984-18.968 2.021-2.272 5.554-2.983 6.707-2.646 4.042 12.897 13.212 22.587 24.814 26.102 28.806 8.706 51.354-25.266 24.163-46.328-1.482-1.149-3.818-2.953-4.708-4.102 7.986-1.633 12.685 11.373 25.624 14.761z"/></g></g></svg>