<svg enable-background="new 0 0 512 512" height="512" viewBox="0 0 512 512" width="512" xmlns="http://www.w3.org/2000/svg"><g id="_x31_1_Object"><g><path d="m493.677 266.513c-4.222-.146-7.852 2.987-8.096 7.212-.06 1.037-.18 2.073-.344 3.582-.468 4.207 2.582 7.789 6.789 8.256.273.03.546.045.812.045 3.877 0 7.238-3.084 7.68-7.018.153-1.37.296-2.676.371-3.982.243-4.228-2.987-7.851-7.212-8.095z"/><path d="m256.305 501.284c113.169 0 211.075-76.595 238.09-186.268 1.011-4.11-1.501-8.264-5.61-9.278-4.113-1.007-8.264 1.497-9.278 5.61-25.32 102.805-117.107 174.606-223.202 174.606-126.796 0-229.954-103.158-229.954-229.954s103.158-229.954 229.954-229.954c120.28 0 221.027 93.834 229.362 213.624.292 4.222 3.997 7.381 8.178 7.115 4.222-.292 7.411-3.956 7.115-8.178-8.889-127.788-116.354-227.891-244.655-227.891-135.251 0-245.284 110.033-245.284 245.284s110.033 245.284 245.284 245.284z"/><path d="m376.641 169.708-116.23-72.958c-2.493-1.564-5.659-1.564-8.152 0l-116.231 72.957c-1.957 1.227-3.589 3.688-3.589 6.494v159.534c0 2.639 1.355 5.09 3.589 6.494l116.231 72.957c2.386 1.497 5.727 1.521 8.152 0l116.231-72.957c2.234-1.404 3.589-3.855 3.589-6.494v-159.534c0-2.782-1.645-5.274-3.59-6.493zm-120.306-57.414 101.812 63.906-101.812 63.909-101.812-63.909zm-108.566 77.771 100.9 63.334v141.432l-100.9-63.333zm116.231 204.766v-141.432l100.9-63.334v141.434z"/></g></g></svg>