<svg enable-background="new 0 0 512 512" height="512" viewBox="0 0 512 512" width="512" xmlns="http://www.w3.org/2000/svg"><g id="_x31_2_Nft_Video"><g><path d="m442.478 121.127c-4.233 0-7.665 3.432-7.665 7.665v4.065c0 4.233 3.432 7.665 7.665 7.665s7.665-3.432 7.665-7.665v-4.065c0-4.233-3.432-7.665-7.665-7.665z"/><path d="m450.143 312.961v-145.076c0-4.233-3.432-7.665-7.665-7.665s-7.665 3.432-7.665 7.665v138.89c-8.469-2.539-17.424-3.946-26.708-3.946-1.981 0-3.918.174-5.869.297v-224.771c0-4.233-3.432-7.665-7.665-7.665h-328.298c-4.233 0-7.665 3.432-7.665 7.665v272.112c0 4.233 3.432 7.665 7.665 7.665h256.642c-4.503 10.051-7.217 21.034-7.874 32.577h-262.41c-14.668 0-26.6-11.932-26.6-26.596v-299.475c0-14.627 11.932-26.525 26.6-26.525h355.661c14.623 0 26.521 11.898 26.521 26.525v29.126c0 4.233 3.432 7.665 7.665 7.665s7.665-3.432 7.665-7.665v-29.126c0-23.078-18.774-41.855-41.851-41.855h-355.661c-23.119 0-41.93 18.777-41.93 41.855v299.475c0 23.119 18.811 41.926 41.93 41.926h262.701c5.025 46.69 44.702 83.179 92.773 83.179 51.388 0 93.194-41.81 93.194-93.198 0-36.253-20.854-67.659-51.156-83.059zm-376.205 29.841v-256.782h312.967v219.327c-22.752 5.305-42.319 18.894-55.309 37.454h-257.658zm334.167 131.085c-43.012 0-78.002-34.931-78.002-77.868 0-42.933 34.991-77.86 78.002-77.86 42.933 0 77.864 34.927 77.864 77.86 0 42.937-34.931 77.868-77.864 77.868z"/><path d="m414.598 351.421c-2.777-4.596-10.352-4.596-13.13 0l-24.515 40.642c-1.467 2.437-1.467 5.483 0 7.92l24.515 40.639c2.975 4.924 10.141 4.946 13.13 0l24.515-40.639c1.467-2.437 1.467-5.483 0-7.92zm-6.564 70.401-15.562-25.799 15.562-25.802 15.562 25.802z"/><path d="m279.31 208.1-88.991-61.811c-5.041-3.517-12.037.086-12.037 6.295v123.626c0 6.24 7.021 9.788 12.037 6.295l88.991-61.815c4.381-3.044 4.395-9.534 0-12.59zm-85.698 53.454v-94.313l67.889 47.155z"/></g></g></svg>