<svg enable-background="new 0 0 512 512" height="512" viewBox="0 0 512 512" width="512" xmlns="http://www.w3.org/2000/svg"><g id="_x31_3_Market"><g><path d="m346.593 100.04c-2.148.21-4.11 1.314-5.401 3.039l-90.859 121.455-90.11 79.657-90.589 50.078c-3.705 2.047-5.049 6.711-2.998 10.416 2.057 3.728 6.742 5.034 10.416 2.998l91.326-50.486c.49-.269.947-.595 1.366-.966l91.33-80.735c.393-.344.749-.73 1.063-1.149l86.285-115.344 85.087 77.1c3.14 2.837 7.983 2.605 10.828-.535 2.841-3.136 2.601-7.983-.535-10.828l-91.326-82.752c-1.598-1.442-3.701-2.124-5.883-1.948z"/><path d="m463.007 407.802c-4.233 0-7.665 3.432-7.665 7.665v4.061c0 4.233 3.432 7.665 7.665 7.665s7.665-3.432 7.665-7.665v-4.061c0-4.233-3.432-7.665-7.665-7.665z"/><path d="m18.381 501.284h475.237c4.233 0 7.665-3.432 7.665-7.665s-3.432-7.665-7.665-7.665h-22.947v-31.398c0-4.233-3.432-7.665-7.665-7.665s-7.665 3.432-7.665 7.665v31.398h-33.419v-216.05h33.419v110.53c0 4.233 3.432 7.665 7.665 7.665s7.665-3.432 7.665-7.665v-118.195c0-4.233-3.432-7.665-7.665-7.665h-48.749c-4.233 0-7.665 3.432-7.665 7.665v223.714h-27.228v-295.53c0-4.233-3.432-7.665-7.665-7.665h-48.738c-4.233 0-7.665 3.432-7.665 7.665v295.53h-27.262v-191.22c0-4.233-3.432-7.665-7.665-7.665h-48.738c-4.233 0-7.665 3.432-7.665 7.665v191.22h-27.262v-124.977c0-4.233-3.432-7.665-7.665-7.665h-48.738c-4.233 0-7.665 3.432-7.665 7.665v124.977h-27.258v-92.745c0-4.233-3.432-7.665-7.665-7.665h-48.739c-4.233 0-7.665 3.432-7.665 7.665v92.745h-22.928c-4.233 0-7.665 3.432-7.665 7.665s3.432 7.666 7.665 7.666zm312.245-303.195h33.408v287.865h-33.408zm-91.33 104.31h33.408v183.555h-33.408zm-91.33 66.242h33.408v117.312h-33.408zm-91.327 32.233h33.408v85.08h-33.408z"/><path d="m120.831 230.609c60.625 0 109.947-49.322 109.947-109.947s-49.322-109.946-109.947-109.946c-60.718 0-110.115 49.322-110.115 109.947s49.397 109.946 110.115 109.946zm0-204.563c52.17 0 94.616 42.446 94.616 94.616s-42.446 94.616-94.616 94.616c-52.264 0-94.785-42.446-94.785-94.616s42.522-94.616 94.785-94.616z"/><path d="m114.184 173.222c1.389 2.298 3.877 3.705 6.565 3.705 2.687 0 5.176-1.407 6.565-3.705l29.313-48.599c1.467-2.437 1.467-5.483 0-7.92l-29.313-48.603c-1.389-2.298-3.877-3.705-6.565-3.705-2.687 0-5.176 1.407-6.565 3.705l-29.317 48.603c-1.467 2.437-1.467 5.483 0 7.92zm6.565-86.322 20.36 33.763-20.36 33.759-20.364-33.759z"/></g></g></svg>