<svg enable-background="new 0 0 512 512" height="512" viewBox="0 0 512 512" width="512" xmlns="http://www.w3.org/2000/svg"><g id="_x31_4_Ntf_Ownership"><g><path d="m377.001 148.476c-4.233 0-7.665 3.432-7.665 7.665v3.986c0 4.233 3.432 7.665 7.665 7.665s7.665-3.432 7.665-7.665v-3.986c0-4.233-3.432-7.665-7.665-7.665z"/><path d="m384.666 88.225c0-2.74-1.463-5.27-3.836-6.64l-121.033-69.827c-2.365-1.37-5.292-1.37-7.658 0l-121.028 69.828c-2.373 1.37-3.836 3.9-3.836 6.64v139.734c0 2.74 1.46 5.27 3.833 6.636l121.029 69.907c1.186.685 2.508 1.029 3.833 1.029s2.646-.344 3.833-1.029l121.033-69.907c2.373-1.366 3.833-3.896 3.833-6.636v-32.805c0-4.233-3.432-7.665-7.665-7.665s-7.665 3.432-7.665 7.665v28.381l-113.367 65.479-113.364-65.479v-130.883l113.364-65.408 113.367 65.408v28.456c0 4.233 3.432 7.665 7.665 7.665s7.665-3.432 7.665-7.665v-32.884z"/><path d="m210.382 128.823v33.52l-25.533-37.809c-4.234-6.276-14.017-3.219-14.017 4.289v58.57c0 4.233 3.432 7.665 7.665 7.665s7.665-3.432 7.665-7.665v-33.52l25.533 37.809c4.216 6.248 14.017 3.249 14.017-4.289v-58.57c0-4.233-3.432-7.665-7.665-7.665s-7.665 3.432-7.665 7.665z"/><path d="m312.024 195.058c4.233 0 7.665-3.432 7.665-7.665v-50.905h13.811c4.233 0 7.665-3.432 7.665-7.665s-3.432-7.665-7.665-7.665h-42.948c-4.233 0-7.665 3.432-7.665 7.665s3.432 7.665 7.665 7.665h13.807v50.905c-.001 4.233 3.432 7.665 7.665 7.665z"/><path d="m272.556 136.488c4.233 0 7.665-3.432 7.665-7.665s-3.432-7.665-7.665-7.665h-30.245c-4.233 0-7.665 3.432-7.665 7.665v58.57c0 4.233 3.432 7.665 7.665 7.665s7.665-3.432 7.665-7.665v-21.618h22.58c4.233 0 7.665-3.432 7.665-7.665s-3.432-7.665-7.665-7.665h-22.58v-13.957z"/><path d="m84.48 400.643c-24.464 44.992 9.153 100.627 61.31 100.627h220.372c52.199 0 85.79-55.674 61.388-100.623-17.501-32.236-43.652-58.828-75.626-76.909-20.72-11.715-46.765-7.115-61.92 10.948-17.958 21.381-50.484 20.956-67.998.075-15.207-18.137-41.29-22.778-62.017-11.026-31.969 18.113-58.086 44.713-75.509 76.908zm83.07-63.571c14.274-8.093 32.251-4.937 42.712 7.538 23.733 28.297 67.493 28.495 91.48-.067 10.424-12.396 28.355-15.536 42.637-7.459 29.47 16.663 53.57 41.17 69.697 70.876 18.908 34.83-7.445 77.98-47.914 77.98h-220.372c-40.406 0-66.817-43.078-47.836-77.987 16.06-29.677 40.126-54.184 69.596-70.881z"/></g></g></svg>