<svg enable-background="new 0 0 512 512" height="512" viewBox="0 0 512 512" width="512" xmlns="http://www.w3.org/2000/svg"><g id="_x31_6_Digital_Wallet"><g><path d="m81.139 501.29h213.778c25.361 0 45.991-20.63 45.991-45.991v-74.963h83.628c18.474 0 33.497-15.027 33.497-33.497v-55.392c10.511-.913 18.818-9.66 18.818-20.403v-30.14c0-10.743-8.308-19.49-18.818-20.403v-55.328c0-18.47-15.023-33.494-33.497-33.494h-83.628v-74.966c0-25.361-20.63-45.991-45.991-45.991.771-.001-49.906-.028-213.778 0-25.361 0-45.991 20.63-45.991 45.991v285.758c0 4.233 3.428 7.665 7.665 7.665s7.665-3.432 7.665-7.665v-285.758c0-16.906 13.751-30.66 30.66-30.66h28.834v18.407c0 12.68 10.315 22.995 22.995 22.995h110.164c12.68 0 22.995-10.315 22.995-22.995v-18.407h28.789c16.91 0 30.66 13.755 30.66 30.66v74.967h-119.88c-18.474 0-33.497 15.023-33.497 33.494v181.665c0 18.47 15.023 33.497 33.497 33.497h119.88v74.963c0 16.906-13.751 30.66-30.66 30.66h-213.776c-16.91 0-30.66-13.755-30.66-30.66v-38.786c0-4.233-3.428-7.665-7.665-7.665s-7.665 3.432-7.665 7.665v38.786c0 25.361 20.63 45.991 45.99 45.991zm169.659-456.831c0 4.226-3.436 7.665-7.665 7.665h-110.164c-4.229 0-7.665-3.44-7.665-7.665v-18.406h125.494zm210.723 196.445v30.14c0 2.897-2.358 5.251-5.255 5.251h-60.513c-2.897 0-5.255-2.354-5.255-5.251v-30.14c0-2.897 2.358-5.251 5.255-5.251h60.513c2.897 0 5.255 2.354 5.255 5.251zm-273.991 105.935v-181.665c0-10.016 8.152-18.163 18.167-18.163h218.838c10.016 0 18.167 8.148 18.167 18.163v55.149h-46.949c-11.348 0-20.585 9.233-20.585 20.581v30.14c0 11.348 9.237 20.581 20.585 20.581h46.949v55.213c0 10.019-8.152 18.167-18.167 18.167h-218.837c-10.016.001-18.168-8.147-18.168-18.166z"/><path d="m42.814 389.15c4.237 0 7.665-3.432 7.665-7.665v-3.986c0-4.233-3.428-7.665-7.665-7.665s-7.665 3.432-7.665 7.665v3.986c0 4.233 3.428 7.665 7.665 7.665z"/><path d="m248.859 462.935c4.237 0 7.665-3.432 7.665-7.665s-3.428-7.665-7.665-7.665h-121.624c-4.237 0-7.665 3.432-7.665 7.665s3.428 7.665 7.665 7.665z"/><path d="m277.244 202.766c-1.445-1.924-3.713-3.058-6.123-3.058s-4.678 1.13-6.123 3.058l-36.574 48.603c-2.059 2.728-2.059 6.486 0 9.215l36.574 48.599c1.445 1.927 3.713 3.058 6.123 3.058s4.678-1.13 6.123-3.058l36.566-48.599c2.059-2.728 2.059-6.486 0-9.215zm-6.123 89.062-26.978-35.852 26.978-35.855 26.978 35.855z"/></g></g></svg>