<svg enable-background="new 0 0 512 512" height="512" viewBox="0 0 512 512" width="512" xmlns="http://www.w3.org/2000/svg"><g id="_x31_7_Crpoto_Investment"><g><path d="m382.078 154.942c.284.03.561.045.838.045 3.862 0 7.186-2.908 7.613-6.838.105-.966.12-1.928.12-2.893 0-.913-.022-1.942-.135-2.848-.509-4.177-4.259-7.1-8.459-6.617-4.177.472-7.186 4.289-6.759 8.474.037.322.022.674.022.992 0 .412.015.823-.03 1.239-.456 4.206 2.583 7.99 6.79 8.446z"/><path d="m249.435 81.012-36.372 60.303c-1.467 2.437-1.467 5.483 0 7.92l36.372 60.299c1.392 2.298 3.877 3.705 6.565 3.705s5.172-1.407 6.565-3.705l36.372-60.299c1.467-2.437 1.467-5.483 0-7.92l-36.372-60.303c-2.77-4.596-10.36-4.596-13.13 0zm6.565 109.722-27.419-45.459 27.419-45.463 27.419 45.463z"/><path d="m155.017 485.939h-26.539c-4.237 0-7.665 3.432-7.665 7.665s3.428 7.665 7.665 7.665h255.045c4.237 0 7.665-3.432 7.665-7.665s-3.428-7.665-7.665-7.665h-26.539c-4.711-38.154-44.193-68.413-93.318-71.303v-36.711c65.785 23.184 111.938-8.595 127.29-68.83.891-3.522-.816-7.19-4.087-8.777-1.969-.954-48.498-23.141-86.637-5.397-16.612 7.735-28.447 21.576-36.566 34.908v-50.29c55.578-3.194 104.742-41.278 121.13-94.947 1.243-4.05-1.04-8.331-5.09-9.57-4.072-1.25-8.339 1.044-9.566 5.094-15.181 49.696-62.062 84.406-114.011 84.406-.041 0-.08-.006-.12-.006-.002 0-.005-.001-.007-.001-.001 0-.003.001-.004.001-65.833-.072-119.367-53.54-119.367-119.259 0-65.722 53.603-119.195 119.498-119.195 52.017 0 98.928 34.71 114.086 84.406 1.228 4.05 5.494 6.329 9.566 5.098 4.05-1.235 6.325-5.517 5.09-9.566-17.374-56.983-69.106-95.268-128.743-95.268-74.346 0-134.828 60.348-134.828 134.525 0 71.592 56.323 130.138 127.036 134.202v50.37c-8.119-13.332-19.955-27.173-36.567-34.908-38.138-17.744-84.668 4.443-86.637 5.397-3.271 1.587-4.978 5.255-4.087 8.777.539 2.115 13.564 51.972 51.687 69.72 23.12 10.754 51.358 7.654 75.603-.89v36.712c-49.125 2.888-88.607 33.148-93.318 71.302zm219.104-174.356c-18.815 53.994-55.445 70.953-108.734 50.613 18.704-54.114 55.474-70.961 108.734-50.613zm-236.249-.015c53.121-20.37 89.852-3.602 108.734 50.632-53.363 20.341-89.928 3.323-108.734-50.632zm203.664 174.371h-171.072c5.12-31.656 41.529-56.276 85.536-56.276s80.416 24.62 85.536 56.276z"/></g></g></svg>