<svg enable-background="new 0 0 512 512" height="512" viewBox="0 0 512 512" width="512" xmlns="http://www.w3.org/2000/svg"><g id="_x31_8_Blockchain"><g><path d="m497.704 200.739-71.075-44.613c-2.485-1.564-5.659-1.564-8.144 0l-43.326 27.196-40.407-26.867v-93.452c0-2.801-1.652-5.275-3.593-6.494l-71.074-44.609c-2.485-1.564-5.659-1.564-8.144 0l-71.075 44.61c-1.959 1.229-3.593 3.697-3.593 6.494v93.451l-40.407 26.867-43.326-27.196c-2.485-1.564-5.659-1.564-8.144 0l-71.075 44.613c-1.933 1.213-3.593 3.666-3.593 6.494v97.558c0 2.639 1.355 5.09 3.593 6.494l71.075 44.61c2.616 1.648 5.945 1.384 8.144 0l36.584-22.962 47.149 23.287v92.797c0 2.639 1.355 5.09 3.593 6.494l71.075 44.613c2.634 1.66 5.921 1.4 8.144 0l71.075-44.613c2.238-1.404 3.593-3.855 3.593-6.494v-92.797l47.151-23.288 36.574 22.963c2.618 1.655 5.937 1.387 8.152 0l71.052-44.613c2.231-1.4 3.586-3.851 3.586-6.49v-4.139c0-4.233-3.428-7.665-7.665-7.665-4.199 0-7.613 3.38-7.665 7.568l-55.714 34.983v-79.453l55.714-34.972v5.418c0 4.233 3.428 7.665 7.665 7.665s7.665-3.432 7.665-7.665v-19.063c.086-2.947-1.546-5.465-3.564-6.73zm-138.548 99.815v-79.455l55.737 34.986v79.462zm63.402-128.884 56.629 35.545-56.636 35.563-56.635-35.554zm-229.954-15.349v-79.455l55.744 34.989v79.458zm71.074-44.466 55.744-34.989v79.455l-55.744 34.992zm-7.665-84.412 56.658 35.56-56.658 35.563-56.658-35.563zm-166.544 144.227 56.658 35.563-56.658 35.563-56.658-35.563zm7.665 163.87v-79.455l55.744-34.989v79.455zm-71.074-114.444 55.744 34.989v79.455l-55.744-34.989zm229.953 165.927-56.658-35.563 56.658-35.563 56.658 35.563zm-63.409-21.701 55.744 34.989v79.458l-55.744-34.992zm126.819 79.455-55.744 34.992v-79.458l55.744-34.989zm8.114-102.086-67.451-42.339c-2.485-1.564-5.659-1.564-8.144 0l-67.451 42.339-39.125-19.324 19.25-12.082c2.238-1.404 3.593-3.855 3.593-6.494v-97.558c0-2.794-1.649-5.273-3.593-6.494l-13.508-8.479 33.95-22.575 66.884 41.983c2.634 1.66 5.921 1.4 8.144 0l66.884-41.983 33.95 22.575-13.508 8.479c-1.971 1.234-3.593 3.704-3.593 6.494 0 1.292.007 96.303.008 97.558 0 2.639 1.355 5.09 3.593 6.49l19.247 12.084z"/><path d="m493.602 253.897c-4.237 0-7.665 3.432-7.665 7.665v3.986c0 4.233 3.428 7.665 7.665 7.665s7.665-3.432 7.665-7.665v-3.986c0-4.233-3.428-7.665-7.665-7.665z"/></g></g></svg>