<svg enable-background="new 0 0 512 512" height="512" viewBox="0 0 512 512" width="512" xmlns="http://www.w3.org/2000/svg"><g id="_x31_9_Offer"><g><path d="m294.801 325.294c22.797-11.972 27.481-42.68 9.215-60.954l-94.205-94.205c-18.515-18.515-49.077-13.364-61.029 9.2l-74.063 140.278-55.017 55.017c-11.983 11.975-11.989 31.378 0 43.36l36.424 36.424c11.949 11.956 31.342 12.006 43.356 0l14.372-14.372 51.537 51.537c6.46 6.464 14.956 9.697 23.444 9.697 8.489 0 16.985-3.234 23.444-9.697 12.927-12.927 12.927-33.965 0-46.893l-49.61-49.607 51.976-27.486c3.743-1.976 5.172-6.617 3.189-10.356-1.969-3.743-6.602-5.18-10.36-3.193l-56.148 29.691c-83.537-83.592-54.681-54.717-60.932-60.972l71.943-136.265c7.285-13.752 25.688-16.478 36.634-5.524l94.205 94.205c10.887 10.887 8.203 29.344-5.509 36.548l-11.655 6.134c-3.743 1.972-5.187 6.606-3.211 10.352 1.969 3.746 6.617 5.176 10.352 3.211zm-206.158 118.282c-5.794 5.786-15.884 5.786-21.678 0l-36.424-36.424c-5.991-5.991-5.995-15.687 0-21.682l50.422-50.422c5.94 5.942-21.518-21.527 58.092 58.116-.983.983-51.364 51.364-50.412 50.412zm112.799 37.165c-6.947 6.947-18.265 6.947-25.211 0l-51.537-51.537 25.211-25.211 51.537 51.534c6.954 6.949 6.954 18.264 0 25.214z"/><path d="m243.518 334.991-3.683 1.991c-3.72 2.014-5.113 6.666-3.099 10.39 2.01 3.722 6.663 5.106 10.39 3.099l3.683-1.991c3.72-2.014 5.113-6.666 3.099-10.39-2.007-3.716-6.655-5.116-10.39-3.099z"/><path d="m497.455 71.072-102.753-59.322c-2.365-1.37-5.3-1.37-7.665 0l-102.753 59.322c-2.373 1.37-3.833 3.9-3.833 6.64v118.645c0 2.74 1.46 5.27 3.833 6.64l102.753 59.326c1.183.685 2.508 1.026 3.833 1.026s2.65-.341 3.833-1.026l102.753-59.326c2.373-1.37 3.833-3.9 3.833-6.64v-118.645c-.002-2.74-1.461-5.27-3.834-6.64zm-11.498 120.861-95.088 54.898-95.088-54.898v-109.797l95.088-54.895 95.088 54.895z"/><path d="m356.174 107.953c-4.237 0-7.665 3.432-7.665 7.665v17.131l-13.96-21.33c-4.152-6.329-14.08-3.42-14.08 4.199v42.836c0 4.233 3.428 7.665 7.665 7.665s7.665-3.432 7.665-7.665v-17.13l13.96 21.33c4.155 6.33 14.08 3.436 14.08-4.199v-42.836c0-4.234-3.428-7.666-7.665-7.666z"/><path d="m423.154 123.284h7.56v35.17c0 4.233 3.428 7.665 7.665 7.665s7.665-3.432 7.665-7.665v-35.17h7.56c4.237 0 7.665-3.432 7.665-7.665s-3.428-7.665-7.665-7.665h-30.451c-4.237 0-7.665 3.432-7.665 7.665.001 4.232 3.429 7.665 7.666 7.665z"/><path d="m373.495 115.618v42.836c0 4.233 3.428 7.665 7.665 7.665s7.665-3.432 7.665-7.665v-13.755h13.781c4.237 0 7.665-3.432 7.665-7.665s-3.428-7.665-7.665-7.665h-13.781v-6.086h13.781c4.237 0 7.665-3.432 7.665-7.665s-3.428-7.665-7.665-7.665h-21.446c-4.236 0-7.665 3.432-7.665 7.665z"/></g></g></svg>