<svg enable-background="new 0 0 512 512" height="512" viewBox="0 0 512 512" width="512" xmlns="http://www.w3.org/2000/svg"><g id="_x32_0_Token_In_Bubble"><g><path d="m240.286 329.152c-.883-.105-1.819-.243-2.702-.505-4.065-1.179-8.324 1.119-9.529 5.176-1.198 4.057 1.115 8.324 5.172 9.525 1.722.509 3.541.827 5.262 1.029 4.144.505 8.014-2.476 8.511-6.714.494-4.207-2.515-8.017-6.714-8.511z"/><path d="m286.508 56.086c-33.694-49.812-114.489-25.954-118.322 30.608-63.084-10.957-101.359 72.721-52.488 113.633-14.103 12.231-22.254 29.833-22.254 48.903 0 50.314 53.11 79.514 94.983 57.881 1.602 3.559 3.488 6.909 5.644 10.027 2.41 3.473 7.179 4.342 10.667 1.939 3.481-2.414 4.349-7.186 1.939-10.667-3.009-4.342-5.33-9.331-6.902-14.836-.689-2.407-2.508-4.323-4.873-5.139-2.373-.816-4.985-.427-7.006 1.044-32.219 23.404-79.121 1.203-79.121-40.249 0-17.46 8.968-33.318 23.983-42.428 2.298-1.392 3.698-3.881 3.69-6.565-.007-2.684-1.415-5.169-3.713-6.554-49.916-30.068-14.601-108.103 40.878-89.859 2.463.808 5.172.318 7.186-1.306 2.021-1.621 3.084-4.154 2.83-6.733-5.059-50.994 71.892-74.147 94.983-22.411 1.168 2.62 3.705 4.368 6.572 4.529 2.785.12 5.592-1.299 7.036-3.776 27.793-47.388 99.56-19.609 91.892 32.098-.329 2.204.554 4.443 2.006 6.131 1.46 1.688 3.803 2.657 6.033 2.657 35.727 0 58.484 35.986 46.882 66.407-.816 2.145-.629 4.544.509 6.539 1.138 1.991 3.114 3.368 5.375 3.75 59.684 10.092 52.296 98.685-8.533 98.685-12.209 0-24.006-4.536-33.221-12.77-2.073-1.86-4.985-2.437-7.62-1.527-2.627.913-4.559 3.181-5.038 5.921-7.295 41.766-60.869 55.751-87.745 22.561-1.579-1.95-4.02-3.002-6.52-2.818-2.508.183-4.761 1.583-6.041 3.746-4.798 8.125-11.303 14.372-19.327 18.564-3.75 1.957-5.202 6.587-3.249 10.341 1.961 3.751 6.599 5.205 10.345 3.245 7.56-3.945 14.252-9.447 19.724-16.154 33.967 31.074 89.118 17.295 104.827-25.338 10.173 6.22 21.858 9.559 33.864 9.559 76.148 0 88.542-107.3 19.507-127.223 8.012-35.556-16.439-73.638-55.939-78.335.868-58.291-72.887-89.333-113.443-44.08z"/><path d="m46 483.035c19.432 0 35.242-15.809 35.242-35.238s-15.809-35.238-35.242-35.238c-19.425 0-35.234 15.809-35.234 35.238 0 19.428 15.81 35.238 35.234 35.238zm0-55.146c10.981 0 19.911 8.93 19.911 19.908 0 10.977-8.93 19.908-19.911 19.908-10.974 0-19.904-8.93-19.904-19.908s8.931-19.908 19.904-19.908z"/><path d="m101.049 404.434c19.485 0 35.339-15.85 35.339-35.331 0-19.376-15.854-35.141-35.339-35.141-19.372 0-35.137 15.764-35.137 35.141 0 19.48 15.764 35.331 35.137 35.331zm0-55.142c11.034 0 20.009 8.885 20.009 19.81 0 11.03-8.975 20.001-20.009 20.001-10.921 0-19.807-8.971-19.807-20.001 0-10.925 8.885-19.81 19.807-19.81z"/><path d="m253.55 211.394v-48.91c0-4.233-3.428-7.665-7.665-7.665s-7.665 3.432-7.665 7.665v23.205l-17.935-27.404c-4.153-6.321-14.08-3.42-14.08 4.199v48.91c0 4.233 3.428 7.665 7.665 7.665s7.665-3.432 7.665-7.665v-23.204l17.935 27.404c4.155 6.33 14.08 3.435 14.08-4.2z"/><path d="m339.753 219.06c4.237 0 7.665-3.432 7.665-7.665v-41.245h9.716c4.237 0 7.665-3.432 7.665-7.665s-3.428-7.665-7.665-7.665h-34.763c-4.237 0-7.665 3.432-7.665 7.665s3.428 7.665 7.665 7.665h9.716v41.245c.001 4.233 3.429 7.665 7.666 7.665z"/><path d="m298.904 170.15c4.237 0 7.665-3.432 7.665-7.665s-3.428-7.665-7.665-7.665h-24.485c-4.237 0-7.665 3.432-7.665 7.665v48.91c0 4.233 3.428 7.665 7.665 7.665s7.665-3.432 7.665-7.665v-16.79h16.82c4.237 0 7.665-3.432 7.665-7.665s-3.428-7.665-7.665-7.665h-16.82v-9.125z"/></g></g></svg>