<svg enable-background="new 0 0 512 512" height="512" viewBox="0 0 512 512" width="512" xmlns="http://www.w3.org/2000/svg"><g id="_x32_1_Crypto_Griffer"><g><path d="m422.065 298.647c-4.233 0-7.665 3.432-7.665 7.665v4.061c0 4.233 3.432 7.665 7.665 7.665s7.665-3.432 7.665-7.665v-4.061c0-4.233-3.432-7.665-7.665-7.665z"/><path d="m231.433 121.918-124.558 71.898c-15.177 8.766-24.605 25.084-24.605 42.589v143.8c0 17.505 9.428 33.823 24.605 42.589l124.539 71.887c7.587 4.405 16.086 6.61 24.59 6.61 8.496 0 16.992-2.201 24.564-6.598l124.577-71.909c15.166-8.81 24.586-25.125 24.586-42.577v-34.8c0-4.233-3.432-7.665-7.665-7.665s-7.665 3.432-7.665 7.665v34.8c0 12.01-6.497 23.242-16.94 29.309l-124.577 71.909c-10.42 6.045-23.358 6.048-33.786-.011l-124.558-71.9c-10.45-6.033-16.94-17.265-16.94-29.309v-143.8c0-12.044 6.49-23.276 16.94-29.309l124.577-71.909c10.405-6.052 23.351-6.056 33.786.011l124.539 71.887c10.461 6.078 16.958 17.31 16.958 29.321v34.879c0 4.233 3.432 7.665 7.665 7.665s7.665-3.432 7.665-7.665v-34.879c0-17.452-9.42-33.767-24.605-42.589l-124.539-71.887c-5.297-3.077-11.052-5.011-16.932-5.939v-29.967c19.072 6.34 41.069 8.497 59.363-.021 31.05-14.454 41.615-54.887 42.05-56.601.895-3.522-.812-7.19-4.08-8.777-1.598-.771-39.351-18.77-70.401-4.312-17.308 8.058-28.232 24.193-34.598 37.201-6.366-13.008-17.29-29.143-34.598-37.201-31.027-14.451-68.799 3.541-70.401 4.312-3.267 1.587-4.974 5.255-4.08 8.777.434 1.714 11 42.147 42.05 56.601 18.294 8.517 40.291 6.361 59.364.021v29.97c-5.867.928-11.607 2.856-16.89 5.924zm65.621-91.704c18.01-8.384 40.47-2.175 51.115 1.707-3.885 10.633-13.605 31.795-31.619 40.182-18.036 8.384-40.489 2.189-51.111-1.677 3.848-10.626 13.508-31.783 31.615-40.212zm-101.626 41.889c-18.025-8.391-27.741-29.568-31.622-40.197 10.603-3.896 33.003-10.124 51.118-1.692 18.025 8.391 27.73 29.598 31.604 40.234-10.608 3.874-32.989 10.087-51.1 1.655z"/><path d="m259.821 157.867c-2.373-1.37-5.292-1.37-7.665 0l-124.532 71.898c-2.373 1.37-3.833 3.9-3.833 6.64v143.792c0 2.74 1.46 5.27 3.833 6.64l124.532 71.898c1.186.685 2.508 1.026 3.833 1.026s2.646-.341 3.833-1.026l124.532-71.898c2.373-1.37 3.833-3.9 3.833-6.64v-143.792c0-2.74-1.46-5.27-3.833-6.64zm113.035 217.906-116.867 67.47-116.867-67.47v-134.944l116.867-67.47 116.867 67.47z"/><path d="m211.697 273.293c-4.233 0-7.665 3.432-7.665 7.665v28.976l-21.715-33.176c-1.86-2.833-5.371-4.106-8.605-3.148-3.249.969-5.476 3.956-5.476 7.347v54.681c0 4.233 3.432 7.665 7.665 7.665s7.665-3.432 7.665-7.665v-28.976l21.715 33.176c4.172 6.355 14.08 3.389 14.08-4.199v-54.681c.001-4.233-3.431-7.665-7.664-7.665z"/><path d="m297.204 288.624h11.771v47.016c0 4.233 3.432 7.665 7.665 7.665s7.665-3.432 7.665-7.665v-47.016h11.771c4.233 0 7.665-3.432 7.665-7.665s-3.432-7.665-7.665-7.665h-38.872c-4.233 0-7.665 3.432-7.665 7.665s3.432 7.665 7.665 7.665z"/><path d="m235.935 280.958v54.681c0 4.233 3.432 7.665 7.665 7.665s7.665-3.432 7.665-7.665v-19.676h19.709c4.233 0 7.665-3.432 7.665-7.665s-3.432-7.665-7.665-7.665h-19.709v-12.01h19.709c4.233 0 7.665-3.432 7.665-7.665s-3.432-7.665-7.665-7.665h-27.374c-4.233 0-7.665 3.432-7.665 7.665z"/></g></g></svg>