<svg enable-background="new 0 0 512 512" height="512" viewBox="0 0 512 512" width="512" xmlns="http://www.w3.org/2000/svg"><g id="_x32_2_Expensive_Token"><g><path d="m350.497 308.385c-4.233 0-7.665 3.432-7.665 7.665v4.061c0 4.233 3.432 7.665 7.665 7.665s7.665-3.432 7.665-7.665v-4.061c0-4.233-3.432-7.665-7.665-7.665z"/><path d="m35.31 422.797 124.54 71.887c7.575 4.401 16.079 6.598 24.594 6.598 8.507 0 17.026-2.197 24.635-6.591l124.48-71.894c15.177-8.765 24.605-25.084 24.605-42.589v-25.065c0-4.233-3.432-7.665-7.665-7.665s-7.665 3.432-7.665 7.665v25.065c0 12.044-6.49 23.276-16.94 29.313l-124.48 71.894c-10.487 6.056-23.459 6.056-33.879 0l-124.542-71.886c-10.465-6.074-16.962-17.31-16.962-29.321v-143.8c0-12.01 6.497-23.246 16.943-29.309l124.577-71.909c10.405-6.045 23.381-6.037 33.861.007l124.48 71.902c10.45 6.033 16.94 17.265 16.94 29.309v44.613c0 4.233 3.432 7.665 7.665 7.665s7.665-3.432 7.665-7.665v-44.613c0-17.505-9.428-33.823-24.605-42.585l-124.48-71.902c-15.225-8.788-34.089-8.773-49.209 0l-124.577 71.91c-15.166 8.81-24.59 25.125-24.59 42.577v143.8c0 17.453 9.424 33.767 24.609 42.589z"/><path d="m188.283 157.871c-2.373-1.37-5.292-1.37-7.665 0l-124.532 71.898c-2.373 1.37-3.833 3.9-3.833 6.64v143.792c0 2.74 1.46 5.27 3.833 6.64l124.532 71.898c1.186.685 2.508 1.026 3.833 1.026s2.646-.341 3.833-1.026l124.532-71.898c2.373-1.37 3.833-3.9 3.833-6.64v-143.792c0-2.74-1.46-5.27-3.833-6.64zm113.034 217.906-116.867 67.47-116.867-67.47v-134.944l116.867-67.47 116.867 67.47z"/><path d="m140.159 273.297c-4.233 0-7.665 3.432-7.665 7.665v28.976l-21.715-33.176c-1.86-2.833-5.367-4.106-8.605-3.148-3.249.969-5.476 3.956-5.476 7.347v54.681c0 4.233 3.432 7.665 7.665 7.665s7.665-3.432 7.665-7.665v-28.976l21.715 33.176c1.831 2.789 5.296 4.125 8.605 3.148 3.249-.969 5.476-3.956 5.476-7.347v-54.681c0-4.233-3.432-7.665-7.665-7.665z"/><path d="m225.665 288.627h11.771v47.016c0 4.233 3.432 7.665 7.665 7.665s7.665-3.432 7.665-7.665v-47.016h11.767c4.233 0 7.665-3.432 7.665-7.665s-3.432-7.665-7.665-7.665h-38.868c-4.233 0-7.665 3.432-7.665 7.665s3.432 7.665 7.665 7.665z"/><path d="m164.397 280.962v54.681c0 4.233 3.432 7.665 7.665 7.665s7.665-3.432 7.665-7.665v-19.676h19.709c4.233 0 7.665-3.432 7.665-7.665s-3.432-7.665-7.665-7.665h-19.709v-12.01h19.709c4.233 0 7.665-3.432 7.665-7.665s-3.432-7.665-7.665-7.665h-27.374c-4.233 0-7.665 3.432-7.665 7.665z"/><path d="m470.638 10.718h-183.11c-16.906 0-30.66 13.755-30.66 30.66v59.517c0 16.906 13.755 30.66 30.66 30.66h183.11c16.906 0 30.66-13.755 30.66-30.66v-59.517c.001-16.905-13.754-30.66-30.66-30.66zm15.331 90.177c0 8.455-6.875 15.33-15.33 15.33h-183.11c-8.455 0-15.33-6.875-15.33-15.33v-59.517c0-8.455 6.875-15.33 15.33-15.33h183.11c8.455 0 15.33 6.875 15.33 15.33z"/><path d="m349.134 58.468c1.082 0 16.933 0 16.083 0 4.233 0 7.665-3.432 7.665-7.665s-3.432-7.665-7.665-7.665h-5.579c-.304-3.954-3.518-7.1-7.551-7.1-4.233 0-7.665 3.432-7.665 7.665v.148c-7.538 2.083-13.122 8.93-13.122 17.121 0 9.832 8.002 17.834 17.834 17.834.83 0 6.685 0 5.914 0 1.381 0 2.504 1.127 2.504 2.508s-1.123 2.504-2.504 2.504h-16.083c-4.233 0-7.665 3.432-7.665 7.665s3.432 7.665 7.665 7.665h5.574c.312 3.947 3.521 7.085 7.548 7.085 4.233 0 7.665-3.432 7.665-7.665v-.13c7.542-2.08 13.13-8.931 13.13-17.124 0-9.836-8.002-17.838-17.834-17.838-.772 0-6.685 0-5.914 0-1.381 0-2.504-1.123-2.504-2.504s1.123-2.504 2.504-2.504z"/><path d="m403.123 58.468c1.082 0 16.889 0 16.083 0 4.233 0 7.665-3.432 7.665-7.665s-3.432-7.665-7.665-7.665h-5.582c-.304-3.954-3.518-7.1-7.551-7.1-4.233 0-7.665 3.432-7.665 7.665v.148c-7.539 2.083-13.122 8.932-13.122 17.121 0 9.832 8.002 17.834 17.838 17.834.822 0 6.682 0 5.91 0 1.381 0 2.508 1.127 2.508 2.508s-1.127 2.504-2.508 2.504h-16.084c-4.233 0-7.665 3.432-7.665 7.665s3.432 7.665 7.665 7.665h5.574c.312 3.947 3.521 7.085 7.548 7.085 4.233 0 7.665-3.432 7.665-7.665v-.129c7.545-2.079 13.133-8.931 13.133-17.125 0-9.836-8.002-17.838-17.838-17.838-.772 0-6.682 0-5.91 0-1.381 0-2.508-1.123-2.508-2.504s1.128-2.504 2.509-2.504z"/></g></g></svg>