<svg enable-background="new 0 0 512 512" height="512" viewBox="0 0 512 512" width="512" xmlns="http://www.w3.org/2000/svg"><g id="_x32_3_Nft_Transfer"><g><path d="m434.482 292.512c-4.233 0-7.665 3.432-7.665 7.665v4.061c0 4.233 3.432 7.665 7.665 7.665s7.665-3.432 7.665-7.665v-4.061c0-4.233-3.432-7.665-7.665-7.665z"/><path d="m442.147 217.164c0-18.635-10.049-35.983-26.214-45.272l-133.829-77.262c-16.124-9.312-36.155-9.316-52.279-.004l-133.833 77.269c-16.124 9.312-26.139 26.66-26.139 45.268v154.527c0 18.658 10.016 36.035 26.139 45.351l133.829 77.261c8.066 4.66 17.101 6.988 26.143 6.988 9.035 0 18.077-2.328 26.136-6.984l133.818-77.258c16.18-9.297 26.229-26.678 26.229-45.358v-32.423c0-4.233-3.432-7.665-7.665-7.665s-7.665 3.432-7.665 7.665v32.423c0 13.208-7.104 25.496-18.549 32.072l-133.837 77.268c-11.4 6.576-25.555 6.58-36.941-.004l-133.833-77.261c-11.393-6.583-18.474-18.875-18.474-32.075v-154.526c0-13.152 7.081-25.413 18.474-31.993l133.836-77.269c11.393-6.583 25.548-6.587 36.941.004l133.848 77.272c11.43 6.568 18.534 18.826 18.534 31.985v47.982c0 4.233 3.432 7.665 7.665 7.665s7.665-3.432 7.665-7.665v-47.981z"/><path d="m259.823 133.278c-2.373-1.37-5.292-1.37-7.665 0l-133.833 77.269c-2.373 1.37-3.833 3.9-3.833 6.64v154.533c0 2.74 1.46 5.27 3.833 6.64l133.833 77.269c1.186.685 2.508 1.026 3.833 1.026s2.646-.341 3.833-1.026l133.833-77.269c2.373-1.37 3.833-3.9 3.833-6.64v-154.534c0-2.74-1.46-5.27-3.833-6.64zm122.335 234.018-126.168 72.841-126.168-72.841v-145.686l126.168-72.841 126.168 72.841z"/><path d="m208.391 257.405c-4.233 0-7.665 3.432-7.665 7.665v33.06l-24.388-37.259c-4.162-6.339-14.08-3.405-14.08 4.199v58.765c0 4.233 3.432 7.665 7.665 7.665s7.665-3.432 7.665-7.665v-33.06l24.388 37.259c4.151 6.323 14.08 3.419 14.08-4.199v-58.765c0-4.233-3.432-7.665-7.665-7.665z"/><path d="m300.282 272.736h13.223v51.1c0 4.233 3.432 7.665 7.665 7.665s7.665-3.432 7.665-7.665v-51.1h13.223c4.233 0 7.665-3.432 7.665-7.665s-3.432-7.665-7.665-7.665h-41.776c-4.233 0-7.665 3.432-7.665 7.665s3.432 7.665 7.665 7.665z"/><path d="m235.013 265.071v58.765c0 4.233 3.432 7.665 7.665 7.665s7.665-3.432 7.665-7.665v-21.719h21.753c4.233 0 7.665-3.432 7.665-7.665s-3.432-7.665-7.665-7.665h-21.753v-14.05h21.753c4.233 0 7.665-3.432 7.665-7.665s-3.432-7.665-7.665-7.665h-29.418c-4.233-.002-7.665 3.43-7.665 7.664z"/><path d="m367.296 12.956c-2.994-2.994-7.845-2.994-10.839 0l-19.818 19.818c-4.82 4.82-1.394 13.085 5.419 13.085h92.389c4.233 0 7.665-3.432 7.665-7.665s-3.432-7.665-7.665-7.665h-73.885l6.733-6.733c2.995-2.995 2.995-7.846.001-10.84z"/><path d="m342.059 82.665h73.885l-6.733 6.733c-2.994 2.994-2.994 7.845 0 10.839s7.845 2.994 10.839 0l19.818-19.818c4.82-4.82 1.394-13.085-5.419-13.085h-92.389c-4.233 0-7.665 3.432-7.665 7.665s3.431 7.666 7.664 7.666z"/></g></g></svg>