<svg enable-background="new 0 0 512 512" height="512" viewBox="0 0 512 512" width="512" xmlns="http://www.w3.org/2000/svg"><g id="_x32_4_Security_Token"><g><path d="m26.766 239.844c4.233 0 7.665-3.432 7.665-7.665v-4.065c0-4.233-3.432-7.665-7.665-7.665s-7.665 3.432-7.665 7.665v4.065c-.001 4.233 3.432 7.665 7.665 7.665z"/><path d="m22.933 342.758 183.428 105.931c1.186.685 2.508 1.026 3.833 1.026 1.321 0 2.646-.341 3.833-1.026l91.248-52.657 1.355 8.848c.838 5.476 3.114 10.652 6.583 14.971l55.916 69.626c12.639 15.736 36.566 15.705 49.18 0l55.913-69.619c3.477-4.33 5.753-9.514 6.587-14.993l11.726-76.947c0-.004 0-.004 0-.004 1.946-12.789-3.99-25.312-15.128-31.899l-67.639-39.995c-2.657-1.57-5.494-2.685-8.406-3.413v-128.279c0-2.74-1.46-5.27-3.833-6.64l-183.503-105.93c-2.373-1.37-5.292-1.362-7.665 0l-183.428 105.934c-2.373 1.366-3.833 3.896-3.833 6.636v68.758c0 4.233 3.432 7.665 7.665 7.665s7.665-3.432 7.665-7.665v-64.334l175.763-101.503 175.837 101.503v123.861c-2.895.727-5.716 1.84-8.361 3.403l-67.695 39.995c-11.153 6.587-17.093 19.122-15.128 31.929l7.936 51.826-92.59 53.431-175.761-101.503v-64.409c0-4.233-3.432-7.665-7.665-7.665s-7.665 3.432-7.665 7.665v68.833c-.001 2.74 1.459 5.27 3.832 6.64zm294.841-33.55 67.695-39.995c5.115-3.016 11.424-2.993 16.494.004l67.639 39.995c5.726 3.383 8.777 9.821 7.774 16.397v-.004l-11.726 76.951c-.427 2.815-1.598 5.479-3.383 7.706l-55.913 69.619c-6.183 7.695-19.088 7.695-25.271 0l-55.916-69.63c-1.785-2.219-2.953-4.881-3.387-7.691l-11.782-76.939c-1.008-6.585 2.043-13.026 7.776-16.413z"/><path d="m210.212 328.386c2.725 0 5.244-1.445 6.617-3.799l52.859-90.499c1.396-2.388 1.396-5.345 0-7.732l-52.859-90.499c-1.374-2.354-3.892-3.799-6.617-3.799s-5.244 1.445-6.617 3.799l-52.862 90.499c-1.396 2.388-1.396 5.345 0 7.732l52.862 90.499c1.373 2.354 3.892 3.799 6.617 3.799zm0-173.465 43.981 75.3-43.981 75.3-43.985-75.3z"/><path d="m386.061 384.884v15.781c0 4.233 3.432 7.665 7.665 7.665s7.665-3.432 7.665-7.665v-15.788c10.298-3.287 17.827-12.857 17.827-24.259 0-14.054-11.434-25.488-25.492-25.488-14.099 0-25.57 11.434-25.57 25.488-.001 11.412 7.564 20.987 17.905 24.266zm7.665-34.424c5.509 0 10.162 4.652 10.162 10.158 0 5.648-4.559 10.24-10.162 10.24-5.648 0-10.24-4.592-10.24-10.24 0-5.603 4.592-10.158 10.24-10.158z"/></g></g></svg>