<svg enable-background="new 0 0 512 512" height="512" viewBox="0 0 512 512" width="512" xmlns="http://www.w3.org/2000/svg"><g id="_x32_5_Nft_Game_Asset"><g><path d="m473.037 121.605.228-4.042c.24-4.226-2.99-7.849-7.216-8.092-4.166-.213-7.845 2.99-8.092 7.216l-.228 4.087c-.228 4.229 3.013 7.841 7.238 8.069.142.007.281.011.423.011 4.043.001 7.427-3.166 7.647-7.249z"/><path d="m466.851 158.029c.999-4.113-1.523-8.256-5.637-9.26-4.08-1.007-8.256 1.516-9.26 5.637-14.148 58.102-46.833 119.854-79.548 119.854-27.618 0-53.559-43.27-68.634-83.789-16.448-43.8-78.617-44.097-95.451.011-19.316 51.676-45.583 83.777-68.552 83.777-44.344 0-85.851-111.631-85.851-162.345 0-75.916 92.131-114.288 145.888-61.269 10.382 10.098 23.306 15.66 36.391 15.66h39.628c13.081 0 26.005-5.562 36.402-15.671 45.109-44.109 121.269-26.36 141.442 33.894 1.34 4.008 5.678 6.179 9.701 4.836 4.016-1.344 6.179-5.689 4.836-9.701-23.654-70.672-113.262-92.221-166.683-40.005-7.504 7.298-16.633 11.318-25.698 11.318h-39.628c-9.069 0-18.197-4.02-25.664-11.281-63.378-62.526-171.945-17.129-171.945 72.22 0 52.993 42.727 177.675 101.181 177.675 43.206 0 72.377-65.554 82.89-93.692 11.802-30.896 55.282-30.591 66.755-.06 10.487 28.19 39.568 93.752 82.991 93.752 49.372 0 83.367-86.056 94.446-131.561z"/><path d="m147.427 79.432c0-4.233-3.432-7.665-7.665-7.665s-7.665 3.432-7.665 7.665v5.831c0 4.233 3.432 7.665 7.665 7.665s7.665-3.432 7.665-7.665z"/><path d="m139.762 130.73c-4.233 0-7.665 3.432-7.665 7.665v5.831c0 4.233 3.432 7.665 7.665 7.665s7.665-3.432 7.665-7.665v-5.831c0-4.233-3.432-7.665-7.665-7.665z"/><path d="m166.328 104.164c-4.233 0-7.665 3.432-7.665 7.665s3.432 7.665 7.665 7.665h5.831c4.233 0 7.665-3.432 7.665-7.665s-3.432-7.665-7.665-7.665z"/><path d="m107.361 104.164c-4.233 0-7.665 3.432-7.665 7.665s3.432 7.665 7.665 7.665h5.835c4.233 0 7.665-3.432 7.665-7.665s-3.432-7.665-7.665-7.665z"/><path d="m372.347 166.327c4.233 0 7.665-3.432 7.665-7.665v-31.843h31.843c4.233 0 7.665-3.432 7.665-7.665s-3.432-7.665-7.665-7.665h-31.843v-32.057c0-4.233-3.432-7.665-7.665-7.665s-7.665 3.432-7.665 7.665v32.057h-31.847c-4.233 0-7.665 3.432-7.665 7.665s3.432 7.665 7.665 7.665h31.847v31.843c0 4.233 3.432 7.665 7.665 7.665z"/><path d="m14.549 463.991 62.792 36.256c2.34 1.351 5.269 1.384 7.665 0l62.796-36.256c2.373-1.37 3.833-3.9 3.833-6.64v-72.504c0-2.74-1.46-5.27-3.833-6.64l-62.796-36.256c-2.373-1.37-5.292-1.37-7.665 0l-62.792 36.256c-2.373 1.37-3.833 3.9-3.833 6.64v72.504c0 2.74 1.46 5.27 3.833 6.64zm11.497-74.72 55.127-31.828 55.13 31.828v63.656l-55.13 31.828-55.127-31.828z"/><path d="m87.536 456.352 20.825-30.975c1.74-2.586 1.74-5.97 0-8.556l-20.829-30.971c-2.844-4.237-9.87-4.237-12.722 0l-20.825 30.971c-1.737 2.586-1.737 5.97 0 8.556l20.825 30.975c1.426 2.118 3.81 3.387 6.363 3.387s4.937-1.269 6.363-3.387zm-17.95-35.253 11.588-17.235 11.591 17.235-11.591 17.239z"/><path d="m252.167 500.246c2.34 1.351 5.269 1.384 7.665 0l62.792-36.256c2.373-1.37 3.833-3.9 3.833-6.64v-72.504c0-2.74-1.46-5.27-3.833-6.64l-62.792-36.256c-2.373-1.37-5.292-1.37-7.665 0l-62.792 36.256c-2.373 1.37-3.833 3.9-3.833 6.64v72.504c0 2.74 1.46 5.27 3.833 6.64zm-51.294-110.975 55.127-31.829 55.127 31.828v63.656l-55.127 31.829-55.127-31.828z"/><path d="m497.451 378.207-62.792-36.256c-2.373-1.37-5.292-1.37-7.665 0l-62.796 36.256c-2.373 1.37-3.833 3.9-3.833 6.64v72.504c0 2.74 1.46 5.27 3.833 6.64l62.796 36.256c1.186.685 2.508 1.026 3.833 1.026s2.646-.341 3.833-1.026l62.792-36.256c2.373-1.37 3.833-3.9 3.833-6.64v-72.504c-.001-2.74-1.461-5.27-3.834-6.64zm-11.497 74.72-55.127 31.828-55.13-31.828v-63.656l55.13-31.828 55.127 31.828z"/><path d="m263.665 441.478v-40.758c0-4.233-3.432-7.665-7.665-7.665s-7.665 3.432-7.665 7.665v40.758c0 4.233 3.432 7.665 7.665 7.665s7.665-3.432 7.665-7.665z"/><path d="m396.248 401.876c-1.336 2.489-1.198 5.506.359 7.86l27.827 42.065c1.418 2.145 3.821 3.436 6.393 3.436s4.974-1.291 6.393-3.436l27.823-42.065c1.557-2.354 1.695-5.375.359-7.86s-3.93-4.035-6.752-4.035h-55.65c-2.822 0-5.416 1.55-6.752 4.035zm48.143 11.296-13.564 20.506-13.567-20.506z"/></g></g></svg>