<svg enable-background="new 0 0 512 512" height="512" viewBox="0 0 512 512" width="512" xmlns="http://www.w3.org/2000/svg"><g id="_x32_6_Tranding_Cards"><g><path d="m431.366 286.675c-4.237 0-7.665 3.432-7.665 7.665v4.065c0 4.233 3.428 7.665 7.665 7.665s7.665-3.432 7.665-7.665v-4.065c0-4.232-3.428-7.665-7.665-7.665z"/><path d="m348.936 10.701h-237.701c-21.102 0-38.266 17.164-38.266 38.266v362.166c0 21.102 17.164 38.269 38.266 38.269h13.609v13.571c0 21.131 17.157 38.326 38.243 38.326h237.701c21.087 0 38.243-17.194 38.243-38.326v-129.54c0-4.233-3.428-7.665-7.665-7.665s-7.665 3.432-7.665 7.665v129.54c0 12.68-10.278 22.995-22.913 22.995h-237.701c-12.635 0-22.913-10.315-22.913-22.995v-13.571h208.762c21.102 0 38.266-17.168 38.266-38.269v-333.253h13.586c12.635 0 22.913 10.281 22.913 22.917v158.516c0 4.233 3.428 7.665 7.665 7.665s7.665-3.432 7.665-7.665v-158.517c0-21.09-17.157-38.247-38.243-38.247h-13.586v-13.582c0-21.102-17.165-38.266-38.266-38.266zm22.935 400.432c0 12.65-10.293 22.939-22.935 22.939h-237.701c-12.643 0-22.935-10.289-22.935-22.939v-362.166c0-12.647 10.293-22.935 22.935-22.935h237.701c12.643 0 22.935 10.289 22.935 22.935z"/><path d="m297.541 226.425-60.7-113.012c-1.332-2.485-3.93-4.038-6.752-4.038s-5.419 1.549-6.752 4.038l-60.707 113.012c-1.019 1.891-1.334 4.78 0 7.253l60.707 113.008c1.332 2.489 3.93 4.038 6.752 4.038s5.419-1.553 6.752-4.038l60.7-113.008c1.311-2.432 1.018-5.365 0-7.253zm-67.452-93.187 50.485 93.99-50.485 30.179-50.492-30.18zm0 193.623-40.829-76 36.899 22.056c1.205.722 2.568 1.085 3.93 1.085s2.725-.363 3.93-1.085l36.893-22.054z"/></g></g></svg>