<svg enable-background="new 0 0 512 512" height="512" viewBox="0 0 512 512" width="512" xmlns="http://www.w3.org/2000/svg"><g id="_x32_7_Certificate"><g><path d="m50.733 380.667h134.497c7.602 11.864 18.054 21.729 30.453 28.534v77.55c0 5.999 6.594 9.646 11.67 6.535l28.654-17.553 28.729 17.561c5.122 3.137 11.662-.589 11.662-6.542v-77.564c12.389-6.803 22.833-16.664 30.431-28.52h134.519c22.022 0 39.935-17.95 39.935-40.014v-16.094c0-4.233-3.428-7.665-7.665-7.665s-7.665 3.432-7.665 7.665v16.094c0 13.609-11.041 24.683-24.605 24.683h-126.805c4.508-11.821 5.814-22.335 5.386-33.112h64.927c4.237 0 7.665-3.432 7.665-7.665 0-18.047 14.686-32.73 32.734-32.73 4.237 0 7.665-3.432 7.665-7.665v-170.168c0-4.233-3.428-7.665-7.665-7.665-18.047 0-32.734-14.649-32.734-32.652 0-4.233-3.428-7.665-7.665-7.665h-297.637c-4.237 0-7.665 3.432-7.665 7.665 0 18.003-14.679 32.652-32.726 32.652-4.237 0-7.665 3.432-7.665 7.665v170.167c0 4.233 3.428 7.665 7.665 7.665 18.047 0 32.726 14.683 32.726 32.73 0 4.233 3.428 7.665 7.665 7.665h64.912c-.425 10.7.852 21.223 5.386 33.112h-126.784c-13.616 0-24.687-11.071-24.687-24.683v-283.149c0-13.567 11.071-24.605 24.687-24.605h410.615c13.564 0 24.605 11.037 24.605 24.605v192.93c0 4.233 3.428 7.665 7.665 7.665s7.665-3.432 7.665-7.665v-192.93c0-22.019-17.913-39.935-39.935-39.935h-410.615c-22.067 0-40.017 17.916-40.017 39.935v283.149c0 22.063 17.95 40.014 40.017 40.014zm230.336 92.415-21.072-12.875c-2.455-1.505-5.547-1.501-8.002.004l-20.982 12.853v-57.326c7.906 2.466 16.308 3.797 25.016 3.797 8.717 0 17.127-1.335 25.039-3.805v57.352zm-25.039-68.877c-37.906 0-68.739-30.788-68.739-68.631 0-37.899 30.833-68.735 68.739-68.735s68.739 30.836 68.739 68.735c0 37.843-30.833 68.631-68.739 68.631zm-141.76-87.311c-3.279-20.372-19.41-36.503-39.778-39.785v-156.057c20.368-3.275 36.499-19.372 39.778-39.707h283.535c3.286 20.334 19.41 36.436 39.785 39.707v156.057c-20.375 3.279-36.507 19.414-39.785 39.785h-59.87c-8.526-37.381-41.975-65.386-81.905-65.386s-73.379 28.005-81.905 65.386z"/><path d="m493.619 277.801c-4.237 0-7.665 3.432-7.665 7.665v4.061c0 4.233 3.428 7.665 7.665 7.665s7.665-3.432 7.665-7.665v-4.061c0-4.233-3.428-7.665-7.665-7.665z"/><path d="m262.647 293.289c-2.74-4.708-10.495-4.708-13.234 0l-22.411 38.367c-1.4 2.388-1.4 5.345 0 7.732l22.411 38.363c1.37 2.354 3.892 3.799 6.617 3.799s5.247-1.445 6.617-3.799l22.411-38.363c1.4-2.388 1.4-5.345 0-7.732zm-6.617 65.4-13.534-23.168 13.534-23.171 13.534 23.171z"/><path d="m202.329 209.665v-75.757c0-4.233-3.428-7.665-7.665-7.665s-7.665 3.432-7.665 7.665v50.048l-35.504-54.247c-1.856-2.829-5.345-4.106-8.608-3.148-3.249.969-5.472 3.956-5.472 7.347v75.757c0 4.233 3.428 7.665 7.665 7.665s7.665-3.432 7.665-7.665v-50.048l35.504 54.247c1.445 2.201 3.877 3.466 6.415 3.466.726 0 1.467-.105 2.193-.318 3.249-.97 5.472-3.956 5.472-7.347z"/><path d="m313.129 141.573h19.26v68.092c0 4.233 3.428 7.665 7.665 7.665s7.665-3.432 7.665-7.665v-68.092h19.26c4.237 0 7.665-3.432 7.665-7.665s-3.428-7.665-7.665-7.665h-53.85c-4.237 0-7.665 3.432-7.665 7.665s3.428 7.665 7.665 7.665z"/><path d="m238.866 217.33c4.237 0 7.665-3.432 7.665-7.665v-30.211h30.256c4.237 0 7.665-3.432 7.665-7.665s-3.428-7.665-7.665-7.665h-30.256v-22.55h30.256c4.237 0 7.665-3.432 7.665-7.665s-3.428-7.665-7.665-7.665h-37.921c-4.237 0-7.665 3.432-7.665 7.665v75.757c0 4.232 3.428 7.664 7.665 7.664z"/></g></g></svg>