<svg enable-background="new 0 0 512 512" height="512" viewBox="0 0 512 512" width="512" xmlns="http://www.w3.org/2000/svg"><g id="_x32_8_Token"><g><path d="m468.168 246.343c-4.237 0-7.665 3.432-7.665 7.665v3.986c0 4.233 3.428 7.665 7.665 7.665s7.665-3.432 7.665-7.665v-3.986c0-4.233-3.428-7.665-7.665-7.665z"/><path d="m475.833 160.877c0-19.638-10.584-37.899-27.591-47.649l-164.71-95.114c-16.97-9.873-38.079-9.87-55.048-.011l-164.703 95.114c-17.029 9.761-27.614 28.022-27.614 47.66v190.247c0 19.638 10.584 37.899 27.591 47.649l164.71 95.114c8.489 4.937 18.018 7.403 27.539 7.403 9.514 0 19.028-2.466 27.509-7.392l164.703-95.114c17.029-9.761 27.614-28.022 27.614-47.66v-58.102c0-4.233-3.428-7.665-7.665-7.665s-7.665 3.432-7.665 7.665v58.102c0 14.159-7.628 27.322-19.926 34.37l-164.74 95.137c-12.239 7.119-27.434 7.115-39.688-.011l-164.748-95.137c-12.276-7.036-19.904-20.2-19.904-34.358v-190.248c0-14.159 7.628-27.322 19.926-34.37l164.74-95.137c12.239-7.111 27.434-7.107 39.688.011l164.748 95.137c12.276 7.036 19.904 20.2 19.904 34.358v58.102c0 4.233 3.428 7.665 7.665 7.665s7.665-3.432 7.665-7.665z"/><path d="m259.833 86.524c-2.365-1.37-5.3-1.37-7.665 0l-141.026 81.419c-2.373 1.37-3.833 3.9-3.833 6.64v162.835c0 2.74 1.46 5.27 3.833 6.64l141.026 81.419c1.183.685 2.508 1.026 3.833 1.026s2.65-.341 3.833-1.026l141.026-81.419c2.373-1.37 3.833-3.9 3.833-6.64v-162.835c0-2.74-1.46-5.27-3.833-6.64zm129.528 246.471-133.361 76.991-133.361-76.992v-153.987l133.361-76.992 133.361 76.992z"/><path d="m249.128 180.111-18.646 37.764-41.619 6.037c-6.272.91-8.795 8.644-4.252 13.073l30.122 29.377-7.111 41.477c-1.074 6.251 5.506 11.02 11.123 8.081l37.255-19.593 37.255 19.593c5.645 2.953 12.197-1.839 11.123-8.084l-7.134-41.473 30.144-29.373c4.536-4.422 2.032-12.166-4.252-13.077l-41.649-6.037-18.616-37.76c-2.798-5.687-10.944-5.692-13.743-.005zm20.398 48.162c1.115 2.264 3.271 3.833 5.771 4.196l30.256 4.386-21.902 21.341c-1.804 1.763-2.627 4.304-2.201 6.789l5.187 30.129-27.067-14.234c-2.246-1.175-4.895-1.175-7.141 0l-27.075 14.241 5.165-30.14c.427-2.485-.397-5.023-2.201-6.782l-21.888-21.345 30.241-4.386c2.5-.363 4.656-1.931 5.771-4.192l13.549-27.445z"/></g></g></svg>