<svg enable-background="new 0 0 512 512" height="512" viewBox="0 0 512 512" width="512" xmlns="http://www.w3.org/2000/svg"><g id="_x32_9_Nft_Auction"><g><path d="m387.101 341.43h-123.795c-18.811 0-34.119 15.304-34.119 34.119v19.215h-8.159c-13.953 0-25.301 11.352-25.301 25.301v35.698c0 4.233 3.428 7.665 7.665 7.665h243.622c4.237 0 7.665-3.432 7.665-7.665v-35.698c0-13.949-11.348-25.301-25.301-25.301h-8.152v-19.215c.001-18.815-15.307-34.119-34.125-34.119zm-142.584 34.119c0-10.36 8.429-18.789 18.789-18.789h123.795c10.367 0 18.796 8.429 18.796 18.789v19.215h-161.38zm194.832 44.516v28.033h-228.292v-28.033c0-5.498 4.476-9.971 9.971-9.971h208.351c5.494 0 9.97 4.473 9.97 9.971z"/><path d="m10.716 163.961c0 16.906 13.751 30.66 30.66 30.66h62.751v239.632c0 16.105 13.062 29.205 29.126 29.205 15.752 0 29.201-12.755 29.201-29.205v-83.624c0-4.233-3.428-7.665-7.665-7.665s-7.665 3.432-7.665 7.665v83.624c0 7.757-6.252 13.874-13.871 13.874-7.605 0-13.796-6.224-13.796-13.874v-239.61h27.666v81.861c0 4.233 3.428 7.665 7.665 7.665s7.665-3.432 7.665-7.665v-81.884h62.706c16.91 0 30.66-13.755 30.66-30.66v-84.757c0-16.906-13.751-30.66-30.66-30.66h-183.782c-16.91 0-30.66 13.755-30.66 30.66v84.758zm15.33-84.758c0-8.455 6.879-15.33 15.33-15.33h183.784c8.451 0 15.33 6.875 15.33 15.33v84.758c0 8.455-6.879 15.33-15.33 15.33h-183.783c-8.451 0-15.33-6.875-15.33-15.33v-84.758z"/><path d="m154.789 303.871c-4.237 0-7.665 3.432-7.665 7.665v4.061c0 4.233 3.428 7.665 7.665 7.665s7.665-3.432 7.665-7.665v-4.061c0-4.232-3.428-7.665-7.665-7.665z"/><path d="m69.926 161.21c4.237 0 7.665-3.432 7.665-7.665v-63.926c0-4.233-3.428-7.665-7.665-7.665s-7.665 3.432-7.665 7.665v63.926c0 4.233 3.428 7.665 7.665 7.665z"/><path d="m196.61 161.21c4.237 0 7.665-3.432 7.665-7.665v-63.926c0-4.233-3.428-7.665-7.665-7.665s-7.665 3.432-7.665 7.665v63.926c0 4.233 3.429 7.665 7.665 7.665z"/><path d="m391.637 95.495c-60.46 0-109.655 49.191-109.655 109.651 0 60.498 49.195 109.718 109.655 109.718s109.647-49.221 109.647-109.718c0-60.461-49.187-109.651-109.647-109.651zm0 204.039c-52.009 0-94.324-42.342-94.324-94.388 0-52.009 42.315-94.321 94.324-94.321s94.317 42.312 94.317 94.321c0 52.046-42.308 94.388-94.317 94.388z"/><path d="m360.714 178.426c-4.237 0-7.665 3.432-7.665 7.665v12.467l-10.906-16.666c-4.152-6.329-14.08-3.42-14.08 4.199v38.176c0 4.233 3.428 7.665 7.665 7.665s7.665-3.432 7.665-7.665v-12.467l10.906 16.666c4.155 6.33 14.08 3.436 14.08-4.199v-38.176c0-4.233-3.428-7.665-7.665-7.665z"/><path d="m447.546 178.426h-27.135c-4.237 0-7.665 3.432-7.665 7.665s3.428 7.665 7.665 7.665h5.899v30.511c0 4.233 3.428 7.665 7.665 7.665s7.665-3.432 7.665-7.665v-30.511h5.906c4.237 0 7.665-3.432 7.665-7.665s-3.429-7.665-7.665-7.665z"/><path d="m402.094 193.756c4.237 0 7.665-3.432 7.665-7.665s-3.428-7.665-7.665-7.665h-19.11c-4.237 0-7.665 3.432-7.665 7.665v38.176c0 4.233 3.428 7.665 7.665 7.665s7.665-3.432 7.665-7.665v-11.423h11.445c4.237 0 7.665-3.432 7.665-7.665s-3.428-7.665-7.665-7.665h-11.445v-3.758z"/></g></g></svg>