<svg enable-background="new 0 0 512 512" height="512" viewBox="0 0 512 512" width="512" xmlns="http://www.w3.org/2000/svg"><g id="_x33_0_Digital_Token"><g><path d="m400.85 248.365h-43.86c-1.405-1.695-3.445-2.837-5.82-2.837-4.237 0-7.665 3.432-7.665 7.665v4.065c0 4.233 3.428 7.665 7.665 7.665 1.462 0 2.75-.518 3.912-1.228h45.766c3.278 10.433 12.923 18.07 24.421 18.07 14.237 0 25.825-11.535 25.825-25.716 0-14.237-11.587-25.817-25.825-25.817-11.495-.001-21.138 7.663-24.419 18.133zm34.914 7.684c0 5.726-4.708 10.386-10.495 10.386-5.726 0-10.382-4.66-10.382-10.386 0-5.783 4.656-10.487 10.382-10.487 5.786 0 10.495 4.704 10.495 10.487z"/><path d="m60.981 331.3c-3.26-10.463-12.921-18.13-24.447-18.13-14.237 0-25.817 11.535-25.817 25.716 0 14.237 11.58 25.821 25.817 25.821 11.479 0 21.109-7.637 24.408-18.077h72.544c2.291 0 4.469-1.026 5.921-2.8l21.012-25.564c1.711 1.819 3.665 3.432 5.876 4.728l36.595 21.101-34.716 28.498c-1.774 1.456-2.8 3.63-2.8 5.925v72.54c-10.441 3.299-18.077 12.93-18.077 24.408 0 14.237 11.58 25.817 25.817 25.817 14.177 0 25.713-11.58 25.713-25.817 0-11.521-7.664-21.182-18.122-24.446v-68.879l35.294-28.973c.35-.287.525-.706.815-1.045l26.005 14.994c1.746 1.024 3.596 1.783 5.487 2.367v31.387c-10.437 3.312-18.07 12.978-18.07 24.498 0 14.181 11.58 25.72 25.817 25.72 14.177 0 25.713-11.539 25.713-25.72 0-11.569-7.667-21.268-18.13-24.54v-31.311c1.905-.582 3.768-1.346 5.524-2.375l26.041-15.031c.29.342.466.763.817 1.052l35.227 28.973v68.9c-10.431 3.279-18.07 12.927-18.07 24.429 0 14.237 11.535 25.817 25.713 25.817 14.237 0 25.817-11.58 25.817-25.817 0-11.498-7.662-21.142-18.13-24.425v-72.523c0-2.291-1.026-4.465-2.792-5.921l-34.669-28.514 36.548-21.096c2.229-1.29 4.2-2.906 5.925-4.733l21.03 25.58c1.46 1.77 3.63 2.796 5.921 2.796h72.521c3.298 10.44 12.928 18.077 24.409 18.077 14.237 0 25.817-11.58 25.817-25.817 0-14.181-11.58-25.72-25.817-25.72-11.525 0-21.185 7.667-24.446 18.13h-68.86l-23.495-28.576c.083-.843.17-1.686.17-2.541v-7.897c0-4.233-3.428-7.665-7.665-7.665s-7.665 3.432-7.665 7.665v7.897c0 3.971-2.066 7.534-5.517 9.533l-76.539 44.176c-3.339 1.961-7.5 1.972-10.929-.026l-76.524-44.123c-3.383-1.984-5.487-5.648-5.487-9.559v-88.381c0-3.911 2.103-7.575 5.434-9.533l76.561-44.142c3.236-1.853 7.506-2.008 10.989-.011l76.487 44.146c3.458 2.006 5.524 5.569 5.524 9.54v6.363c0 4.233 3.428 7.665 7.665 7.665s7.665-3.432 7.665-7.665v-6.363c0-.857-.087-1.7-.17-2.543l23.488-28.499h68.886c3.28 10.431 12.925 18.066 24.427 18.066 14.237 0 25.817-11.535 25.817-25.716 0-14.237-11.58-25.817-25.817-25.817-11.503 0-21.147 7.665-24.427 18.137h-72.502c-2.291 0-4.461 1.022-5.914 2.792l-21.029 25.518c-1.729-1.832-3.704-3.455-5.941-4.75l-36.542-21.091 34.663-28.511c1.774-1.456 2.8-3.63 2.8-5.921v-72.513c10.467-3.282 18.13-12.924 18.13-24.421 0-14.237-11.58-25.817-25.817-25.817-14.177 0-25.713 11.58-25.713 25.817 0 11.501 7.638 21.146 18.07 24.425v68.889l-35.219 28.969c-.353.29-.531.713-.822 1.055l-26.065-15.045c-1.752-1.002-3.607-1.746-5.502-2.315v-31.34c10.462-3.259 18.13-12.92 18.13-24.444 0-14.237-11.535-25.817-25.713-25.817-14.237 0-25.817 11.58-25.817 25.817 0 11.475 7.633 21.102 18.07 24.403v31.408c-1.871.569-3.702 1.305-5.434 2.299l-26.056 15.022c-.29-.34-.466-.759-.816-1.047l-35.294-28.969v-68.869c10.458-3.262 18.122-12.921 18.122-24.442 0-14.237-11.535-25.817-25.713-25.817-14.237 0-25.817 11.58-25.817 25.817 0 11.478 7.637 21.107 18.077 24.405v72.529c0 2.294 1.025 4.469 2.8 5.925l34.718 28.495-36.649 21.13c-2.193 1.287-4.135 2.891-5.836 4.703l-21.007-25.497c-1.452-1.767-3.623-2.792-5.914-2.792h-72.527c-3.28-10.472-12.925-18.137-24.427-18.137-14.237 0-25.817 11.58-25.817 25.817 0 14.181 11.58 25.716 25.817 25.716 11.503 0 21.148-7.635 24.427-18.066h68.909l23.48 28.497c-.083.844-.17 1.688-.17 2.545v36.563h-42.035c-3.294-10.47-12.975-18.134-24.519-18.134-14.185 0-25.72 11.58-25.72 25.817 0 14.181 11.535 25.716 25.72 25.716 11.547 0 21.229-7.637 24.521-18.07h42.032v36.488c0 .857.087 1.701.17 2.545l-23.487 28.572zm-24.447 18.078c-5.786 0-10.487-4.705-10.487-10.491 0-5.726 4.701-10.386 10.487-10.386 5.726 0 10.39 4.66 10.39 10.386-.001 5.786-4.664 10.491-10.39 10.491zm136.579 136.576c-5.786 0-10.487-4.705-10.487-10.487 0-5.73 4.701-10.39 10.487-10.39 5.726 0 10.382 4.66 10.382 10.39.001 5.782-4.655 10.487-10.382 10.487zm165.774 0c-5.726 0-10.382-4.705-10.382-10.487 0-5.73 4.656-10.39 10.382-10.39 5.786 0 10.487 4.66 10.487 10.39 0 5.782-4.701 10.487-10.487 10.487zm136.579-157.453c5.786 0 10.487 4.66 10.487 10.39 0 5.783-4.701 10.487-10.487 10.487-5.726 0-10.39-4.705-10.39-10.487.001-5.731 4.664-10.39 10.39-10.39zm-219.414 107.259c-5.786 0-10.487-4.66-10.487-10.39 0-5.783 4.701-10.487 10.487-10.487 5.726 0 10.382 4.705 10.382 10.487.001 5.73-4.655 10.39-10.382 10.39zm219.414-273.137c5.786 0 10.487 4.705 10.487 10.487 0 5.726-4.701 10.386-10.487 10.386-5.726 0-10.39-4.66-10.39-10.386.001-5.783 4.664-10.487 10.39-10.487zm-136.579-136.577c5.786 0 10.487 4.705 10.487 10.487 0 5.726-4.701 10.386-10.487 10.386-5.726 0-10.382-4.66-10.382-10.386-.001-5.782 4.655-10.487 10.382-10.487zm-82.835 50.194c5.726 0 10.382 4.705 10.382 10.487 0 5.726-4.656 10.386-10.382 10.386-5.786 0-10.487-4.66-10.487-10.386 0-5.782 4.701-10.487 10.487-10.487zm-82.939-50.194c5.726 0 10.382 4.705 10.382 10.487 0 5.726-4.656 10.386-10.382 10.386-5.786 0-10.487-4.66-10.487-10.386 0-5.782 4.701-10.487 10.487-10.487zm-136.579 157.45c-5.786 0-10.487-4.66-10.487-10.386 0-5.783 4.701-10.487 10.487-10.487 5.726 0 10.39 4.705 10.39 10.487-.001 5.726-4.664 10.386-10.39 10.386zm50.092 82.939c-5.726 0-10.39-4.66-10.39-10.386 0-5.783 4.663-10.487 10.39-10.487 5.786 0 10.487 4.705 10.487 10.487 0 5.726-4.7 10.386-10.487 10.386z"/><path d="m249.637 204.773-31.566 46.949c-1.737 2.586-1.737 5.97 0 8.556l31.566 46.945c1.422 2.118 3.81 3.387 6.363 3.387s4.94-1.269 6.363-3.387l31.566-46.945c1.737-2.586 1.737-5.97 0-8.556l-31.566-46.949c-2.845-4.237-9.881-4.237-12.726 0zm6.363 84.436-22.329-33.209 22.329-33.209 22.329 33.209z"/></g></g></svg>