<svg enable-background="new 0 0 512 512" height="512" viewBox="0 0 512 512" width="512" xmlns="http://www.w3.org/2000/svg"><g id="_x33_1_Price_Incresing"><g><path d="m18.366 251.743c4.233 0 7.665-3.432 7.665-7.665v-4.061c0-4.233-3.432-7.665-7.665-7.665s-7.665 3.432-7.665 7.665v4.061c0 4.233 3.432 7.665 7.665 7.665z"/><path d="m147.704 219.305c-4.233 0-7.665 3.432-7.665 7.665v32.363l-23.931-36.563c-4.164-6.342-14.08-3.404-14.08 4.199v58.069c0 4.233 3.432 7.665 7.665 7.665s7.665-3.432 7.665-7.665v-32.363l23.931 36.563c4.155 6.33 14.08 3.436 14.08-4.199v-58.069c0-4.233-3.432-7.665-7.665-7.665z"/><path d="m251.486 285.038c0 4.233 3.432 7.665 7.665 7.665s7.665-3.432 7.665-7.665v-50.403h12.972c4.233 0 7.665-3.432 7.665-7.665s-3.432-7.665-7.665-7.665h-41.278c-4.233 0-7.665 3.432-7.665 7.665s3.432 7.665 7.665 7.665h12.976z"/><path d="m210.653 234.635c4.233 0 7.665-3.432 7.665-7.665s-3.432-7.665-7.665-7.665h-29.07c-4.233 0-7.665 3.432-7.665 7.665v58.069c0 4.233 3.432 7.665 7.665 7.665s7.665-3.432 7.665-7.665v-21.367h21.405c4.233 0 7.665-3.432 7.665-7.665s-3.432-7.665-7.665-7.665h-21.405v-13.706h21.405z"/><path d="m469.212 333.095h-90.465c.003-.234.033-.481.033-.715v-152.688c0-18.444-9.926-35.642-25.907-44.887l-132.216-76.344c-15.989-9.245-35.848-9.241-51.822-.004l-132.227 76.352c-15.981 9.245-25.907 26.442-25.907 44.883v25.293c0 4.233 3.432 7.665 7.665 7.665s7.665-3.432 7.665-7.665v-25.293c0-12.987 6.995-25.099 18.246-31.607l132.231-76.352c11.243-6.512 25.219-6.509 36.477.004l132.22 76.344c11.254 6.509 18.246 18.624 18.246 31.611v152.688c0 .23-.03.483-.035.715h-28.879c.023-.24.095-.47.095-.715v-152.763c0-2.74-1.46-5.27-3.833-6.64l-132.224-76.348c-2.373-1.37-5.292-1.37-7.665 0l-132.223 76.348c-2.373 1.37-3.833 3.9-3.833 6.64v152.763c0 2.74 1.46 5.27 3.833 6.64l132.223 76.344c1.186.685 2.508 1.026 3.833 1.026s2.65-.344 3.836-1.029l44.093-25.482v33.262l-29.695 17.125c-11.254 6.505-25.23 6.505-36.477-.007l-132.22-76.341c-11.254-6.512-18.25-18.594-18.25-31.536v-53.27c0-4.233-3.432-7.665-7.665-7.665s-7.665 3.432-7.665 7.665v53.27c0 18.396 9.926 35.563 25.911 44.812l132.216 76.337c7.994 4.63 16.955 6.943 25.918 6.943 8.956 0 17.916-2.313 25.9-6.935l24.16-13.932c4.57 12.155 16.221 20.868 29.952 20.868h194.454c17.692 0 32.086-14.395 32.086-32.086v-63.207c.002-17.696-14.393-32.087-32.085-32.087zm-274.469 66.778-124.559-71.917v-143.915l124.558-71.92 124.558 71.92v143.912l-8.913 5.143h-35.629c-17.692 0-32.086 14.391-32.086 32.083v6.994zm291.226 28.512c0 9.241-7.515 16.756-16.756 16.756h-194.454c-9.241 0-16.756-7.515-16.756-16.756v-63.207c0-9.237 7.515-16.753 16.756-16.753h194.454c9.241 0 16.756 7.515 16.756 16.753z"/><path d="m340.178 382.851h3.099c.013 0 .024.007.037.007s.024-.007.037-.007h13.908c4.233 0 7.665-3.432 7.665-7.665s-3.432-7.665-7.665-7.665h-6.307c-.074-4.169-3.452-7.534-7.638-7.534-4.233 0-7.665 3.432-7.665 7.665v.497c-7.988 2.033-13.938 9.226-13.938 17.839 0 10.184 8.283 18.467 18.467 18.467h3.099c.013 0 .024.007.037.007s.024-.007.037-.007h3.107c1.729 0 3.136 1.407 3.136 3.136s-1.407 3.136-3.136 3.136h-17.082c-4.233 0-7.665 3.432-7.665 7.665s3.432 7.665 7.665 7.665h6.301c.08 4.163 3.454 7.523 7.637 7.523 4.233 0 7.665-3.432 7.665-7.665v-.483c7.992-2.03 13.945-9.226 13.945-17.842 0-10.184-8.283-18.467-18.467-18.467h-3.107c-.013 0-.024-.007-.037-.007s-.024.007-.037.007h-3.099c-1.729 0-3.136-1.407-3.136-3.136s1.408-3.136 3.137-3.136z"/><path d="m397.513 382.851h3.096c.013 0 .024.007.037.007s.024-.007.037-.007h13.908c4.233 0 7.665-3.432 7.665-7.665s-3.432-7.665-7.665-7.665h-6.307c-.074-4.169-3.452-7.534-7.638-7.534-4.233 0-7.665 3.432-7.665 7.665v.498c-7.987 2.034-13.934 9.226-13.934 17.838 0 10.184 8.283 18.467 18.467 18.467h3.095c.013 0 .024.007.037.007s.024-.007.037-.007h3.107c1.729 0 3.136 1.407 3.136 3.136s-1.407 3.136-3.136 3.136h-17.078c-4.233 0-7.665 3.432-7.665 7.665s3.432 7.665 7.665 7.665h6.298c.08 4.163 3.454 7.523 7.637 7.523 4.233 0 7.665-3.432 7.665-7.665v-.483c7.992-2.03 13.945-9.226 13.945-17.842 0-10.184-8.283-18.467-18.467-18.467h-3.107c-.013 0-.024-.007-.037-.007s-.024.007-.037.007h-3.096c-1.729 0-3.136-1.407-3.136-3.136-.001-1.729 1.407-3.136 3.136-3.136z"/><path d="m437.489 292.704c4.233 0 7.665-3.432 7.665-7.665v-46.444l6.426 8.204c2.612 3.331 7.426 3.919 10.76 1.306 3.331-2.609 3.919-7.426 1.306-10.76l-20.166-25.75c-2.805-3.586-8.8-4.18-12.078.011l-20.084 25.75c-2.605 3.339-2.006 8.155 1.329 10.76 3.332 2.594 8.146 2.017 10.76-1.329l6.415-8.227v46.477c.002 4.235 3.434 7.667 7.667 7.667z"/></g></g></svg>