<svg enable-background="new 0 0 512 512" height="512" viewBox="0 0 512 512" width="512" xmlns="http://www.w3.org/2000/svg"><g id="_x33_2_Smart_Contract"><g><path d="m415.394 387.187c-4.233 0-7.665 3.432-7.665 7.665v4.065c0 4.233 3.432 7.665 7.665 7.665s7.665-3.432 7.665-7.665v-4.065c0-4.233-3.432-7.665-7.665-7.665z"/><path d="m421.365 118.558c-.001-.001-.001-.002-.002-.003l-.001-.001c-.004-.005-.006-.01-.01-.014-115.308-115.723-103.751-104.124-105.077-105.455-1.159-1.159-3.473-2.253-5.416-2.253l-183.214-.386c-21.173 0-38.4 17.16-38.4 38.236l-.843 413.898c-.049 10.248 3.911 19.896 11.146 27.165 7.235 7.268 16.857 11.269 27.086 11.269l257.871.539c21.079 0 38.307-17.145 38.4-38.232l.079-29.358c.011-4.233-3.41-7.673-7.646-7.684-.004 0-.011 0-.019 0-4.226 0-7.654 3.417-7.665 7.646l-.079 29.343c-.056 12.658-10.405 22.954-23.055 22.954l-257.871-.539c-6.134 0-11.902-2.399-16.236-6.752-4.338-4.357-6.711-10.139-6.681-16.303l.842-413.931c0-12.639 10.349-22.921 23.055-22.921l175.504.369-.133 66.919c-.041 21.128 17.116 38.359 38.247 38.404l67.005.135-.444 228.206c-.007 4.233 3.417 7.673 7.65 7.68h.015c4.226 0 7.658-3.421 7.665-7.65l.46-235.856c.004-1.458-.788-3.965-2.233-5.425zm-80.085-2.42c-12.68-.026-22.977-10.364-22.95-23.044l.112-56.085 78.979 79.241z"/><path d="m172.221 304.113 79.821 46.298c1.19.689 2.519 1.033 3.848 1.033 1.317 0 2.635-.341 3.818-1.018l80.005-45.976c2.377-1.366 3.844-3.892 3.848-6.632l.187-92.273c.004-2.74-1.448-5.27-3.818-6.647l-79.821-46.301c-2.369-1.37-5.296-1.37-7.665-.015l-80.005 45.98c-2.377 1.366-3.844 3.892-3.848 6.632l-.187 92.273c-.004 2.738 1.452 5.269 3.817 6.646zm11.692-94.463 72.328-41.571 72.167 41.859-.172 83.422-72.328 41.567-72.167-41.855z"/><path d="m262.432 293.046 25.058-37.263c1.74-2.586 1.74-5.97 0-8.556l-25.058-37.263c-2.844-4.237-9.87-4.237-12.722 0l-25.054 37.263c-1.737 2.586-1.737 5.97 0 8.556l25.054 37.263c1.426 2.118 3.81 3.387 6.363 3.387s4.937-1.269 6.359-3.387zm-22.176-41.541 15.817-23.527 15.821 23.527-15.821 23.527z"/><path d="m148.2 85.301h49.146c4.233 0 7.665-3.432 7.665-7.665s-3.432-7.665-7.665-7.665h-49.146c-4.233 0-7.665 3.432-7.665 7.665s3.432 7.665 7.665 7.665z"/><path d="m148.2 126.097h36.174c4.233 0 7.665-3.432 7.665-7.665s-3.432-7.665-7.665-7.665h-36.174c-4.233 0-7.665 3.432-7.665 7.665s3.432 7.665 7.665 7.665z"/><path d="m254.831 428.682c5.938-9.006 7.905-22.09 13.923-24.058 5.442-1.789 10.147 3.47 18.62 15.94 11.069 16.292 23.054 28.975 39.647 15.626 5.569-4.491 7.328-11.15 8.882-17.026 2.384-9.031 4.053-13.822 13.156-15.469 4.933-.891 10.551.996 13.942 4.69 2.859 3.11 7.714 3.316 10.831.457 3.118-2.867 3.32-7.714.457-10.831-7.025-7.639-17.714-11.236-27.954-9.398-19.129 3.455-22.816 17.407-25.256 26.637-1.04 3.945-2.025 7.673-3.679 9.009-1.269 1.022-3.088 2.163-4.409 1.995-3.574-.531-8.765-8.17-12.939-14.308-7.905-11.636-18.747-27.573-36.076-21.888-14.619 4.798-16.382 21.75-21.944 30.193-8.313 12.642-28.482 9.676-32.165-5.625-.992-4.117-5.116-6.647-9.248-5.655-4.113.992-6.647 5.131-5.655 9.248 6.753 28.063 44.022 34.53 59.867 10.463z"/></g></g></svg>