<svg enable-background="new 0 0 512 512" height="512" viewBox="0 0 512 512" width="512" xmlns="http://www.w3.org/2000/svg"><g id="_x33_3_Digital_World"><g><path d="m380.663 309.506c-3.866-1.714-8.399.011-10.124 3.881-.419.947-.887 1.856-1.359 2.785l-.483.954c-.196.389-.206.807-.33 1.211-2.577 2.764-2.895 7.008-.429 10.01l22.763 27.745c1.456 1.774 3.63 2.803 5.925 2.803h48.955c3.38 11.949 14.227 20.78 27.195 20.78 15.719 0 28.508-12.789 28.508-28.505 0-15.656-12.789-28.392-28.508-28.392-13.001 0-23.874 8.838-27.223 20.787h-45.3l-17.171-20.926c.506-1 1.007-1.989 1.462-3.009 1.722-3.866-.015-8.398-3.881-10.124zm92.112 28.602c7.265 0 13.178 5.861 13.178 13.062 0 7.265-5.914 13.174-13.178 13.174-7.201 0-13.058-5.91-13.058-13.174 0-7.201 5.857-13.062 13.058-13.062z"/><path d="m129.019 322.528-17.32 21.037h-45.251c-3.349-11.949-14.221-20.787-27.224-20.787-15.719 0-28.508 12.737-28.508 28.389 0 15.719 12.789 28.508 28.508 28.508 12.967 0 23.814-8.829 27.194-20.78h48.899c2.291 0 4.461-1.026 5.917-2.792l16.119-19.579c10.427 15.229 24.1 28.57 38.125 38.124l-19.583 16.12c-1.767 1.456-2.792 3.627-2.792 5.917v48.891c-11.952 3.379-20.783 14.226-20.783 27.198 0 15.719 12.789 28.508 28.508 28.508 15.656 0 28.392-12.789 28.392-28.508 0-13.004-8.838-23.877-20.787-27.227v-45.244l21.042-17.321c17.751 9.335 37.693 14.947 58.828 16.072v24.108c-11.936 3.402-20.753 14.287-20.753 27.301 0 15.652 12.789 28.389 28.505 28.389 15.656 0 28.392-12.737 28.392-28.389 0-13.067-8.851-23.992-20.813-27.346v-24.032c20.768-1.099 40.812-6.567 58.945-16.071l21.004 17.29v45.238c-11.958 3.343-20.806 14.221-20.806 27.232 0 15.719 12.737 28.508 28.392 28.508 15.716 0 28.505-12.789 28.505-28.508 0-12.965-8.822-23.807-20.761-27.193v-48.897c0-2.291-1.026-4.461-2.792-5.917l-19.631-16.159c5.952-4.042 11.705-8.426 17.056-13.386 3.106-2.878 3.29-7.729.412-10.831-2.886-3.114-7.732-3.286-10.831-.412-23.744 22.011-54.696 34.134-87.157 34.134-16.437 0-32.108-3.224-46.56-8.891-7.332-27.54-2.191-31.536 20.96-26.444.768-.085 32.691 8.768 38.258-14.941 2.496-10.629-4.192-24.309-21.506-28.718-14.507-3.706-32.059.309-36.331-11.73-1.141-3.203.781-4.373 3.597-6.696 34.014-28.113-35.157-63.721-76.168-13.246-2.346 2.889-4.877 5.954-7.646 8.676-1.752-8.429-2.688-17.153-2.688-26.094 0-70.097 56.554-127.156 126.396-128.073-2.658 3.761-6.447 7.193-10.734 10.94-5.12 4.476-10.42 9.11-14.424 15.181-18.92 28.704 3.913 66.978 38.251 63.915 2.897-.251 5.902-.805 8.904-1.374 15.403-2.908 17.471-1.788 17.905 14.769.228 8.593.513 19.286 9.009 26.102 23.049 18.539 83.142-25.905 60.172-59.307-10.171-14.763-32.567-16.239-35.219-26.633-1.338-5.318 3.219-10.657 8.933-14.652 28.699 23.522 47.055 59.218 47.055 99.133 0 7.987-.756 16.075-2.246 24.036-.778 4.162 1.965 8.167 6.123 8.945 4.173.793 8.167-1.961 8.945-6.123 1.191-6.357 1.807-12.78 2.149-19.193h24.029c3.361 11.932 14.224 20.753 27.216 20.753 15.719 0 28.508-12.737 28.508-28.392 0-15.719-12.789-28.508-28.508-28.508-12.984 0-23.841 8.848-27.209 20.817h-24.065c-1.127-21.179-6.754-41.162-16.12-58.943l17.291-21.005h45.302c3.343 11.958 14.22 20.806 27.228 20.806 15.719 0 28.508-12.737 28.508-28.392 0-15.719-12.789-28.508-28.508-28.508-12.962 0-23.804 8.823-27.19 20.765h-48.96c-2.291 0-4.461 1.025-5.917 2.792l-16.101 19.56c-10.323-15.147-24.291-28.676-38.081-38.07l19.584-16.068c1.774-1.456 2.803-3.63 2.803-5.925v-48.963c11.942-3.385 20.765-14.228 20.765-27.193 0-15.716-12.789-28.505-28.508-28.505-15.656 0-28.392 12.789-28.392 28.505 0 13.012 8.847 23.889 20.806 27.232v45.295l-21.002 17.233c-19.263-10.133-38.67-14.986-58.946-16.052v-24.048c11.963-3.34 20.813-14.221 20.813-27.234 0-15.716-12.737-28.505-28.392-28.505-15.716 0-28.505 12.789-28.505 28.505 0 12.961 8.818 23.802 20.753 27.191v24.091c-21.137 1.126-41.079 6.742-58.831 16.082l-21.039-17.263v-45.3c11.949-3.35 20.787-14.222 20.787-27.227 0-15.716-12.737-28.505-28.392-28.505-15.716 0-28.505 12.789-28.505 28.505 0 12.971 8.831 23.819 20.78 27.198v48.955c0 2.294 1.029 4.469 2.803 5.925l19.567 16.054c-14.98 10.203-27.934 23.164-38.13 38.153l-16.103-19.618c-1.456-1.774-3.63-2.803-5.925-2.803h-48.905c-3.385-11.942-14.228-20.765-27.19-20.765-15.719 0-28.508 12.789-28.508 28.508 0 15.656 12.789 28.392 28.508 28.392 13.008 0 23.886-8.848 27.229-20.806h45.238l17.32 21.097c-9.333 17.759-14.942 37.708-16.067 58.852h-24.088c-3.382-11.969-14.284-20.817-27.321-20.817-15.656 0-28.392 12.789-28.392 28.508 0 15.656 12.737 28.392 28.392 28.392 13.045 0 23.953-8.822 27.328-20.753h24.082c1.061 19.948 5.946 39.576 16.074 58.835zm-89.794 41.817c-7.265 0-13.178-5.914-13.178-13.178 0-7.201 5.914-13.058 13.178-13.058 7.201 0 13.058 5.857 13.058 13.058 0 7.264-5.857 13.178-13.058 13.178zm134.667 108.43c0 7.265-5.861 13.178-13.062 13.178-7.265 0-13.178-5.914-13.178-13.178 0-7.201 5.914-13.062 13.178-13.062 7.201 0 13.062 5.861 13.062 13.062zm190.453 0c0 7.265-5.91 13.178-13.174 13.178-7.201 0-13.062-5.914-13.062-13.178 0-7.201 5.861-13.062 13.062-13.062 7.264 0 13.174 5.861 13.174 13.062zm86.004-229.897c7.265 0 13.178 5.914 13.178 13.178 0 7.201-5.914 13.062-13.178 13.062-7.201 0-13.062-5.861-13.062-13.062 0-7.265 5.861-13.178 13.062-13.178zm22.426-95.226c7.265 0 13.178 5.914 13.178 13.178 0 7.201-5.914 13.062-13.178 13.062-7.201 0-13.058-5.861-13.058-13.062 0-7.265 5.857-13.178 13.058-13.178zm-134.667-108.431c0-7.265 5.861-13.174 13.062-13.174 7.265 0 13.178 5.91 13.178 13.174 0 7.201-5.914 13.062-13.178 13.062-7.201 0-13.062-5.861-13.062-13.062zm-190.453 0c0-7.265 5.91-13.174 13.174-13.174 7.201 0 13.062 5.91 13.062 13.174 0 7.201-5.861 13.062-13.062 13.062-7.264 0-13.174-5.861-13.174-13.062zm165.631 136.097c5.04 19.728 30.091 20.87 37.45 31.559 12.607 18.327-28.467 46.289-37.933 38.666-.426-.989-2.907.049-3.294-14.563-.712-26.723-11.643-34.058-36.08-29.425-2.493.472-4.982.958-7.399 1.168-21.716 1.892-35.952-22.245-24.107-40.204 2.859-4.338 7.16-8.096 11.715-12.078 6.613-5.781 14.041-12.286 17.557-21.579 18.007 2.147 36.214 8.3 52.81 18.755-9.237 8.02-13.191 17.871-10.719 27.701zm-70.404-113.671c0-7.265 5.91-13.174 13.174-13.174 7.201 0 13.062 5.91 13.062 13.174 0 7.179-5.826 13.019-12.996 13.056-.054-.001-.098-.031-.152-.031-.034 0-.062.019-.095.019-7.179-.099-12.993-5.904-12.993-13.044zm-203.657 112.245c-7.265 0-13.178-5.861-13.178-13.062 0-7.265 5.914-13.178 13.178-13.178 7.201 0 13.058 5.914 13.058 13.178 0 7.201-5.857 13.062-13.058 13.062zm229.893 276.573c0 7.201-5.861 13.058-13.062 13.058-7.265 0-13.174-5.857-13.174-13.058 0-7.22 5.84-13.092 13.043-13.165.016 0 .029.009.045.009.036 0 .066-.021.103-.021 7.194.01 13.045 5.918 13.045 13.177zm-113.517-173.7c22.279-22.121 54.184-10.491 52.507-5.393-.288.861-1.984 2.264-3.484 3.503-2.126 1.755-4.768 3.941-6.714 7.036-7.918 12.644 2.106 28.852 16.056 33.602 10.854 3.725 20.222 2.119 29.365 4.461 15.599 3.967 14.443 19.044-7.399 14.323-12.68-2.748-25.605-5.827-35.983 2.699-9.768 8.005-10.148 19.21-8.326 29.601-26.096-15.254-45.958-38.501-56.416-68.287 10.263-7.421 14.626-15.838 20.394-21.545zm-94.066-7.647c-7.201 0-13.062-5.861-13.062-13.062 0-7.265 5.861-13.178 13.062-13.178 7.233 0 13.117 5.865 13.169 13.086 0 .022-.013.042-.013.065 0 .03.016.053.017.082-.032 7.177-5.928 13.007-13.173 13.007z"/></g></g></svg>