<svg enable-background="new 0 0 512 512" height="512" viewBox="0 0 512 512" width="512" xmlns="http://www.w3.org/2000/svg"><g id="_x33_4_Original_Artwork"><g><path d="m442.478 215.331c-4.233 0-7.665 3.432-7.665 7.665v4.065c0 4.233 3.432 7.665 7.665 7.665s7.665-3.432 7.665-7.665v-4.065c0-4.232-3.432-7.665-7.665-7.665z"/><path d="m351.219 223.113c0-16.086-13.811-29.115-29.934-27.954-9.933-32.301-36.741-56.789-69.132-64.499 2.094-3.663 3.387-7.844 3.387-12.358 0-4.233-3.432-7.665-7.665-7.665s-7.665 3.432-7.665 7.665c0 2.246-.89 4.222-2.169 5.873-.18-4.073-3.482-7.34-7.6-7.34s-7.42 3.267-7.6 7.34c-1.279-1.651-2.169-3.628-2.169-5.873 0-4.233-3.432-7.665-7.665-7.665s-7.665 3.432-7.665 7.665c0 4.514 1.292 8.694 3.387 12.359-32.387 7.71-59.195 32.198-69.132 64.499-16.086-1.1-29.934 11.868-29.934 27.954s13.844 29.148 29.934 27.954c27.51 89.428 154.17 89.479 181.687 0 16.102 1.099 29.935-11.869 29.935-27.955zm-146.88 43.071c.778-2.253.46-4.742-.857-6.733-1.317-1.987-3.488-3.249-5.869-3.41-14.387-.981-25.66-13.07-25.66-27.517 0-15.225 12.373-27.61 27.584-27.61 10.064 0 19.335 5.483 24.197 14.312 2.695 4.895 10.734 4.895 13.429 0 4.862-8.829 14.121-14.312 24.171-14.312 15.225 0 27.614 12.385 27.614 27.61 0 14.447-11.299 26.532-25.72 27.517-2.392.161-4.566 1.433-5.884 3.432-1.314 1.999-1.621 4.499-.827 6.759 6.181 17.532-6.914 36.592-26.091 36.596-.008 0-.016-.002-.024-.002-18.872-.01-32.253-18.675-26.063-36.642zm118.858-30.38c-1.591 0-3.17-.299-4.57-.868-4.389-1.79-9.356.818-10.371 5.453-4.924 22.404-19.359 40.983-38.445 51.899 3.2-7.356 4.147-15.139 3.211-22.473 18.089-5.131 31.256-21.835 31.256-41.29 0-23.677-19.264-42.94-42.944-42.94-11.801 0-22.902 4.854-30.885 13.137-7.987-8.283-19.099-13.137-30.911-13.137-23.662 0-42.914 19.264-42.914 42.94 0 19.462 13.152 36.166 31.218 41.294-.952 7.604.102 15.307 3.205 22.454-19.073-10.919-33.498-29.49-38.42-51.883-1.02-4.659-6.005-7.233-10.375-5.453-1.377.561-2.994.868-4.562.868-6.999 0-12.695-5.693-12.695-12.692s5.696-12.692 12.695-12.692c1.568 0 3.185.307 4.562.868 4.401 1.8 9.362-.826 10.375-5.453 7.953-36.177 40.68-62.436 77.815-62.436 37.139 0 69.866 26.259 77.815 62.436 1.014 4.629 5.968 7.241 10.371 5.453 1.4-.569 2.979-.868 4.57-.868 6.999 0 12.692 5.693 12.692 12.692s-5.694 12.691-12.693 12.691z"/><path d="m239.18 289.984c4.233 0 7.665-3.432 7.665-7.665s-3.432-7.665-7.665-7.665h-17.497c-4.233 0-7.665 3.432-7.665 7.665s3.432 7.665 7.665 7.665z"/><path d="m201.064 217.3c-7.587 0-13.758 6.172-13.758 13.755 0 4.233 3.432 7.665 7.665 7.665 2.481 0 4.69-1.183 6.089-3.013 1.404 1.83 3.612 3.013 6.093 3.013 4.233 0 7.665-3.432 7.665-7.665.001-7.583-6.171-13.755-13.754-13.755z"/><path d="m253.743 238.72c2.481 0 4.69-1.183 6.093-3.013 1.4 1.83 3.608 3.013 6.089 3.013 4.233 0 7.665-3.432 7.665-7.665 0-7.583-6.172-13.755-13.755-13.755-7.587 0-13.758 6.172-13.758 13.755.001 4.233 3.433 7.665 7.666 7.665z"/><path d="m450.143 312.961v-50.871c0-4.233-3.432-7.665-7.665-7.665s-7.665 3.432-7.665 7.665v44.685c-8.469-2.539-17.424-3.946-26.708-3.946-1.981 0-3.918.174-5.869.297v-224.771c0-4.233-3.432-7.665-7.665-7.665h-328.298c-4.233 0-7.665 3.432-7.665 7.665v272.112c0 4.233 3.432 7.665 7.665 7.665h256.642c-4.503 10.051-7.217 21.034-7.874 32.577h-262.41c-14.668 0-26.6-11.932-26.6-26.596v-299.475c0-14.627 11.932-26.525 26.6-26.525h355.661c14.623 0 26.521 11.898 26.521 26.525v123.331c0 4.233 3.432 7.665 7.665 7.665s7.665-3.432 7.665-7.665v-123.331c0-23.078-18.774-41.855-41.851-41.855h-355.661c-23.119 0-41.93 18.777-41.93 41.855v299.475c0 23.119 18.811 41.926 41.93 41.926h262.701c5.025 46.691 44.702 83.179 92.773 83.179 51.388 0 93.194-41.81 93.194-93.198 0-36.253-20.854-67.659-51.156-83.059zm-376.205 29.841v-256.782h312.967v219.327c-22.752 5.304-42.319 18.894-55.309 37.454h-257.658zm334.167 131.085c-43.012 0-78.002-34.931-78.002-77.868 0-42.933 34.991-77.86 78.002-77.86 42.933 0 77.864 34.927 77.864 77.86 0 42.937-34.931 77.868-77.864 77.868z"/><path d="m425.617 373.219-29.347 29.343-5.816-5.816c-2.994-2.994-7.845-2.994-10.839 0-2.994 2.99-2.994 7.845 0 10.839l11.236 11.239c1.437 1.437 3.387 2.246 5.419 2.246s3.982-.808 5.419-2.246l34.766-34.766c2.994-2.994 2.994-7.845 0-10.839-2.993-2.994-7.844-2.994-10.838 0z"/></g></g></svg>