<svg enable-background="new 0 0 512 512" height="512" viewBox="0 0 512 512" width="512" xmlns="http://www.w3.org/2000/svg"><g id="_x33_5_Unique_Token"><g><path d="m70.134 291.986c-2.373-.423-4.761-.636-7.104-.636-23.246 0-42.158 18.912-42.158 42.158s18.912 42.158 42.158 42.158c2.362 0 4.742-.202 7.089-.599 13.596 49.47 51.395 89.483 100.427 105.923 12.808 12.523 30.3 20.278 49.586 20.278 19.31 0 36.822-7.761 49.641-20.295 49.035-16.37 86.838-56.367 100.442-105.906 2.347.397 4.723.599 7.085.599 23.246 0 42.158-18.912 42.158-42.158 0-25.585-23.31-46.133-49.258-41.522-15.887-57.598-64.29-100.867-122.234-111.542 5.778-6.557 9.401-15.06 9.401-24.465 0-4.233-3.432-7.665-7.665-7.665s-7.665 3.432-7.665 7.665c0 9.353-5.929 17.29-14.204 20.409v-9.911c0-4.233-3.432-7.665-7.665-7.665s-7.665 3.432-7.665 7.665v9.91c-8.271-3.121-14.2-11.057-14.2-20.408 0-4.233-3.432-7.665-7.665-7.665s-7.665 3.432-7.665 7.665c0 9.405 3.622 17.907 9.398 24.464-57.945 10.673-106.35 53.943-122.237 111.543zm97.363 120.011c.775-2.253.457-4.742-.861-6.729-1.321-1.987-3.488-3.249-5.865-3.41-29.047-1.984-51.799-26.375-51.799-55.531 0-30.724 24.972-55.722 55.669-55.722 20.304 0 39.014 11.067 48.828 28.879 2.691 4.896 10.73 4.888 13.429 0 9.81-17.812 28.501-28.879 48.775-28.879 30.724 0 55.722 24.998 55.722 55.722 0 29.152-22.797 53.544-51.9 55.531-2.392.161-4.566 1.43-5.88 3.432-1.317 1.999-1.624 4.499-.831 6.756 12.571 35.771-14.242 73.893-52.653 73.893-38.083 0-65.118-37.648-52.634-73.942zm52.568-218.83c.036 0 .069.011.104.011s.067-.01.102-.01c65.345.051 122.91 46.271 136.897 109.946.996 4.56 5.846 7.217 10.285 5.494 3.211-1.261 6.617-1.928 9.847-1.928 14.791 0 26.828 12.037 26.828 26.828s-12.037 26.828-26.828 26.828c-3.361 0-6.767-.64-9.855-1.845-4.417-1.737-9.276.929-10.281 5.498-8.85 40.409-35.41 74.535-71.442 93.533 5.695-13.635 6.769-28.223 4.009-41.606 32.61-6.58 56.994-35.541 56.994-69.589 0-39.179-31.873-71.052-71.052-71.052-21.79 0-42.143 10.016-55.49 26.749-13.358-16.738-33.726-26.749-55.542-26.749-39.149 0-71 31.873-71 71.052 0 34.063 24.354 63.028 56.927 69.596-2.726 13.406-1.685 27.916 4.014 41.58-36.026-19.05-62.577-53.17-71.413-93.514-1.011-4.594-5.893-7.226-10.281-5.498-3.088 1.205-6.494 1.845-9.858 1.845-14.791 0-26.828-12.037-26.828-26.828s12.037-26.828 26.828-26.828c3.234 0 6.64.666 9.851 1.928 4.409 1.715 9.283-.907 10.285-5.494 13.987-63.677 71.55-109.898 136.899-109.947z"/><path d="m235.873 435.318h-31.443c-4.233 0-7.665 3.432-7.665 7.665s3.432 7.665 7.665 7.665h31.443c4.233 0 7.665-3.432 7.665-7.665s-3.432-7.665-7.665-7.665z"/><path d="m167.385 332.262c-10.263 0-18.613 8.35-18.613 18.613 0 4.233 3.432 7.665 7.665 7.665s7.665-3.432 7.665-7.665c0-1.811 1.471-3.282 3.282-3.282 1.808 0 3.279 1.471 3.279 3.282 0 4.233 3.432 7.665 7.665 7.665s7.665-3.432 7.665-7.665c.001-10.263-8.345-18.613-18.608-18.613z"/><path d="m269.7 350.875c0-1.811 1.471-3.282 3.282-3.282 1.808 0 3.279 1.471 3.279 3.282 0 4.233 3.432 7.665 7.665 7.665s7.665-3.432 7.665-7.665c0-10.263-8.346-18.613-18.609-18.613s-18.613 8.35-18.613 18.613c0 4.233 3.432 7.665 7.665 7.665s7.666-3.432 7.666-7.665z"/><path d="m491.008 111.74c.105-.973.12-1.841.12-2.818s-.015-1.845-.12-2.818c-.457-4.211-4.267-7.231-8.447-6.793-4.211.457-7.25 4.241-6.793 8.447.045.404.03.764.03 1.164s.015.76-.03 1.164c-.457 4.207 2.582 7.991 6.793 8.447.281.03.561.045.838.045 3.859 0 7.183-2.908 7.609-6.838z"/><path d="m392.937 10.731c-54.228 0-98.344 44.048-98.344 98.191 0 54.097 44.116 98.112 98.344 98.112 38.55 0 73.698-22.745 89.545-57.941 1.737-3.863.015-8.399-3.844-10.139-3.863-1.733-8.399-.015-10.135 3.844-13.377 29.71-43.038 48.906-75.566 48.906-45.774 0-83.014-37.135-83.014-82.782 0-45.688 37.24-82.86 83.014-82.86 32.588 0 62.279 19.226 75.641 48.977 1.733 3.863 6.269 5.588 10.132 3.851 3.862-1.733 5.588-6.269 3.851-10.132-15.828-35.249-51.006-58.027-89.624-58.027z"/><path d="m386.268 61.913-25.945 43.012c-1.467 2.437-1.467 5.483 0 7.92l25.945 43.012c1.389 2.298 3.877 3.705 6.565 3.705s5.176-1.407 6.565-3.705l25.945-43.012c1.467-2.437 1.467-5.483 0-7.92l-25.945-43.012c-2.778-4.596-10.353-4.596-13.13 0zm6.565 75.143-16.992-28.172 16.992-28.172 16.992 28.172z"/></g></g></svg>