<svg enable-background="new 0 0 512 512" height="512" viewBox="0 0 512 512" width="512" xmlns="http://www.w3.org/2000/svg"><g id="_x33_6_Collectibles"><g><path d="m213.673 186.363c16.026 0 29.066-12.987 29.066-28.954 0-16.026-13.04-29.062-29.066-29.062-15.967 0-28.954 13.036-28.954 29.062.001 15.966 12.988 28.954 28.954 28.954zm0-42.686c7.703 0 13.736 6.033 13.736 13.732 0 7.512-6.161 13.624-13.736 13.624-7.515 0-13.624-6.112-13.624-13.624.001-7.572 6.109-13.732 13.624-13.732z"/><path d="m468.973 394.739c-4.237 0-7.665 3.432-7.665 7.665v4.061c0 4.233 3.428 7.665 7.665 7.665s7.665-3.432 7.665-7.665v-4.061c0-4.232-3.428-7.665-7.665-7.665z"/><path d="m476.638 285.818c0-22.528-18.324-40.856-40.856-40.856h-8.661v-129.311c0-19.065-13.226-34.989-30.967-39.431v-25.797c0-21.895-17.845-39.707-39.778-39.707h-200.827c-21.895 0-39.703 17.812-39.703 39.707v25.797c-17.739 4.44-30.967 20.364-30.967 39.432v129.311h-8.743c-22.479 0-40.773 18.328-40.773 40.856v174.61c0 22.528 18.294 40.856 40.773 40.856h359.647c22.531 0 40.856-18.328 40.856-40.856v-18.931c0-4.233-3.428-7.665-7.665-7.665s-7.665 3.432-7.665 7.665v18.931c0 14.076-11.453 25.525-25.525 25.525h-359.649c-14.028 0-25.443-11.449-25.443-25.525v-174.61c0-14.076 11.415-25.525 25.443-25.525h359.647c14.073 0 25.525 11.449 25.525 25.525v81.558c0 4.233 3.428 7.665 7.665 7.665s7.665-3.432 7.665-7.665v-81.559zm-321.089-259.772h200.828c13.481 0 24.448 10.936 24.448 24.376v24.451h-249.649v-24.45c0-13.44 10.936-24.377 24.373-24.377zm-55.34 89.605c0-14.032 11.445-25.447 25.518-25.447h260.539c14.073 0 25.525 11.415 25.525 25.447v129.311h-87.217l-40.238-52.275c-1.467-1.905-3.982-3.241-6.138-2.99-2.41.022-4.663 1.171-6.093 3.103l-38.633 52.162h-18.086l-13.263-15.293c-1.609-1.841-3.922-2.822-6.43-2.616-2.433.202-4.626 1.553-5.906 3.642l-8.723 14.267h-80.855v-129.311zm205.026 129.312h-52.683l25.833-34.879z"/><path d="m349.827 324.964c0-16.674-13.564-30.238-30.241-30.238h-127.194c-16.678 0-30.241 13.564-30.241 30.238s13.564 30.241 30.241 30.241h127.193c16.678 0 30.242-13.567 30.242-30.241zm-30.242 14.911h-127.193c-8.219 0-14.911-6.688-14.911-14.911 0-8.219 6.692-14.907 14.911-14.907h127.193c8.219 0 14.911 6.688 14.911 14.907 0 8.222-6.692 14.911-14.911 14.911z"/><path d="m210.806 404.384v20.611l-16.236-24.811c-4.141-6.312-14.08-3.435-14.08 4.199v46.316c0 4.233 3.428 7.665 7.665 7.665s7.665-3.432 7.665-7.665v-20.609l16.236 24.811c4.155 6.33 14.08 3.436 14.08-4.199v-46.316c0-4.233-3.428-7.665-7.665-7.665-4.236-.002-7.665 3.43-7.665 7.663z"/><path d="m307.362 458.366c4.237 0 7.665-3.432 7.665-7.665v-38.651h8.795c4.237 0 7.665-3.432 7.665-7.665s-3.428-7.665-7.665-7.665h-32.929c-4.237 0-7.665 3.432-7.665 7.665s3.428 7.665 7.665 7.665h8.803v38.651c0 4.233 3.429 7.665 7.666 7.665z"/><path d="m268.684 412.05c4.237 0 7.665-3.432 7.665-7.665s-3.428-7.665-7.665-7.665h-23.19c-4.237 0-7.665 3.432-7.665 7.665v46.316c0 4.233 3.428 7.665 7.665 7.665s7.665-3.432 7.665-7.665v-15.491h15.525c4.237 0 7.665-3.432 7.665-7.665s-3.428-7.665-7.665-7.665h-15.525v-7.83z"/></g></g></svg>