<svg enable-background="new 0 0 512 512" height="512" viewBox="0 0 512 512" width="512" xmlns="http://www.w3.org/2000/svg"><g id="_x33_7_Art_Token"><g><path d="m390.176 145.383-2.755 2.987c-2.867 3.11-2.672 7.961.442 10.828 3.116 2.879 7.965 2.67 10.831-.438l2.755-2.987c2.867-3.11 2.672-7.961-.442-10.828-3.106-2.875-7.956-2.676-10.831.438z"/><path d="m413.673 119.442c-2.844 3.136-2.612 7.983.524 10.828 3.129 2.841 7.972 2.605 10.824-.528l69.6-76.726c4.199-4.626 6.512-10.648 6.512-16.955 0-6.793-2.62-13.159-7.381-17.92-9.589-9.578-24.904-9.959-34.867-.868l-330.521 299.86c-5.975 5.418-9.381 13.783-7.923 22.829-23.839-5.373-47.381 2.019-63.705 18.353-24.702 24.702-43.753 122.799-45.841 133.904-.472 2.489.322 5.053 2.111 6.842 1.452 1.448 3.406 2.242 5.419 2.242.472 0 .951-.045 1.43-.135 11.093-2.1 109.086-21.247 133.78-45.95 16.239-16.234 23.775-39.787 18.354-63.786 9.076 1.439 17.341-1.906 22.771-7.899l180.363-198.833c2.844-3.136 2.612-7.983-.524-10.828-3.136-2.844-7.98-2.616-10.824.528l-180.37 198.833c-3.898 4.302-10.509 4.267-14.424.344-2.828-2.828-32.544-32.544-30.66-30.66-4.033-4.033-3.857-10.615.344-14.428l330.536-299.872c3.915-3.567 9.948-3.395 13.713.367 1.864 1.864 2.889 4.379 2.889 7.078 0 1.763-.442 4.345-2.53 6.651zm-270.876 324.937c-16.101 16.105-80.327 32.262-114.603 39.478 7.179-34.31 23.265-98.591 39.381-114.704 33.31-33.322 90.935-9.661 90.836 37.6-.022 14.218-5.569 27.58-15.614 37.626z"/><path d="m379.135 257.014c-67.332 0-122.11 54.775-122.11 122.103 0 67.373 54.779 122.185 122.11 122.185 67.324 0 122.103-54.812 122.103-122.185 0-67.329-54.778-122.103-122.103-122.103zm0 228.958c-58.881 0-106.78-47.933-106.78-106.855 0-58.873 47.9-106.773 106.78-106.773 58.873 0 106.773 47.9 106.773 106.773 0 58.921-47.899 106.855-106.773 106.855z"/><path d="m344.433 350.073c-4.237 0-7.665 3.432-7.665 7.665v17.13l-13.96-21.33c-4.152-6.329-14.08-3.42-14.08 4.199v42.836c0 4.233 3.428 7.665 7.665 7.665s7.665-3.432 7.665-7.665v-17.13l13.96 21.33c4.155 6.33 14.08 3.436 14.08-4.199v-42.836c0-4.233-3.428-7.665-7.665-7.665z"/><path d="m441.871 350.073h-30.451c-4.237 0-7.665 3.432-7.665 7.665s3.428 7.665 7.665 7.665h7.56v35.17c0 4.233 3.428 7.665 7.665 7.665s7.665-3.432 7.665-7.665v-35.17h7.56c4.237 0 7.665-3.432 7.665-7.665s-3.427-7.665-7.664-7.665z"/><path d="m390.873 365.403c4.237 0 7.665-3.432 7.665-7.665s-3.428-7.665-7.665-7.665h-21.446c-4.237 0-7.665 3.432-7.665 7.665v42.836c0 4.233 3.428 7.665 7.665 7.665s7.665-3.432 7.665-7.665v-13.751h13.781c4.237 0 7.665-3.432 7.665-7.665s-3.428-7.665-7.665-7.665h-13.781v-6.089h13.781z"/></g></g></svg>