<svg enable-background="new 0 0 512 512" height="512" viewBox="0 0 512 512" width="512" xmlns="http://www.w3.org/2000/svg"><g id="_x33_8_Design"><g><path d="m493.619 347.177c-4.237 0-7.665 3.432-7.665 7.665v4.061c0 4.233 3.428 7.665 7.665 7.665s7.665-3.432 7.665-7.665v-4.061c0-4.233-3.428-7.665-7.665-7.665z"/><path d="m56.707 469.819h398.586c25.361 0 45.991-20.63 45.991-45.991v-29.893c0-4.233-3.428-7.665-7.665-7.665s-7.665 3.432-7.665 7.665v29.893c0 16.906-13.751 30.66-30.66 30.66h-398.587c-16.91 0-30.66-13.755-30.66-30.66v-335.656c0-16.906 13.751-30.66 30.66-30.66h398.586c16.91 0 30.66 13.755 30.66 30.66v231.638c0 4.233 3.428 7.665 7.665 7.665s7.665-3.432 7.665-7.665v-231.638c0-25.361-20.63-45.991-45.991-45.991h-398.585c-25.361 0-45.991 20.63-45.991 45.991v335.656c0 25.361 20.63 45.991 45.991 45.991z"/><path d="m72.067 95.871c-4.237 0-7.665 3.432-7.665 7.665v304.943c0 4.233 3.428 7.665 7.665 7.665h367.926c4.237 0 7.665-3.432 7.665-7.665v-304.943c0-4.233-3.428-7.665-7.665-7.665zm360.261 304.943h-352.596v-289.613h352.596z"/><path d="m236.583 221.23 9.858 69.087c.344 2.407 1.811 4.51 3.952 5.663l47.474 25.63c-9.838 10.03-9.8 26.184.156 36.14l18.676 18.676c2.994 2.994 7.845 2.994 10.839 0l72.908-72.908c2.994-2.994 2.994-7.845 0-10.839l-18.676-18.676c-9.642-9.653-26.404-9.676-36.133-.156l-25.637-47.481c-1.153-2.137-3.256-3.604-5.659-3.945l-69.083-9.858c-5.38-.729-9.323 4.096-8.675 8.667zm127.028 60.576c2.762 0 5.367 1.078 7.321 3.035l13.257 13.257-62.07 62.07-13.257-13.257c-4.035-4.038-4.035-10.614 0-14.653l47.42-47.417c1.955-1.957 4.559-3.035 7.329-3.035zm-29.298 3.327-4.018 4.018-21.14 21.133-48.079-25.96-6.063-42.499 29.155 29.156c2.994 2.994 7.845 2.994 10.839 0s2.994-7.845 0-10.839l-29.159-29.16 42.498 6.067z"/><path d="m158.27 227.813h56.897c4.237 0 7.665-3.432 7.665-7.665s-3.428-7.665-7.665-7.665h-56.897c-18.512 0-33.572-15.057-33.572-33.569v-37.91c0-4.233-3.428-7.665-7.665-7.665s-7.665 3.432-7.665 7.665v37.91c-.001 26.963 21.939 48.899 48.902 48.899z"/></g></g></svg>