<svg enable-background="new 0 0 512 512" height="512" viewBox="0 0 512 512" width="512" xmlns="http://www.w3.org/2000/svg"><g id="_x33_9_Painting_Work"><g><path d="m65.704 227.525 11.782 241.915c.936 19.219 16.738 34.276 35.983 34.276s35.047-15.057 35.983-34.276l11.767-241.927c.384-8.08-2.847-16.026-10.187-21.626 30.138-16.252 39.04-41.828 31.693-62.373-31.873-89.131-21.918-124.994-21.843-125.268.891-2.777.127-5.812-1.969-7.841-2.096-2.032-5.158-2.684-7.897-1.714-1.078.386-107.372 39.34-107.372 137.415 0 23.771 11.877 46.066 32.88 59.237-7.435 5.292-11.238 13.58-10.82 22.182zm68.433 241.171v.004c-.531 11.037-9.611 19.687-20.667 19.687s-20.136-8.649-20.667-19.691l-11.783-241.919c-.292-5.845 4.351-10.824 10.315-10.824l44.254-.004c5.891 0 10.61 4.922 10.315 10.828zm-75.162-322.59c0-68.391 59.233-104.95 85.215-117.694-1.003 18.968 1.512 57.107 24.103 120.269 9.568 26.764-26.002 51.938-54.958 51.938h-.007c-30.171 0-54.353-24.601-54.353-54.513z"/><path d="m460.69 395.443c-4.237 0-7.665 3.432-7.665 7.665v4.065c0 4.233 3.428 7.665 7.665 7.665s7.665-3.432 7.665-7.665v-4.065c0-4.233-3.428-7.665-7.665-7.665z"/><path d="m468.355 51.508c0-21.131-17.194-38.326-38.326-38.326h-180.047c-21.131 0-38.326 17.194-38.326 38.326v413.917c0 21.131 17.194 38.326 38.326 38.326h180.048c21.132 0 38.326-17.194 38.326-38.326v-23.224c0-4.233-3.428-7.665-7.665-7.665s-7.665 3.432-7.665 7.665v23.224c0 12.68-10.315 22.995-22.995 22.995h-180.049c-12.68 0-22.995-10.315-22.995-22.995v-413.917c0-12.68 10.315-22.995 22.995-22.995h180.048c12.68 0 22.995 10.315 22.995 22.995v316.572c0 4.233 3.428 7.665 7.665 7.665s7.665-3.432 7.665-7.665z"/><path d="m388.321 145.818c-22.861 0-41.455 18.598-41.455 41.455s18.594 41.455 41.455 41.455 41.455-18.598 41.455-41.455-18.595-41.455-41.455-41.455zm0 67.578c-14.402 0-26.124-11.719-26.124-26.124 0-14.406 11.722-26.124 26.124-26.124s26.124 11.718 26.124 26.124-11.722 26.124-26.124 26.124z"/><path d="m388.321 288.139c-22.861 0-41.455 18.598-41.455 41.455s18.594 41.455 41.455 41.455 41.455-18.598 41.455-41.455-18.595-41.455-41.455-41.455zm0 67.579c-14.402 0-26.124-11.719-26.124-26.124s11.722-26.124 26.124-26.124 26.124 11.719 26.124 26.124-11.722 26.124-26.124 26.124z"/><path d="m291.683 74.657c-22.853 0-41.447 18.598-41.447 41.455s18.594 41.455 41.447 41.455c22.861 0 41.455-18.598 41.455-41.455s-18.594-41.455-41.455-41.455zm0 67.579c-14.402 0-26.117-11.719-26.117-26.124s11.715-26.124 26.117-26.124 26.124 11.719 26.124 26.124-11.722 26.124-26.124 26.124z"/><path d="m291.683 216.978c-22.853 0-41.447 18.598-41.447 41.455s18.594 41.455 41.447 41.455c22.861 0 41.455-18.598 41.455-41.455s-18.594-41.455-41.455-41.455zm0 67.579c-14.402 0-26.117-11.719-26.117-26.124s11.715-26.124 26.117-26.124 26.124 11.718 26.124 26.124-11.722 26.124-26.124 26.124z"/><path d="m291.683 359.299c-22.853 0-41.447 18.598-41.447 41.455s18.594 41.455 41.447 41.455c22.861 0 41.455-18.598 41.455-41.455s-18.594-41.455-41.455-41.455zm0 67.579c-14.402 0-26.117-11.719-26.117-26.124s11.715-26.124 26.117-26.124 26.124 11.719 26.124 26.124-11.722 26.124-26.124 26.124z"/></g></g></svg>