<svg enable-background="new 0 0 512 512" height="512" viewBox="0 0 512 512" width="512" xmlns="http://www.w3.org/2000/svg"><g id="_x34_0_Nft_Technology"><g><path d="m364.741 485.969c-4.237 0-7.665 3.432-7.665 7.665s3.428 7.665 7.665 7.665h4.065c4.237 0 7.665-3.432 7.665-7.665s-3.428-7.665-7.665-7.665z"/><path d="m434.102 125.719c-3.922-1.553-8.384.363-9.948 4.304l-97.917 247.376h-140.474l-97.917-247.376c-1.557-3.941-6.026-5.857-9.948-4.304-3.937 1.557-5.861 6.011-4.304 9.948l95.683 241.732h-12.729c-12.68 0-22.995 10.315-22.995 22.995v12.448h-18.616c-1.886 0-3.713.696-5.12 1.957l-34.186 30.66c-1.617 1.456-2.545 3.529-2.545 5.708v42.465c0 4.233 3.428 7.665 7.665 7.665h248.959c4.237 0 7.665-3.432 7.665-7.665s-3.428-7.665-7.665-7.665h-241.295v-31.377l29.455-26.416h276.281l29.455 26.416v31.379h-19.777c-4.237 0-7.665 3.432-7.665 7.665s3.428 7.665 7.665 7.665h27.442c4.237 0 7.665-3.432 7.665-7.665v-42.465c0-2.178-.928-4.252-2.545-5.708l-34.186-30.66c-1.407-1.261-3.234-1.957-5.12-1.957h-18.639v-12.448c0-12.68-10.315-22.995-22.995-22.995h-12.729l95.683-241.732c1.558-3.939-.366-8.393-4.303-9.95zm-70.985 274.676v12.418h-214.234v-12.418c0-4.226 3.436-7.665 7.665-7.665h198.904c4.229 0 7.665 3.439 7.665 7.665z"/><path d="m378.103 132.804c0-67.328-54.779-122.103-122.103-122.103s-122.103 54.775-122.103 122.103c0 67.373 54.779 122.185 122.103 122.185s122.103-54.812 122.103-122.185zm-122.103 106.855c-58.873 0-106.773-47.933-106.773-106.855 0-58.873 47.9-106.773 106.773-106.773s106.773 47.9 106.773 106.773c0 58.922-47.9 106.855-106.773 106.855z"/><path d="m221.305 103.761c-4.237 0-7.665 3.432-7.665 7.665v17.13l-13.96-21.33c-4.152-6.321-14.08-3.42-14.08 4.199v42.836c0 4.233 3.428 7.665 7.665 7.665s7.665-3.432 7.665-7.665v-17.13l13.96 21.33c4.155 6.33 14.08 3.436 14.08-4.199v-42.836c0-4.233-3.428-7.665-7.665-7.665z"/><path d="m318.736 103.761h-30.451c-4.237 0-7.665 3.432-7.665 7.665s3.428 7.665 7.665 7.665h7.56v35.17c0 4.233 3.428 7.665 7.665 7.665s7.665-3.432 7.665-7.665v-35.17h7.56c4.237 0 7.665-3.432 7.665-7.665s-3.427-7.665-7.664-7.665z"/><path d="m267.737 119.091c4.237 0 7.665-3.432 7.665-7.665s-3.428-7.665-7.665-7.665h-21.446c-4.237 0-7.665 3.432-7.665 7.665v42.836c0 4.233 3.428 7.665 7.665 7.665s7.665-3.432 7.665-7.665v-13.752h13.781c4.237 0 7.665-3.432 7.665-7.665s-3.428-7.665-7.665-7.665h-13.781v-6.089z"/><path d="m263.665 286.702c0-4.233-3.428-7.665-7.665-7.665s-7.665 3.432-7.665 7.665v22.726c0 4.233 3.428 7.665 7.665 7.665s7.665-3.432 7.665-7.665z"/><path d="m256 324.922c-4.237 0-7.665 3.432-7.665 7.665v4.764c0 4.233 3.428 7.665 7.665 7.665s7.665-3.432 7.665-7.665v-4.764c0-4.232-3.428-7.665-7.665-7.665z"/><path d="m170.681 453.384c-4.237 0-7.665 3.432-7.665 7.665s3.428 7.665 7.665 7.665h5.689c4.237 0 7.665-3.432 7.665-7.665s-3.428-7.665-7.665-7.665z"/><path d="m225.669 453.384c-4.237 0-7.665 3.432-7.665 7.665s3.428 7.665 7.665 7.665h5.681c4.237 0 7.665-3.432 7.665-7.665s-3.428-7.665-7.665-7.665z"/><path d="m280.65 453.384c-4.237 0-7.665 3.432-7.665 7.665s3.428 7.665 7.665 7.665h5.681c4.237 0 7.665-3.432 7.665-7.665s-3.428-7.665-7.665-7.665z"/><path d="m335.63 453.384c-4.237 0-7.665 3.432-7.665 7.665s3.428 7.665 7.665 7.665h5.689c4.237 0 7.665-3.432 7.665-7.665s-3.428-7.665-7.665-7.665z"/></g></g></svg>