<svg enable-background="new 0 0 512 512" height="512" viewBox="0 0 512 512" width="512" xmlns="http://www.w3.org/2000/svg"><g id="_x34_1_Contract"><g><path d="m415.588 386.154c-4.233 0-7.665 3.432-7.665 7.665v4.065c0 4.233 3.432 7.665 7.665 7.665s7.665-3.432 7.665-7.665v-4.065c0-4.233-3.432-7.665-7.665-7.665z"/><path d="m423.253 123.623c0-1.721-.833-4.068-2.219-5.453l-105.317-105.242c-1.355-1.348-3.654-2.212-5.449-2.212h-183.196c-21.131 0-38.326 17.194-38.326 38.326v413.917c0 21.132 17.194 38.326 38.326 38.326h257.856c21.131 0 38.326-17.194 38.326-38.326v-30.047c0-4.233-3.432-7.665-7.665-7.665s-7.665 3.432-7.665 7.665v30.047c0 12.68-10.315 22.995-22.995 22.995h-257.857c-12.68 0-22.995-10.315-22.995-22.995v-413.917c0-12.68 10.315-22.995 22.995-22.995h175.56v66.886c0 21.131 17.194 38.326 38.326 38.326h66.965v227.531c0 4.233 3.432 7.665 7.665 7.665s7.665-3.432 7.665-7.665zm-105.29-30.69v-56.025l79.08 79.02h-56.084c-12.681 0-22.996-10.315-22.996-22.995z"/><path d="m314.153 418.996c11.482 3.013 22.942-4.598 25.589-11.988 13.209-25.332 29.717-26.923 33.868-29.62 3.548-2.313 4.866-7.238 2.553-10.783-2.302-3.548-6.744-4.72-10.289-2.418-44.24 19.284-34.24 43.495-47.84 39.98-7.56-1.982-18.075-21.328-35.938-13.912-4.764 1.984-8.021 5.917-8.934 10.802-1.815 9.712 5.704 15.54 10.682 19.399 1.826 1.415 3.552 2.751 4.652 4.005 5.12 5.836-.986 19.745-14.975 15.532-17.822-5.391-9.757-24.957-28.138-26.749-20.295-1.984-25.215 19.733-31.417 26.91-6.439 7.466-20.715 6.781-26.461-1.07-2.5-3.421-7.295-4.162-10.712-1.662s-4.162 7.298-1.662 10.712c11.609 15.864 37.563 16.935 50.437 2.044 6.9-7.988 10.935-23.871 18.691-21.618 4.038 12.901 13.208 22.595 24.818 26.106 17.636 5.335 35.262-5.397 36.443-23.276.427-6.464-1.531-12.516-5.506-17.041-3.775-4.301-9.597-7.686-11.486-10.113 7.918-1.571 12.836 11.412 25.625 14.76z"/><path d="m256.028 366.358c60.853 0 110.358-49.535 110.358-110.426 0-60.849-49.505-110.355-110.358-110.355s-110.358 49.506-110.358 110.356c0 60.89 49.505 110.425 110.358 110.425zm0-205.45c52.398 0 95.028 42.626 95.028 95.024 0 52.436-42.63 95.095-95.028 95.095s-95.028-42.659-95.028-95.094c0-52.399 42.63-95.025 95.028-95.025z"/><path d="m199.73 282.854c4.233 0 7.665-3.432 7.665-7.665v-12.737l11.082 16.936c4.155 6.33 14.08 3.436 14.08-4.199v-38.442c0-4.233-3.432-7.665-7.665-7.665s-7.665 3.432-7.665 7.665v12.737l-11.082-16.936c-4.153-6.334-14.08-3.408-14.08 4.199v38.442c0 4.233 3.432 7.665 7.665 7.665z"/><path d="m285.001 244.412h5.996v30.777c0 4.233 3.432 7.665 7.665 7.665s7.665-3.432 7.665-7.665v-30.777h6c4.233 0 7.665-3.432 7.665-7.665s-3.432-7.665-7.665-7.665h-27.326c-4.233 0-7.665 3.432-7.665 7.665s3.432 7.665 7.665 7.665z"/><path d="m247.319 282.854c4.233 0 7.665-3.432 7.665-7.665v-11.554h11.576c4.233 0 7.665-3.432 7.665-7.665s-3.432-7.665-7.665-7.665h-11.576v-3.892h11.576c4.233 0 7.665-3.432 7.665-7.665s-3.432-7.665-7.665-7.665h-19.241c-4.233 0-7.665 3.432-7.665 7.665v38.442c0 4.232 3.432 7.664 7.665 7.664z"/></g></g></svg>