<svg enable-background="new 0 0 512 512" height="512" viewBox="0 0 512 512" width="512" xmlns="http://www.w3.org/2000/svg"><g id="_x34_2_Cryptocurrency"><g><path d="m461.77 264.747c-4.233 0-7.665 3.432-7.665 7.665v4.061c0 4.233 3.432 7.665 7.665 7.665s7.665-3.432 7.665-7.665v-4.061c0-4.233-3.432-7.665-7.665-7.665z"/><path d="m469.435 163.719c0-19.077-10.274-36.888-26.828-46.496l-159.815-92.21c-16.502-9.54-37.061-9.551-53.66-.004l-159.754 92.225c-16.539 9.6-26.813 27.412-26.813 46.485v184.502c0 19.159 10.285 36.978 26.828 46.496l159.725 92.202c8.305 4.821 17.602 7.227 26.884 7.227 9.278 0 18.545-2.407 26.787-7.216l159.807-92.21c16.554-9.518 26.839-27.337 26.839-46.5v-36.716c0-4.233-3.432-7.665-7.665-7.665s-7.665 3.432-7.665 7.665v36.716c0 13.691-7.34 26.42-19.163 33.217l-159.848 92.233c-11.767 6.868-26.439 6.864-38.296-.019l-159.751-92.217c-11.812-6.797-19.152-19.522-19.152-33.213v-184.502c0-13.627 7.347-26.36 19.163-33.217l159.729-92.21c11.857-6.819 26.547-6.83 38.337-.004l159.804 92.202c11.831 6.864 19.178 19.597 19.178 33.228v73.661c0 4.233 3.432 7.665 7.665 7.665s7.665-3.432 7.665-7.665v-73.66z"/><path d="m259.823 73.676c-2.373-1.37-5.292-1.37-7.665 0l-152.131 87.835c-2.373 1.37-3.833 3.9-3.833 6.64v175.654c0 2.74 1.46 5.27 3.833 6.64l152.131 87.835c1.186.685 2.508 1.026 3.833 1.026s2.646-.341 3.833-1.026l152.131-87.835c2.373-1.37 3.833-3.9 3.833-6.64v-175.654c0-2.74-1.46-5.27-3.833-6.64zm140.633 265.705-144.466 83.407-144.466-83.407v-166.807l144.466-83.407 144.466 83.407z"/><path d="m249.362 147.629-60.703 104.497c-.96 2.376-1.721 4.739 0 7.703l60.703 104.493c1.374 2.362 3.896 3.814 6.628 3.814s5.255-1.452 6.628-3.814l60.703-104.493c1.42-2.446 1.206-5.101 0-7.703l-60.703-104.497c-2.746-4.723-10.509-4.723-13.256 0zm6.629 197.583-40.154-69.119 36.445 20.145c1.157.64 2.433.958 3.709.958s2.553-.318 3.709-.958l36.445-20.145zm50.144-92.156-50.144 27.717-50.144-27.717 50.144-86.317z"/></g></g></svg>