<svg enable-background="new 0 0 512 512" height="512" viewBox="0 0 512 512" width="512" xmlns="http://www.w3.org/2000/svg"><g id="_x34_3_Nft_Acceptance"><g><path d="m429.985 276.452c-4.233 0-7.665 3.432-7.665 7.665v4.061c0 4.233 3.432 7.665 7.665 7.665s7.665-3.432 7.665-7.665v-4.061c0-4.233-3.432-7.665-7.665-7.665z"/><path d="m37.533 401.901 159.826 92.214c16.534 9.516 37.098 9.518 53.641-.004l159.856-92.228c16.528-9.649 26.794-27.46 26.794-46.481v-32.192c0-4.233-3.432-7.665-7.665-7.665s-7.665 3.432-7.665 7.665v32.191c0 13.59-7.354 26.33-19.159 33.22l-159.815 92.206c-11.827 6.804-26.517 6.801-38.337.004l-159.781-92.19c-11.842-6.913-19.196-19.649-19.196-33.239v-184.499c0-13.653 7.347-26.383 19.159-33.221l159.837-92.221c11.816-6.86 26.484-6.857 38.314.011l72.964 42.095c-.951 5.325-1.534 10.777-1.534 16.371 0 10.472 1.818 20.51 5.023 29.915l-91.787-52.985c-2.373-1.37-5.292-1.37-7.665 0l-152.153 87.842c-2.373 1.37-3.833 3.9-3.833 6.64v175.605c0 2.74 1.46 5.27 3.833 6.64l152.153 87.842c2.34 1.351 5.269 1.383 7.665 0l152.153-87.842c2.373-1.37 3.833-3.9 3.833-6.64v-157.086c7.706 2.063 15.762 3.267 24.111 3.267 4.845 0 9.567-.485 14.215-1.201v53.151c0 4.233 3.432 7.665 7.665 7.665s7.665-3.432 7.665-7.665v-56.83c36.934-12.392 63.649-47.263 63.649-88.317 0-51.384-41.806-93.19-93.194-93.19-40.31 0-74.633 25.699-87.66 61.51l-69.426-40.053c-16.55-9.615-37.124-9.604-53.667-.011l-159.83 92.214c-16.543 9.574-26.82 27.389-26.82 46.496v184.498c-.001 19.015 10.265 36.827 26.831 46.498zm331.131-55.37-144.488 83.414-144.489-83.414v-166.757l144.488-83.414 109.018 62.932c9.198 12.379 21.361 22.385 35.47 28.993v158.246zm39.441-320.453c42.933 0 77.864 34.927 77.864 77.86 0 42.937-34.931 77.868-77.864 77.868-43.012 0-78.002-34.931-78.002-77.868-.001-42.933 34.99-77.86 78.002-77.86z"/><path d="m171.672 223.066c-4.233 0-7.665 3.432-7.665 7.665v39.123l-28.355-43.322c-1.86-2.833-5.371-4.106-8.605-3.148-3.249.969-5.476 3.956-5.476 7.347v64.828c0 4.233 3.432 7.665 7.665 7.665s7.665-3.432 7.665-7.665v-39.123l28.355 43.322c4.151 6.323 14.08 3.419 14.08-4.199v-64.828c.002-4.233-3.431-7.665-7.664-7.665z"/><path d="m319.129 223.066h-46.084c-4.233 0-7.665 3.432-7.665 7.665s3.432 7.665 7.665 7.665h15.375v57.163c0 4.233 3.432 7.665 7.665 7.665s7.665-3.432 7.665-7.665v-57.163h15.379c4.233 0 7.665-3.432 7.665-7.665s-3.432-7.665-7.665-7.665z"/><path d="m241.946 238.396c4.233 0 7.665-3.432 7.665-7.665s-3.432-7.665-7.665-7.665h-32.453c-4.233 0-7.665 3.432-7.665 7.665v64.828c0 4.233 3.432 7.665 7.665 7.665s7.665-3.432 7.665-7.665v-24.747h24.788c4.233 0 7.665-3.432 7.665-7.665s-3.432-7.665-7.665-7.665h-24.788v-17.086z"/><path d="m390.851 126.743c1.437 1.437 3.387 2.246 5.419 2.246s3.982-.808 5.419-2.246l34.766-34.766c2.994-2.994 2.994-7.845 0-10.839s-7.845-2.994-10.839 0l-29.347 29.343-5.816-5.816c-2.994-2.994-7.845-2.994-10.839 0-2.994 2.99-2.994 7.845 0 10.839z"/></g></g></svg>