<svg enable-background="new 0 0 512 512" height="512" viewBox="0 0 512 512" width="512" xmlns="http://www.w3.org/2000/svg"><g id="_x34_4_Identity"><g><path d="m493.619 333.074c-4.233 0-7.665 3.432-7.665 7.665v4.061c0 4.233 3.432 7.665 7.665 7.665s7.665-3.432 7.665-7.665v-4.061c0-4.233-3.432-7.665-7.665-7.665z"/><path d="m449.623 70.926h-387.167c-28.531 0-51.74 23.209-51.74 51.74v266.744c0 28.49 23.209 51.665 51.74 51.665h387.167c28.486 0 51.661-23.175 51.661-51.665v-9.581c0-4.233-3.432-7.665-7.665-7.665s-7.665 3.432-7.665 7.665v9.581c0 20.035-16.3 36.334-36.331 36.334h-387.167c-20.076 0-36.409-16.3-36.409-36.334v-266.745c0-20.076 16.333-36.409 36.409-36.409h387.167c20.031 0 36.331 16.333 36.331 36.409v183.042c0 4.233 3.432 7.665 7.665 7.665s7.665-3.432 7.665-7.665v-183.042c0-28.531-23.175-51.739-51.661-51.739z"/><path d="m294.509 139.878h40.519c4.233 0 7.665-3.432 7.665-7.665s-3.432-7.665-7.665-7.665h-40.519c-4.233 0-7.665 3.432-7.665 7.665s3.432 7.665 7.665 7.665z"/><path d="m439.993 170.392h-145.484c-4.233 0-7.665 3.432-7.665 7.665s3.432 7.665 7.665 7.665h145.484c4.233 0 7.665-3.432 7.665-7.665s-3.432-7.665-7.665-7.665z"/><path d="m439.993 216.237h-145.484c-4.233 0-7.665 3.432-7.665 7.665s3.432 7.665 7.665 7.665h145.484c4.233 0 7.665-3.432 7.665-7.665s-3.432-7.665-7.665-7.665z"/><path d="m294.509 277.408h40.519c4.233 0 7.665-3.432 7.665-7.665s-3.432-7.665-7.665-7.665h-40.519c-4.233 0-7.665 3.432-7.665 7.665s3.432 7.665 7.665 7.665z"/><path d="m439.993 307.923h-145.484c-4.233 0-7.665 3.432-7.665 7.665s3.432 7.665 7.665 7.665h145.484c4.233 0 7.665-3.432 7.665-7.665s-3.432-7.665-7.665-7.665z"/><path d="m72.067 387.464h367.926c4.233 0 7.665-3.432 7.665-7.665s-3.432-7.665-7.665-7.665h-367.926c-4.233 0-7.665 3.432-7.665 7.665s3.432 7.665 7.665 7.665z"/><path d="m72.067 323.253h168.824c4.233 0 7.665-3.432 7.665-7.665v-183.334c0-4.233-3.432-7.665-7.665-7.665h-168.824c-4.233 0-7.665 3.432-7.665 7.665v183.334c0 4.233 3.432 7.665 7.665 7.665zm7.665-183.334h153.493v168.004h-153.493z"/><path d="m156.481 216.338c14.623 0 26.521-11.898 26.521-26.521s-11.898-26.521-26.521-26.521c-14.627 0-26.525 11.898-26.525 26.521s11.898 26.521 26.525 26.521zm0-37.712c6.172 0 11.191 5.019 11.191 11.191s-5.019 11.191-11.191 11.191-11.195-5.019-11.195-11.191 5.023-11.191 11.195-11.191z"/><path d="m156.481 224.905c-24.006 0-43.539 19.53-43.539 43.535 0 2.968 1.714 5.67 4.401 6.935 25.966 12.216 52.304 12.217 78.272 0 2.687-1.265 4.401-3.967 4.401-6.935 0-24.005-19.529-43.535-43.535-43.535zm-27.794 38.704c2.298-13.261 13.886-23.373 27.794-23.373 13.904 0 25.492 10.113 27.79 23.373-18.658 7.519-36.934 7.512-55.584 0z"/></g></g></svg>