<svg enable-background="new 0 0 512 512" height="512" viewBox="0 0 512 512" width="512" xmlns="http://www.w3.org/2000/svg"><g id="_x34_5_Gaming_Token"><g><path d="m438.898 183.559c-3.926-1.52-8.384.427-9.918 4.379-.513 1.329-1.029 2.654-1.546 3.911-1.617 3.911.247 8.395 4.162 10.008.954.397 1.946.584 2.919.584 3.013 0 5.869-1.789 7.089-4.746.561-1.355 1.115-2.785 1.673-4.218 1.527-3.948-.43-8.387-4.379-9.918z"/><path d="m455.112 157.656c5.109-19.159 7.923-37.064 7.923-50.422 0-53.21-43.221-96.503-96.349-96.503-25.436 0-49.471 9.784-67.714 27.591-6.943 6.872-15.506 10.659-24.114 10.659h-37.716c-8.56 0-17.097-3.788-24.066-10.686-18.122-17.774-42.106-27.565-67.53-27.565-53.255 0-96.581 43.292-96.581 96.503 0 50.504 40.785 169.325 96.581 169.325 41.312 0 69.121-62.504 79.14-89.332 11.054-29.008 51.927-28.716 62.758-.056 9.993 26.877 37.712 89.388 79.241 89.388 19.563 0 39.119-14.765 56.553-42.701 2.242-3.589 1.149-8.32-2.444-10.558-3.586-2.249-8.324-1.149-10.558 2.444-10.105 16.187-25.862 35.485-43.55 35.485-21.809 0-46.664-30.425-64.884-79.44-15.827-41.865-75.388-42.165-91.461.026-18.294 48.985-43.124 79.413-64.794 79.413-41.967 0-81.251-105.889-81.251-153.995 0-44.759 36.45-81.172 81.251-81.172 21.386 0 41.556 8.23 56.77 23.153 9.832 9.735 22.202 15.098 34.826 15.098h37.716c12.673 0 25.069-5.363 34.86-15.057 15.323-14.956 35.556-23.194 56.968-23.194 44.673 0 81.019 36.413 81.019 81.172 0 12.063-2.631 28.565-7.407 46.47-1.089 4.091 1.34 8.29 5.431 9.383 4.101 1.094 8.289-1.342 9.382-5.429z"/><path d="m153.2 76.409c0-4.233-3.432-7.665-7.665-7.665s-7.665 3.432-7.665 7.665v5.543c0 4.233 3.432 7.665 7.665 7.665s7.665-3.432 7.665-7.665z"/><path d="m145.535 124.791c-4.233 0-7.665 3.432-7.665 7.665v5.543c0 4.233 3.432 7.665 7.665 7.665s7.665-3.432 7.665-7.665v-5.543c0-4.233-3.432-7.665-7.665-7.665z"/><path d="m170.787 99.539c-4.233 0-7.665 3.432-7.665 7.665s3.432 7.665 7.665 7.665h5.543c4.233 0 7.665-3.432 7.665-7.665s-3.432-7.665-7.665-7.665z"/><path d="m114.74 99.539c-4.233 0-7.665 3.432-7.665 7.665s3.432 7.665 7.665 7.665h5.543c4.233 0 7.665-3.432 7.665-7.665s-3.432-7.665-7.665-7.665z"/><path d="m366.618 159.389c4.233 0 7.665-3.432 7.665-7.665v-29.889h29.893c4.233 0 7.665-3.432 7.665-7.665s-3.432-7.665-7.665-7.665h-29.893v-30.096c0-4.233-3.432-7.665-7.665-7.665s-7.665 3.432-7.665 7.665v30.095h-29.889c-4.233 0-7.665 3.432-7.665 7.665s3.432 7.665 7.665 7.665h29.889v29.889c0 4.234 3.432 7.666 7.665 7.666z"/><path d="m259.861 262.247c-2.373-1.37-5.292-1.37-7.665 0l-97.307 56.178c-2.373 1.37-3.833 3.9-3.833 6.64v112.357c0 2.74 1.46 5.27 3.833 6.64l97.307 56.182c1.186.685 2.508 1.026 3.833 1.026s2.646-.341 3.833-1.026l97.307-56.182c2.373-1.37 3.833-3.9 3.833-6.64v-112.357c0-2.74-1.46-5.27-3.833-6.64zm85.809 170.751-89.642 51.755-89.642-51.755v-103.509l89.642-51.751 89.642 51.751z"/><path d="m249.665 328.968-32.274 47.997c-1.737 2.586-1.737 5.97 0 8.556l32.274 47.997c3.035 4.509 9.686 4.515 12.725 0l32.274-47.997c1.737-2.586 1.737-5.97 0-8.556l-32.274-47.997c-2.851-4.236-9.873-4.236-12.725 0zm29.4 52.275-23.037 34.261-23.037-34.261 23.037-34.261z"/></g></g></svg>