<svg enable-background="new 0 0 512 512" height="512" viewBox="0 0 512 512" width="512" xmlns="http://www.w3.org/2000/svg"><g id="_x34_6_Ethereum"><g><path d="m493.993 259.234c-4.237-.292-7.875 2.938-8.137 7.167l-.232 4.132c-.232 4.229 3.009 7.841 7.238 8.069.135.007.277.011.419.011 4.042 0 7.426-3.166 7.65-7.25l.225-3.997c.27-4.225-2.942-7.867-7.163-8.132z"/><path d="m490.048 298.48c-4.132-.895-8.219 1.752-9.095 5.895-22.494 105.212-117.05 181.579-224.841 181.579-126.796 0-229.954-103.158-229.954-229.954s103.158-229.954 229.954-229.954c118.525 0 216.876 88.811 228.763 206.58.427 4.207 4.132 7.332 8.399 6.857 4.214-.427 7.283-4.184 6.857-8.399-12.688-125.628-117.59-220.368-244.019-220.368-135.248 0-245.284 110.033-245.284 245.284s110.036 245.284 245.284 245.284c114.977 0 215.844-81.464 239.827-193.705.891-4.14-1.752-8.212-5.891-9.099z"/><path d="m256.142 72.007c-101.436 0-183.963 82.527-183.963 183.963s82.527 183.963 183.963 183.963 183.963-82.527 183.963-183.963-82.528-183.963-183.963-183.963zm0 352.596c-92.984 0-168.633-75.648-168.633-168.633s75.648-168.633 168.633-168.633 168.633 75.648 168.633 168.633-75.649 168.633-168.633 168.633z"/><path d="m323.466 252.119-60.7-104.497c-2.74-4.723-10.51-4.723-13.249 0l-60.7 104.497c-1.037 2.438-1.619 4.919 0 7.703l60.7 104.493c2.942 5.072 10.299 5.086 13.249 0l60.7-104.493c1.666-2.866.969-5.304 0-7.703zm-67.324-85.387 50.141 86.319-50.141 27.715-50.142-27.715zm0 178.472-40.153-69.121 36.448 20.147c1.153.64 2.425.958 3.705.958s2.553-.318 3.705-.958l36.448-20.147z"/></g></g></svg>