<svg enable-background="new 0 0 512 512" height="512" viewBox="0 0 512 512" width="512" xmlns="http://www.w3.org/2000/svg"><g id="_x34_7_Folder"><g><path d="m493.619 373.391c-4.237 0-7.665 3.432-7.665 7.665v3.986c0 4.233 3.428 7.665 7.665 7.665s7.665-3.432 7.665-7.665v-3.986c0-4.233-3.428-7.665-7.665-7.665z"/><path d="m68.055 487.6h375.973c31.574 0 57.256-25.72 57.256-57.335v-10.195c0-4.233-3.428-7.665-7.665-7.665s-7.665 3.432-7.665 7.665v10.195c0 23.16-18.811 42.005-41.926 42.005h-375.973c-23.16 0-42.008-18.845-42.008-42.005v-348.53c0-23.16 18.848-42.005 42.008-42.005h119.266c18.302 0 33.191 14.922 33.191 33.265 0 12.871 5.038 25.05 14.237 34.343 9.23 9.144 21.408 14.177 34.283 14.177h174.995c23.115 0 41.926 18.807 41.926 41.926v182.586c0 4.233 3.428 7.665 7.665 7.665s7.665-3.432 7.665-7.665v-182.585c0-31.57-25.683-57.256-57.256-57.256h-174.995c-18.41 0-33.191-14.96-33.191-33.191 0-26.794-21.768-48.596-48.521-48.596h-119.265c-31.619 0-57.339 25.72-57.339 57.335v348.531c0 31.615 25.72 57.335 57.339 57.335z"/><path d="m133.927 296.841c0 67.373 54.779 122.185 122.103 122.185s122.103-54.812 122.103-122.185c0-67.328-54.779-122.103-122.103-122.103s-122.103 54.775-122.103 122.103zm228.876 0c0 58.922-47.9 106.855-106.773 106.855s-106.773-47.933-106.773-106.855c0-58.873 47.9-106.773 106.773-106.773s106.773 47.899 106.773 106.773z"/><path d="m221.335 267.797c-4.237 0-7.665 3.432-7.665 7.665v17.13l-13.96-21.33c-1.856-2.83-5.345-4.11-8.608-3.148-3.249.969-5.472 3.956-5.472 7.347v42.836c0 4.233 3.428 7.665 7.665 7.665s7.665-3.432 7.665-7.665v-17.13l13.96 21.33c1.445 2.201 3.877 3.466 6.415 3.466.726 0 1.467-.105 2.193-.318 3.249-.969 5.472-3.956 5.472-7.347v-42.836c0-4.233-3.428-7.665-7.665-7.665z"/><path d="m288.315 283.127h7.56v35.17c0 4.233 3.428 7.665 7.665 7.665s7.665-3.432 7.665-7.665v-35.17h7.56c4.237 0 7.665-3.432 7.665-7.665s-3.428-7.665-7.665-7.665h-30.451c-4.237 0-7.665 3.432-7.665 7.665s3.429 7.665 7.666 7.665z"/><path d="m238.656 275.462v42.836c0 4.233 3.428 7.665 7.665 7.665s7.665-3.432 7.665-7.665v-13.751h13.781c4.237 0 7.665-3.432 7.665-7.665s-3.428-7.665-7.665-7.665h-13.781v-6.089h13.781c4.237 0 7.665-3.432 7.665-7.665s-3.428-7.665-7.665-7.665h-21.446c-4.236-.001-7.665 3.431-7.665 7.664z"/></g></g></svg>