<svg enable-background="new 0 0 512 512" height="512" viewBox="0 0 512 512" width="512" xmlns="http://www.w3.org/2000/svg"><g id="_x34_8_Nft_Growth"><g><path d="m413.844 297.624 2.605-3.069c2.74-3.226 2.343-8.062-.883-10.802-3.241-2.743-8.069-2.335-10.809.883l-2.605 3.069c-2.74 3.226-2.343 8.062.883 10.802 3.255 2.758 8.078 2.326 10.809-.883z"/><path d="m152.34 372.06c1.22.734 2.582 1.089 3.937 1.089 2.006 0 3.997-.79 5.479-2.302l79.818-81.558 103.307 78.388c3.256 2.47 7.845 1.961 10.48-1.145l35.721-42.08c2.74-3.226 2.343-8.062-.883-10.802-3.241-2.747-8.069-2.339-10.809.883l-31.02 36.548-102.91-78.088c-3.077-2.343-7.418-2.029-10.113.741l-80.319 82.067-94.077-56.321 87.116 17.86c2.702.55 5.427-.363 7.238-2.38l83.927-93.202 95.155 75.974c1.654 1.325 3.75 1.901 5.876 1.598 2.096-.299 3.967-1.456 5.187-3.189l60.55-86.385c1.228-1.755 1.669-3.949 1.205-6.045s-1.782-3.904-3.638-4.982l-23.968-13.919 100.927-24.826 4.671 92.981-28.37-19.159c-3.241-2.201-7.613-1.587-10.135 1.396l-19.163 22.61c-2.74 3.23-2.343 8.066.891 10.802 3.234 2.755 8.077 2.332 10.802-.891l14.724-17.366 35.384 23.901c2.395 1.621 5.509 1.752 8.054.326 2.53-1.426 4.035-4.162 3.892-7.063l-5.899-117.585c-.12-2.283-1.243-4.398-3.084-5.764-1.834-1.37-4.192-1.83-6.408-1.295l-128.391 31.581c-3.032.749-5.307 3.264-5.756 6.355-.442 3.095 1.04 6.149 3.743 7.718l33.168 19.264-51.073 72.867-94.422-75.39c-3.151-2.526-7.755-2.163-10.48.861l-85.828 95.309-126.924-26.02c-3.623-.764-7.336 1.243-8.683 4.731-1.355 3.481 0 7.433 3.204 9.353z"/><path d="m498.849 493.613c0-4.233-3.428-7.665-7.665-7.665h-41.013v-173.02c0-4.233-3.428-7.665-7.665-7.665s-7.665 3.432-7.665 7.665v173.019h-80.222v-74.6c0-4.233-3.428-7.665-7.665-7.665s-7.665 3.432-7.665 7.665v74.6h-80.214v-159.193c0-4.233-3.428-7.665-7.665-7.665s-7.665 3.432-7.665 7.665v159.193h-80.222v-75.764c0-4.233-3.428-7.665-7.665-7.665s-7.665 3.432-7.665 7.665v75.764h-80.215v-137.92c0-4.233-3.428-7.665-7.665-7.665s-7.665 3.432-7.665 7.665v137.92h-27.943c-4.237 0-7.665 3.432-7.665 7.665s3.428 7.665 7.665 7.665h466.479c4.237.001 7.665-3.431 7.665-7.664z"/><path d="m137.458 15.336c-10.644-6.153-23.864-6.149-34.508-.004l-73.035 42.17c-10.645 6.145-17.254 17.594-17.254 29.882v84.328c0 12.287 6.61 23.74 17.254 29.889l73.036 42.162c5.322 3.077 11.288 4.611 17.254 4.611s11.932-1.535 17.254-4.607l73.036-42.169c10.644-6.146 17.254-17.598 17.254-29.886v-84.328c0-12.287-6.61-23.736-17.254-29.886zm74.96 156.375c0 6.83-3.675 13.197-9.589 16.61l-73.036 42.169c-5.914 3.413-13.264 3.417-19.178-.004l-73.035-42.161c-5.914-3.417-9.589-9.784-9.589-16.614v-84.327c0-6.827 3.675-13.193 9.589-16.607l73.036-42.169c2.957-1.707 6.273-2.564 9.589-2.564s6.632.857 9.589 2.568l73.036 42.162c5.914 3.417 9.589 9.784 9.589 16.61v84.327z"/><path d="m89.821 103.129c-4.237 0-7.665 3.432-7.665 7.665v11.805l-10.472-16.004c-4.15-6.326-14.08-3.42-14.08 4.199v37.51c0 4.233 3.428 7.665 7.665 7.665s7.665-3.432 7.665-7.665v-11.804l10.472 16.004c4.155 6.33 14.08 3.436 14.08-4.199v-37.51c0-4.234-3.428-7.666-7.665-7.666z"/><path d="m175.14 103.129h-26.663c-4.237 0-7.665 3.432-7.665 7.665s3.428 7.665 7.665 7.665h5.667v29.845c0 4.233 3.428 7.665 7.665 7.665s7.665-3.432 7.665-7.665v-29.844h5.666c4.237 0 7.665-3.432 7.665-7.665s-3.428-7.666-7.665-7.666z"/><path d="m130.482 118.46c4.237 0 7.665-3.432 7.665-7.665s-3.428-7.665-7.665-7.665h-18.774c-4.237 0-7.665 3.432-7.665 7.665v37.51c0 4.233 3.428 7.665 7.665 7.665s7.665-3.432 7.665-7.665v-11.09h11.108c4.237 0 7.665-3.432 7.665-7.665s-3.428-7.665-7.665-7.665h-11.108v-3.425z"/></g></g></svg>