<svg enable-background="new 0 0 512 512" height="512" viewBox="0 0 512 512" width="512" xmlns="http://www.w3.org/2000/svg"><g id="_x34_9_Nft_Data"><g><path d="m415.586 390.525c-4.237 0-7.665 3.432-7.665 7.665v3.982c0 4.233 3.428 7.665 7.665 7.665s7.665-3.432 7.665-7.665v-3.982c.001-4.233-3.428-7.665-7.665-7.665z"/><path d="m127.074 501.284h257.852c21.131 0 38.326-17.194 38.326-38.326v-25.754c0-4.233-3.428-7.665-7.665-7.665s-7.665 3.432-7.665 7.665v25.754c0 12.68-10.315 22.995-22.995 22.995h-257.853c-12.68 0-22.995-10.315-22.995-22.995v-413.916c0-12.68 10.315-22.995 22.995-22.995h175.557v66.886c0 21.131 17.194 38.326 38.326 38.326h66.965v231.9c0 4.233 3.428 7.665 7.665 7.665s7.665-3.432 7.665-7.665v-239.536c0-1.747-.831-4.068-2.216-5.453l-105.321-105.242c-1.409-1.407-3.764-2.212-5.449-2.212h-183.192c-21.131 0-38.326 17.194-38.326 38.326v413.917c0 21.131 17.195 38.325 38.326 38.325zm190.887-408.351v-56.025l79.08 79.02h-56.084c-12.681 0-22.996-10.315-22.996-22.995z"/><path d="m209.235 240.793v-67.227c0-4.233-3.428-7.665-7.665-7.665s-7.665 3.432-7.665 7.665v41.518l-29.919-45.718c-1.856-2.833-5.33-4.095-8.608-3.148-3.249.969-5.472 3.956-5.472 7.347v67.227c0 4.233 3.428 7.665 7.665 7.665s7.665-3.432 7.665-7.665v-41.518l29.919 45.717c4.155 6.331 14.08 3.437 14.08-4.198z"/><path d="m362.148 173.566c0-4.233-3.428-7.665-7.665-7.665h-47.787c-4.237 0-7.665 3.432-7.665 7.665s3.428 7.665 7.665 7.665h16.228v59.562c0 4.233 3.428 7.665 7.665 7.665s7.665-3.432 7.665-7.665v-59.562h16.228c4.237 0 7.666-3.432 7.666-7.665z"/><path d="m274.448 181.231c4.237 0 7.665-3.432 7.665-7.665s-3.428-7.665-7.665-7.665h-33.655c-4.237 0-7.665 3.432-7.665 7.665v67.227c0 4.233 3.428 7.665 7.665 7.665s7.665-3.432 7.665-7.665v-25.948h25.99c4.237 0 7.665-3.432 7.665-7.665s-3.428-7.665-7.665-7.665h-25.99v-18.283h25.99z"/><path d="m344.894 347.42c0-40.044-32.577-72.624-72.624-72.624-4.237 0-7.665 3.432-7.665 7.665v64.963c0 4.233 3.428 7.665 7.665 7.665h64.959c4.236 0 7.665-3.436 7.665-7.669zm-64.959-7.661v-49.123c25.473 3.425 45.699 23.65 49.12 49.123z"/><path d="m239.783 452.531c40.047 0 72.632-32.581 72.632-72.628 0-4.233-3.428-7.665-7.665-7.665h-57.301v-57.294c0-4.233-3.428-7.665-7.665-7.665-40.047 0-72.624 32.581-72.624 72.624-.001 40.048 32.575 72.628 72.623 72.628zm-7.665-129.413v56.785c0 4.233 3.428 7.665 7.665 7.665h56.792c-3.758 27.981-27.794 49.632-56.792 49.632-31.589 0-57.294-25.705-57.294-57.298 0-28.99 21.648-53.022 49.629-56.784z"/></g></g></svg>