<svg enable-background="new 0 0 512 512" height="512" viewBox="0 0 512 512" width="512" xmlns="http://www.w3.org/2000/svg"><g id="_x35_0_Picture"><g><path d="m493.619 354c-4.237 0-7.665 3.432-7.665 7.665v4.061c0 4.233 3.428 7.665 7.665 7.665s7.665-3.432 7.665-7.665v-4.061c0-4.233-3.428-7.665-7.665-7.665z"/><path d="m56.707 469.819h398.586c25.361 0 45.991-20.63 45.991-45.991v-23.074c0-4.233-3.428-7.665-7.665-7.665s-7.665 3.432-7.665 7.665v23.074c0 16.906-13.751 30.66-30.66 30.66h-398.587c-16.91 0-30.66-13.755-30.66-30.66v-335.656c0-16.906 13.751-30.66 30.66-30.66h398.586c16.91 0 30.66 13.755 30.66 30.66v238.461c0 4.233 3.428 7.665 7.665 7.665s7.665-3.432 7.665-7.665v-238.461c0-25.361-20.63-45.991-45.991-45.991h-398.585c-25.361 0-45.991 20.63-45.991 45.991v335.656c0 25.361 20.63 45.991 45.991 45.991z"/><path d="m72.067 95.871c-4.237 0-7.665 3.432-7.665 7.665v304.943c0 4.233 3.428 7.665 7.665 7.665h367.926c4.237 0 7.665-3.432 7.665-7.665v-304.943c0-4.233-3.428-7.665-7.665-7.665zm360.261 304.943h-352.596v-289.613h352.596z"/><path d="m154.901 296.122c13.185 43.986 54.472 75.171 101.002 75.227.035 0 .069.006.104.006h.01.012c46.582 0 87.932-31.207 101.129-75.233 17.658 1.591 33.288-12.606 33.288-30.346 0-17.744-15.622-31.993-33.288-30.35-10.977-36.622-41.452-64.303-78.2-72.602 2.671-4.208 4.273-9.16 4.273-14.503 0-4.233-3.428-7.665-7.665-7.665s-7.665 3.432-7.665 7.665c0 3.612-1.654 6.812-4.207 8.991v-2.048c0-4.233-3.428-7.665-7.665-7.665s-7.665 3.432-7.665 7.665v2.048c-2.553-2.179-4.207-5.379-4.207-8.991 0-4.233-3.428-7.665-7.665-7.665s-7.665 3.432-7.665 7.665c0 5.343 1.602 10.295 4.273 14.503-36.748 8.299-67.222 35.98-78.2 72.602-17.808-1.647-33.288 12.606-33.288 30.35.001 17.741 15.489 31.944 33.289 30.346zm71 17.61c.778-2.253.457-4.742-.861-6.726-1.317-1.987-3.481-3.249-5.861-3.41-16.61-1.134-29.62-15.083-29.62-31.757 0-17.572 14.282-31.869 31.836-31.869 11.61 0 22.314 6.329 27.928 16.517 2.695 4.896 10.734 4.896 13.429 0 5.614-10.188 16.303-16.517 27.891-16.517 17.576 0 31.873 14.297 31.873 31.869 0 16.67-13.04 30.619-29.687 31.757-2.388.161-4.566 1.433-5.884 3.436-1.31 1.999-1.617 4.503-.823 6.759 7.144 20.28-8.025 42.228-30.107 42.233-.008 0-.016-.002-.024-.002-21.723-.011-37.215-21.451-30.09-42.29zm-73.814-63.107c1.894 0 3.788.363 5.464 1.044 4.362 1.782 9.343-.777 10.375-5.453 9.005-40.964 46.058-70.693 88.104-70.693s79.099 29.729 88.104 70.693c.487 2.204 1.916 4.087 3.915 5.139 2.006 1.044 4.364 1.16 6.46.314 1.677-.681 3.571-1.044 5.464-1.044 8.346 0 15.143 6.797 15.143 15.151s-6.797 15.147-15.143 15.147c-1.894 0-3.788-.363-5.464-1.044-2.088-.85-4.446-.734-6.46.314-1.999 1.052-3.428 2.934-3.915 5.139-5.789 26.334-23.2 47.97-46.047 60.105 4.476-8.817 6.007-18.549 4.637-28.007 20.278-5.382 35.122-23.935 35.122-45.59 0-26.027-21.176-47.2-47.203-47.2-13.294 0-25.787 5.614-34.605 15.147-8.825-9.533-21.326-15.147-34.643-15.147-26.005 0-47.166 21.173-47.166 47.2 0 21.663 14.836 40.223 35.092 45.598-1.374 9.491.176 19.205 4.63 27.987-22.835-12.137-40.237-33.766-46.024-60.092-1.035-4.688-6.018-7.227-10.375-5.453-1.677.681-3.571 1.044-5.464 1.044-8.346 0-15.143-6.793-15.143-15.147s6.795-15.152 15.142-15.152z"/><path d="m265.821 339.785c4.237 0 7.665-3.432 7.665-7.665s-3.428-7.665-7.665-7.665h-19.604c-4.237 0-7.665 3.432-7.665 7.665s3.428 7.665 7.665 7.665z"/><path d="m223.109 260.181c-7.994 0-14.492 6.501-14.492 14.492 0 4.233 3.428 7.665 7.665 7.665 2.979 0 5.554-1.695 6.827-4.177 1.273 2.481 3.848 4.177 6.827 4.177 4.237 0 7.665-3.432 7.665-7.665 0-7.991-6.498-14.492-14.492-14.492z"/><path d="m282.139 282.338c2.979 0 5.554-1.695 6.827-4.177 1.273 2.481 3.848 4.177 6.827 4.177 4.237 0 7.665-3.432 7.665-7.665 0-7.991-6.497-14.492-14.492-14.492s-14.492 6.501-14.492 14.492c0 4.233 3.428 7.665 7.665 7.665z"/></g></g></svg>