<svg enable-background="new 0 0 512 512" height="512" viewBox="0 0 512 512" width="512" xmlns="http://www.w3.org/2000/svg"><g id="_x35_1_Exchange_Nft"><g><path d="m266.334 374.596c0 1.011-.135 2.073-.254 3.084-.494 4.207 2.511 8.017 6.714 8.511.307.037.61.052.909.052 3.833 0 7.141-2.867 7.602-6.767.187-1.594.359-3.286.359-4.881 0-4.237-3.432-7.665-7.665-7.665s-7.665 3.429-7.665 7.666z"/><path d="m10.701 365.554c0 74.855 60.864 135.749 135.674 135.749 55.505 0 104.868-33.258 125.76-84.736 1.591-3.922-.299-8.391-4.222-9.986-3.934-1.594-8.395.299-9.986 4.222-18.53 45.661-62.32 75.169-111.552 75.169-66.359 0-120.344-54.023-120.344-120.419 0-66.359 53.985-120.344 120.344-120.344 56.818 0 106.398 40.332 117.892 95.904.857 4.147 4.881 6.797 9.061 5.958 4.143-.861 6.812-4.918 5.955-9.057-12.961-62.661-68.855-108.135-132.908-108.135-74.809 0-135.674 60.865-135.674 135.675z"/><path d="m99.909 341.63v22.202l-17.284-26.401c-4.18-6.387-14.076-3.359-14.076 4.199v47.9c0 4.237 3.432 7.665 7.665 7.665s7.665-3.428 7.665-7.665v-22.202l17.284 26.401c4.138 6.32 14.076 3.451 14.076-4.199v-47.9c0-4.237-3.432-7.665-7.665-7.665s-7.665 3.428-7.665 7.665z"/><path d="m199.507 397.195c4.233 0 7.665-3.428 7.665-7.665v-40.234h9.364c4.233 0 7.665-3.428 7.665-7.665s-3.432-7.665-7.665-7.665h-34.055c-4.233 0-7.665 3.428-7.665 7.665s3.432 7.665 7.665 7.665h9.361v40.234c0 4.236 3.432 7.665 7.665 7.665z"/><path d="m159.505 349.295c4.233 0 7.665-3.428 7.665-7.665s-3.432-7.665-7.665-7.665h-23.983c-4.233 0-7.665 3.428-7.665 7.665v47.9c0 4.237 3.432 7.665 7.665 7.665s7.665-3.428 7.665-7.665v-16.281h16.318c4.233 0 7.665-3.428 7.665-7.665s-3.432-7.665-7.665-7.665h-16.318v-8.623h16.318z"/><path d="m365.655 10.697c-74.795 0-135.644 60.849-135.644 135.644 0 74.847 60.849 135.734 135.644 135.734s135.644-60.887 135.644-135.734c0-74.794-60.85-135.644-135.644-135.644zm0 256.048c-66.34 0-120.314-54.015-120.314-120.404 0-66.344 53.974-120.314 120.314-120.314s120.314 53.97 120.314 120.314c0 66.389-53.974 120.404-120.314 120.404z"/><path d="m365.655 373.249c4.233 0 7.665-3.428 7.665-7.665v-52.526c0-4.237-3.432-7.665-7.665-7.665s-7.665 3.428-7.665 7.665v44.86h-37.244c-4.233 0-7.665 3.428-7.665 7.665s3.432 7.665 7.665 7.665h44.909z"/><path d="m146.375 138.721c-4.233 0-7.665 3.428-7.665 7.665v52.526c0 4.237 3.432 7.665 7.665 7.665s7.665-3.428 7.665-7.665v-44.86h37.244c4.233 0 7.665-3.428 7.665-7.665s-3.432-7.665-7.665-7.665h-44.909z"/><path d="m420.111 142.255-48-75.005c-2.815-4.401-10.098-4.401-12.912 0l-48.001 75.004c-1.631 2.557-1.415 6.047 0 8.264l48.001 75.004c1.407 2.201 3.844 3.533 6.456 3.533s5.049-1.332 6.456-3.533l48.001-75.004c1.429-2.235 1.628-5.71-.001-8.263zm-54.456-56.65 36.957 57.749-36.957 18.543-36.957-18.543zm0 121.564-26.508-41.421 23.068 11.576c1.082.546 2.261.816 3.44.816s2.358-.269 3.44-.816l23.068-11.576z"/></g></g></svg>