<svg enable-background="new 0 0 512 512" height="512" viewBox="0 0 512 512" width="512" xmlns="http://www.w3.org/2000/svg"><g id="_x35_2_Nft_Effect"><g><path d="m397.625 238.634c-4.233 0-7.665 3.428-7.665 7.665v4.065c0 4.237 3.432 7.665 7.665 7.665s7.665-3.428 7.665-7.665v-4.065c0-4.237-3.432-7.665-7.665-7.665z"/><path d="m133.474 154.355c-16.543 9.574-26.82 27.359-26.82 46.417v110.448c0 19.021 10.266 36.829 26.832 46.5l95.668 55.198c8.294 4.768 17.576 7.156 26.85 7.156s18.542-2.388 26.79-7.164l95.683-55.198c16.539-9.611 26.813-27.419 26.813-46.492v-25.832c0-4.237-3.432-7.665-7.665-7.665s-7.665 3.428-7.665 7.665v25.832c0 13.631-7.351 26.364-19.159 33.221l-95.676 55.198c-11.778 6.812-26.469 6.819-38.322-.007l-95.623-55.168c-11.842-6.917-19.196-19.657-19.196-33.243v-110.449c0-13.609 7.347-26.311 19.163-33.146l95.649-55.258c11.864-6.827 26.547-6.842 38.337-.007l95.676 55.273c11.812 6.797 19.152 19.492 19.152 33.138v10.495c0 4.237 3.432 7.665 7.665 7.665s7.665-3.428 7.665-7.665v-10.495c0-19.11-10.285-36.903-26.828-46.425l-95.658-55.257c-16.505-9.551-37.061-9.559-53.663-.007z"/><path d="m259.833 138.912c-2.373-1.362-5.292-1.362-7.665 0l-95.657 55.22c-2.373 1.37-3.833 3.9-3.833 6.64v110.448c0 2.74 1.46 5.27 3.833 6.64l95.657 55.228c1.186.681 2.508 1.026 3.833 1.026s2.646-.344 3.833-1.026l95.657-55.22c2.373-1.37 3.833-3.9 3.833-6.64v-110.448c0-2.74-1.46-5.27-3.833-6.64zm84.159 167.892-87.992 50.796-87.992-50.804v-101.6l87.992-50.796 87.992 50.804z"/><path d="m221.301 226.919c-4.233 0-7.665 3.428-7.665 7.665v17.134l-13.96-21.334c-4.153-6.334-14.08-3.408-14.08 4.199v42.839c0 4.237 3.432 7.665 7.665 7.665s7.665-3.428 7.665-7.665v-17.134l13.96 21.334c4.155 6.33 14.08 3.436 14.08-4.199v-42.839c0-4.237-3.432-7.665-7.665-7.665z"/><path d="m288.289 242.249h7.56v35.174c0 4.237 3.432 7.665 7.665 7.665s7.665-3.428 7.665-7.665v-35.174h7.56c4.233 0 7.665-3.428 7.665-7.665s-3.432-7.665-7.665-7.665h-30.451c-4.233 0-7.665 3.428-7.665 7.665s3.433 7.665 7.666 7.665z"/><path d="m238.63 234.584v42.839c0 4.237 3.432 7.665 7.665 7.665s7.665-3.428 7.665-7.665v-13.758h13.777c4.233 0 7.665-3.428 7.665-7.665s-3.432-7.665-7.665-7.665h-13.777v-6.086h13.777c4.233 0 7.665-3.428 7.665-7.665s-3.432-7.665-7.665-7.665h-21.442c-4.233 0-7.665 3.428-7.665 7.665z"/><path d="m263.661 54.012v-35.631c0-4.237-3.432-7.665-7.665-7.665s-7.665 3.428-7.665 7.665v35.631c0 4.237 3.432 7.665 7.665 7.665s7.665-3.428 7.665-7.665z"/><path d="m248.331 457.995v35.623c0 4.237 3.432 7.665 7.665 7.665s7.665-3.428 7.665-7.665v-35.623c0-4.237-3.432-7.665-7.665-7.665s-7.665 3.429-7.665 7.665z"/><path d="m418.599 82.562-25.192 25.189c-2.994 2.994-2.994 7.845 0 10.839s7.845 2.994 10.839 0l25.192-25.189c2.994-2.994 2.994-7.845 0-10.839-2.994-2.995-7.844-2.995-10.839 0z"/><path d="m82.554 429.438c2.994 2.994 7.845 2.994 10.839 0l25.192-25.196c2.994-2.994 2.994-7.845 0-10.839s-7.845-2.994-10.839 0l-25.192 25.196c-2.994 2.995-2.994 7.845 0 10.839z"/><path d="m493.615 248.335h-35.627c-4.233 0-7.665 3.428-7.665 7.665s3.432 7.665 7.665 7.665h35.627c4.233 0 7.665-3.428 7.665-7.665s-3.432-7.665-7.665-7.665z"/><path d="m18.385 263.658h35.627c4.233 0 7.665-3.428 7.665-7.665s-3.432-7.665-7.665-7.665h-35.627c-4.233 0-7.665 3.428-7.665 7.665s3.432 7.665 7.665 7.665z"/><path d="m393.411 393.403c-2.994 2.994-2.994 7.845 0 10.839l25.192 25.189c2.994 2.994 7.845 2.994 10.839 0s2.994-7.845 0-10.839l-25.192-25.189c-2.994-2.994-7.845-2.994-10.839 0z"/><path d="m93.404 82.562c-2.994-2.994-7.845-2.994-10.839 0s-2.994 7.845 0 10.839l25.192 25.189c2.994 2.994 7.845 2.994 10.839 0s2.994-7.845 0-10.839z"/></g></g></svg>