<svg enable-background="new 0 0 512 512" height="512" viewBox="0 0 512 512" width="512" xmlns="http://www.w3.org/2000/svg"><g id="_x35_3_Verified_Nft"><g><path d="m377.137 366.919c-4.233 0-7.665 3.428-7.665 7.665v4.065c0 4.237 3.432 7.665 7.665 7.665s7.665-3.428 7.665-7.665v-4.065c0-4.237-3.432-7.665-7.665-7.665z"/><path d="m384.802 173.917c27.154-3.752 48.154-27.054 48.154-55.224s-21-51.472-48.154-55.224v-6.756c0-25.361-20.63-45.991-45.991-45.991-.77 0-228.041-.029-213.778 0-25.361 0-45.991 20.63-45.991 45.991v398.587c0 25.361 20.63 45.991 45.991 45.991h213.778c25.361 0 45.991-20.63 45.991-45.991v-41.627c0-4.237-3.432-7.665-7.665-7.665s-7.665 3.428-7.665 7.665v41.627c0 16.91-13.755 30.66-30.66 30.66h-213.778c-16.906 0-30.66-13.751-30.66-30.66v-398.587c0-16.91 13.755-30.66 30.66-30.66h28.778v18.399c0 12.68 10.315 22.995 22.995 22.995h110.164c12.68 0 22.995-10.315 22.995-22.995v-18.399h28.845c16.906 0 30.66 13.751 30.66 30.66v6.758c-27.189 3.757-48.214 27.056-48.214 55.222s21.025 51.465 48.214 55.222v165.637c0 4.237 3.432 7.665 7.665 7.665s7.665-3.428 7.665-7.665v-165.635zm-90.166-129.465c0 4.229-3.44 7.665-7.665 7.665h-110.164c-4.226 0-7.665-3.436-7.665-7.665v-18.399h125.494zm41.953 74.241c0-22.277 18.124-40.395 40.429-40.468.043 0 .077.024.12.024.045 0 .082-.024.127-.026 22.263.065 40.362 18.188 40.362 40.47 0 22.322-18.16 40.481-40.478 40.481-22.367 0-40.56-18.159-40.56-40.481z"/><path d="m171.081 447.597c-4.233 0-7.665 3.428-7.665 7.665s3.432 7.665 7.665 7.665h121.62c4.233 0 7.665-3.428 7.665-7.665s-3.432-7.665-7.665-7.665z"/><path d="m337.711 255.939c0-58.349-47.473-105.822-105.822-105.822s-105.822 47.473-105.822 105.822c0 58.387 47.473 105.889 105.822 105.889s105.822-47.502 105.822-105.889zm-105.822 90.559c-49.898 0-90.492-40.624-90.492-90.559 0-49.898 40.594-90.492 90.492-90.492s90.492 40.594 90.492 90.492c0 49.936-40.594 90.559-90.492 90.559z"/><path d="m202.127 229.935c-4.233 0-7.665 3.428-7.665 7.665v11.041l-9.971-15.24c-4.184-6.382-14.08-3.363-14.08 4.199v36.746c0 4.237 3.432 7.665 7.665 7.665s7.665-3.428 7.665-7.665v-11.041l9.971 15.24c4.155 6.33 14.08 3.436 14.08-4.199v-36.746c0-4.237-3.432-7.665-7.665-7.665z"/><path d="m285.702 229.935h-26.121c-4.233 0-7.665 3.428-7.665 7.665s3.432 7.665 7.665 7.665h5.397v29.081c0 4.237 3.432 7.665 7.665 7.665s7.665-3.428 7.665-7.665v-29.081h5.393c4.233 0 7.665-3.428 7.665-7.665.001-4.237-3.431-7.665-7.664-7.665z"/><path d="m241.957 245.265c4.233 0 7.665-3.428 7.665-7.665s-3.432-7.665-7.665-7.665h-18.392c-4.233 0-7.665 3.428-7.665 7.665v36.746c0 4.237 3.432 7.665 7.665 7.665s7.665-3.428 7.665-7.665v-10.712h10.727c4.233 0 7.665-3.428 7.665-7.665s-3.432-7.665-7.665-7.665h-10.727v-3.039z"/><path d="m395.477 103.49c-2.994-2.994-7.845-2.994-10.839 0l-14.151 14.148-.906-.906c-2.994-2.994-7.845-2.994-10.839 0s-2.994 7.845 0 10.839l6.325 6.325c1.497 1.497 3.458 2.246 5.419 2.246s3.922-.749 5.419-2.246l19.571-19.567c2.995-2.994 2.995-7.845.001-10.839z"/></g></g></svg>