<svg enable-background="new 0 0 512 512" height="512" viewBox="0 0 512 512" width="512" xmlns="http://www.w3.org/2000/svg"><g id="_x35_4_Nft_Coding"><g><path d="m473.511 385.63c-4.233 0-7.665 3.428-7.665 7.665v4.065c0 4.237 3.432 7.665 7.665 7.665s7.665-3.428 7.665-7.665v-4.065c0-4.237-3.432-7.665-7.665-7.665z"/><path d="m30.772 462.977c0 21.132 17.194 38.326 38.326 38.326h373.752c21.132 0 38.326-17.194 38.326-38.326v-30.586c0-4.237-3.432-7.665-7.665-7.665s-7.665 3.428-7.665 7.665v30.586c0 12.68-10.315 22.995-22.995 22.995h-373.754c-12.68 0-22.995-10.315-22.995-22.995v-325.693h419.744v220.986c0 4.237 3.432 7.665 7.665 7.665s7.665-3.428 7.665-7.665c.019-114.977.033-194.27.052-309.247 0-21.131-17.194-38.326-38.326-38.326h-373.801c-21.131 0-38.326 17.194-38.326 38.326 0 41.736-.003 374.238-.003 413.954zm15.334-413.954c0-12.68 10.315-22.995 22.995-22.995h373.802c12.68 0 22.995 10.315 22.995 22.995v72.901h-419.792z"/><path d="m95.974 66.314h-6.561c-4.233 0-7.665 3.428-7.665 7.665s3.432 7.665 7.665 7.665h6.561c4.233 0 7.665-3.428 7.665-7.665s-3.432-7.665-7.665-7.665z"/><path d="m140.445 66.314h-6.561c-4.233 0-7.665 3.428-7.665 7.665s3.432 7.665 7.665 7.665h6.561c4.233 0 7.665-3.428 7.665-7.665s-3.432-7.665-7.665-7.665z"/><path d="m184.92 66.314h-6.565c-4.233 0-7.665 3.428-7.665 7.665s3.432 7.665 7.665 7.665h6.565c4.233 0 7.665-3.428 7.665-7.665s-3.432-7.665-7.665-7.665z"/><path d="m422.591 66.314h-125.397c-4.233 0-7.665 3.428-7.665 7.665s3.432 7.665 7.665 7.665h125.397c4.233 0 7.665-3.428 7.665-7.665s-3.432-7.665-7.665-7.665z"/><path d="m177.884 249.506v-32.869l24.26 37.068c4.155 6.33 14.08 3.436 14.08-4.199v-58.574c0-4.237-3.432-7.665-7.665-7.665s-7.665 3.428-7.665 7.665v32.869l-24.26-37.068c-4.167-6.342-14.08-3.397-14.08 4.199v58.574c0 4.237 3.432 7.665 7.665 7.665s7.665-3.428 7.665-7.665z"/><path d="m341.785 183.267h-41.634c-4.233 0-7.665 3.428-7.665 7.665s3.432 7.665 7.665 7.665h13.152v50.909c0 4.237 3.432 7.665 7.665 7.665s7.665-3.428 7.665-7.665v-50.909h13.152c4.233 0 7.665-3.428 7.665-7.665s-3.432-7.665-7.665-7.665z"/><path d="m272.054 198.598c4.233 0 7.665-3.428 7.665-7.665s-3.432-7.665-7.665-7.665h-29.324c-4.233 0-7.665 3.428-7.665 7.665v58.574c0 4.237 3.432 7.665 7.665 7.665s7.665-3.428 7.665-7.665v-21.618h21.659c4.233 0 7.665-3.428 7.665-7.665s-3.432-7.665-7.665-7.665h-21.659v-13.96h21.659z"/><path d="m421.446 303.731h-25.091c-4.233 0-7.665 3.428-7.665 7.665s3.432 7.665 7.665 7.665h25.091c4.233 0 7.665-3.428 7.665-7.665s-3.432-7.665-7.665-7.665z"/><path d="m332.844 303.731c-4.233 0-7.665 3.428-7.665 7.665s3.432 7.665 7.665 7.665h9.054c4.233 0 7.665-3.428 7.665-7.665s-3.432-7.665-7.665-7.665z"/><path d="m126.803 311.396c0 4.237 3.432 7.665 7.665 7.665h165.792c4.233 0 7.665-3.428 7.665-7.665s-3.432-7.665-7.665-7.665h-165.792c-4.233 0-7.665 3.428-7.665 7.665z"/><path d="m90.558 319.061h7.841c4.233 0 7.665-3.428 7.665-7.665s-3.432-7.665-7.665-7.665h-7.841c-4.233 0-7.665 3.428-7.665 7.665s3.432 7.665 7.665 7.665z"/><path d="m421.446 424.591h-25.091c-4.233 0-7.665 3.428-7.665 7.665s3.432 7.665 7.665 7.665h25.091c4.233 0 7.665-3.428 7.665-7.665 0-4.236-3.432-7.665-7.665-7.665z"/><path d="m332.844 424.591c-4.233 0-7.665 3.428-7.665 7.665s3.432 7.665 7.665 7.665h9.054c4.233 0 7.665-3.428 7.665-7.665s-3.432-7.665-7.665-7.665z"/><path d="m134.468 439.922h165.792c4.233 0 7.665-3.428 7.665-7.665s-3.432-7.665-7.665-7.665h-165.792c-4.233 0-7.665 3.428-7.665 7.665 0 4.236 3.432 7.665 7.665 7.665z"/><path d="m90.558 424.591c-4.233 0-7.665 3.428-7.665 7.665s3.432 7.665 7.665 7.665h7.841c4.233 0 7.665-3.428 7.665-7.665s-3.432-7.665-7.665-7.665z"/><path d="m123.314 371.826c0-4.237-3.432-7.665-7.665-7.665h-25.091c-4.233 0-7.665 3.428-7.665 7.665s3.432 7.665 7.665 7.665h25.091c4.233.001 7.665-3.428 7.665-7.665z"/><path d="m170.106 364.161c-4.233 0-7.665 3.428-7.665 7.665s3.432 7.665 7.665 7.665h9.054c4.233 0 7.665-3.428 7.665-7.665s-3.432-7.665-7.665-7.665z"/><path d="m385.201 371.826c0-4.237-3.432-7.665-7.665-7.665h-165.792c-4.233 0-7.665 3.428-7.665 7.665s3.432 7.665 7.665 7.665h165.792c4.233.001 7.665-3.428 7.665-7.665z"/><path d="m421.446 364.161h-7.841c-4.233 0-7.665 3.428-7.665 7.665s3.432 7.665 7.665 7.665h7.841c4.233 0 7.665-3.428 7.665-7.665 0-4.236-3.432-7.665-7.665-7.665z"/></g></g></svg>