<svg enable-background="new 0 0 512 512" height="512" viewBox="0 0 512 512" width="512" xmlns="http://www.w3.org/2000/svg"><g id="_x35_5_Nft_Sharing"><g><path d="m398.712 279.575c-4.233 0-7.665 3.428-7.665 7.665v4.065c0 4.237 3.432 7.665 7.665 7.665s7.665-3.428 7.665-7.665v-4.065c0-4.236-3.432-7.665-7.665-7.665z"/><path d="m219.937 142.936c-2.373-1.362-5.292-1.362-7.665 0l-123.316 71.187c-2.373 1.37-3.833 3.9-3.833 6.64v142.381c0 2.74 1.46 5.27 3.833 6.64l123.316 71.194c1.186.681 2.508 1.026 3.833 1.026s2.646-.344 3.833-1.026l123.312-71.187c2.373-1.37 3.833-3.9 3.833-6.64v-142.381c0-2.74-1.46-5.27-3.833-6.64zm111.814 215.791-115.647 66.763-115.651-66.77v-133.534l115.651-66.763 115.647 66.77z"/><path d="m171.375 256.677c-4.233 0-7.665 3.428-7.665 7.665v29.523l-22.067-33.722c-1.864-2.837-5.371-4.117-8.605-3.144-3.249.966-5.476 3.952-5.476 7.343v55.228c0 4.237 3.432 7.665 7.665 7.665s7.665-3.428 7.665-7.665v-29.523l22.067 33.722c4.155 6.33 14.08 3.436 14.08-4.199v-55.228c.001-4.236-3.431-7.665-7.664-7.665z"/><path d="m257.727 272.008h11.962v47.563c0 4.237 3.432 7.665 7.665 7.665s7.665-3.428 7.665-7.665v-47.563h11.962c4.233 0 7.665-3.428 7.665-7.665s-3.432-7.665-7.665-7.665h-39.254c-4.233 0-7.665 3.428-7.665 7.665 0 4.236 3.432 7.665 7.665 7.665z"/><path d="m195.927 264.343v55.228c0 4.237 3.432 7.665 7.665 7.665s7.665-3.428 7.665-7.665v-19.949h19.979c4.233 0 7.665-3.428 7.665-7.665s-3.432-7.665-7.665-7.665h-19.979v-12.284h19.979c4.233 0 7.665-3.428 7.665-7.665s-3.432-7.665-7.665-7.665h-27.644c-4.233-.001-7.665 3.428-7.665 7.665z"/><path d="m486.195 90.35c0-2.073-.842-4.057-2.332-5.502l-74.23-71.958c-2.208-2.148-5.506-2.755-8.32-1.557-2.837 1.198-4.678 3.982-4.678 7.059v31.753c-41.619 3.414-76.922 34.382-83.989 77.84l-63.097-36.408c-20.641-11.917-46.283-11.917-66.916 0l-123.331 71.21c-20.664 11.932-33.497 34.156-33.497 57.997v142.344c0 23.841 12.834 46.066 33.497 57.997l123.331 71.209c10.319 5.958 21.888 8.938 33.456 8.938 11.573 0 23.141-2.979 33.46-8.938l123.331-71.209c20.664-11.932 33.497-34.156 33.497-57.997v-36.791c0-4.237-3.432-7.665-7.665-7.665s-7.665 3.428-7.665 7.665v36.791c0 18.384-9.9 35.519-25.832 44.718l-123.331 71.209c-15.907 9.192-35.672 9.192-51.586 0l-123.33-71.209c-15.933-9.2-25.832-26.334-25.832-44.718v-142.343c0-18.384 9.9-35.519 25.832-44.718l123.331-71.209c15.907-9.192 35.68-9.192 51.586 0l69.428 40.062c.257 11.4 2.606 22.814 7.133 33.67 2.621 6.28 11.515 6.287 14.144.007 2.436-5.82 5.62-11.14 9.244-16.066l23.381 13.536c15.933 9.2 25.832 26.334 25.832 44.718v31.431c0 4.237 3.432 7.665 7.665 7.665s7.665-3.428 7.665-7.665v-31.431c0-23.841-12.834-46.066-33.49-57.99l-20.535-11.885c12.146-10.946 27.533-18.025 44.282-19.666v31.057c0 3.077 1.841 5.861 4.678 7.059 2.815 1.198 6.112.584 8.32-1.557l74.23-71.95c1.491-1.446 2.333-3.429 2.333-5.503zm-74.23 53.843v-20.989c0-4.237-3.432-7.665-7.665-7.665-31.08 0-59.48 15.3-76.61 40.197-7.717-45.648 26.738-90.574 76.61-90.574 4.233 0 7.665-3.428 7.665-7.665v-20.997l55.553 53.85z"/></g></g></svg>