<svg enable-background="new 0 0 512 512" height="512" viewBox="0 0 512 512" width="512" xmlns="http://www.w3.org/2000/svg"><g id="_x35_6_Nft_Safety"><g><path d="m437.431 230.519c.629-4.184-2.253-8.092-6.438-8.728-4.177-.569-8.092 2.253-8.728 6.438l-.614 4.065c-.629 4.184 2.253 8.092 6.438 8.728 4.443.598 8.121-2.438 8.728-6.438z"/><path d="m421.786 99.68-137.119-81.097c-17.606-10.443-39.493-10.488-57.099-.083l-137.254 81.165c-19.896 11.677-30.496 33.954-27 56.747l23.916 156.073c1.49 9.626 5.524 18.818 11.715 26.626l113.442 141.191c22.475 27.992 65.018 27.942 87.453 0l113.337-141.154c6.161-7.56 10.218-16.782 11.745-26.678l6.52-42.854c.636-4.184-2.238-8.092-6.423-8.728-4.207-.666-8.092 2.238-8.728 6.423l-6.52 42.839c-1.108 7.186-4.042 13.871-8.511 19.365l-113.367 141.19c-16.348 20.34-47.243 20.301-63.559 0l-113.405-141.154c-4.514-5.689-7.463-12.396-8.548-19.395l-23.916-156.064c-2.538-16.55 5.165-32.726 19.627-41.222l137.276-81.172c12.778-7.56 28.669-7.523 41.492.075l137.134 81.105c14.402 8.496 22.067 24.672 19.545 41.215l-5.981 39.089c-.644 4.184 2.231 8.099 6.415 8.736 4.259.629 8.099-2.238 8.736-6.415l5.981-39.089c3.48-22.772-7.082-45.042-26.904-56.734z"/><path d="m259.98 66.302c-2.41-1.422-5.39-1.43-7.8-.007l-131.587 77.752c-2.695 1.594-4.154 4.671-3.675 7.762l23.153 151.154c.202 1.332.756 2.59 1.602 3.638l108.449 135.053c1.452 1.811 3.653 2.867 5.973 2.867s4.521-1.055 5.973-2.867l108.435-135.023c.846-1.048 1.4-2.306 1.602-3.645l23.04-151.184c.472-3.092-.981-6.161-3.675-7.747zm97.281 232.342-101.166 125.973-101.181-126.01-22.06-143.998 123.226-72.804 123.128 72.804z"/><path d="m217.567 180.194c-4.237 0-7.665 3.428-7.665 7.665v21.775l-16.999-25.975c-4.158-6.338-14.08-3.405-14.08 4.199v47.488c0 4.237 3.428 7.665 7.665 7.665s7.665-3.428 7.665-7.665v-21.775l16.999 25.975c4.155 6.33 14.08 3.436 14.08-4.199v-47.488c.001-4.237-3.428-7.665-7.665-7.665z"/><path d="m291.823 195.524h9.207v39.823c0 4.237 3.428 7.665 7.665 7.665s7.665-3.428 7.665-7.665v-39.823h9.215c4.237 0 7.665-3.428 7.665-7.665s-3.428-7.665-7.665-7.665h-33.752c-4.237 0-7.665 3.428-7.665 7.665s3.429 7.665 7.665 7.665z"/><path d="m237.606 187.859v47.488c0 4.237 3.428 7.665 7.665 7.665s7.665-3.428 7.665-7.665v-16.079h16.109c4.237 0 7.665-3.428 7.665-7.665s-3.428-7.665-7.665-7.665h-16.109v-8.414h16.109c4.237 0 7.665-3.428 7.665-7.665s-3.428-7.665-7.665-7.665h-23.774c-4.237 0-7.665 3.428-7.665 7.665z"/></g></g></svg>