<svg enable-background="new 0 0 512 512" height="512" viewBox="0 0 512 512" width="512" xmlns="http://www.w3.org/2000/svg"><g id="_x35_7_Dollor"><g><path d="m485.954 254.001v4.065c0 4.237 3.428 7.665 7.665 7.665s7.665-3.428 7.665-7.665v-4.065c0-4.237-3.428-7.665-7.665-7.665s-7.665 3.429-7.665 7.665z"/><path d="m256 501.284c121.609 0 223.501-87.056 242.282-207.003.651-4.177-2.208-8.099-6.393-8.758-4.154-.629-8.099 2.216-8.758 6.393-17.598 112.431-113.127 194.038-227.131 194.038-126.796 0-229.954-103.158-229.954-229.954s103.158-229.954 229.954-229.954c114.094 0 209.616 81.637 227.132 194.113.659 4.177 4.529 7.036 8.758 6.393 4.177-.651 7.044-4.574 6.393-8.758-18.692-119.984-120.584-207.078-242.283-207.078-135.247 0-245.284 110.037-245.284 245.284s110.037 245.284 245.284 245.284z"/><path d="m256.03 72c-101.436 0-183.963 82.527-183.963 183.963s82.527 183.963 183.963 183.963 183.963-82.527 183.963-183.963-82.527-183.963-183.963-183.963zm0 352.595c-92.984 0-168.633-75.648-168.633-168.633s75.648-168.632 168.633-168.632 168.633 75.648 168.633 168.633-75.649 168.632-168.633 168.632z"/><path d="m247.257 203.287h8.684c.026 0 .048.015.074.015s.048-.015.074-.015h38.895c4.237 0 7.665-3.428 7.665-7.665s-3.428-7.665-7.665-7.665h-31.304v-13.399c0-4.237-3.428-7.665-7.665-7.665s-7.665 3.428-7.665 7.665v13.399h-1.093c-20.869 0-37.847 16.977-37.847 37.847s16.977 37.847 37.847 37.847c.767 0 18.669 0 17.546 0 12.418 0 22.516 10.098 22.516 22.516s-10.098 22.516-22.516 22.516h-47.727c-4.237 0-7.665 3.428-7.665 7.665s3.428 7.665 7.665 7.665h31.274v13.354c0 4.237 3.428 7.665 7.665 7.665s7.665-3.428 7.665-7.665v-13.354h1.123c20.869 0 37.847-16.977 37.847-37.847s-16.977-37.847-37.847-37.847c-.784 0-18.684 0-17.546 0-12.418 0-22.516-10.098-22.516-22.516s10.098-22.516 22.516-22.516z"/></g></g></svg>