<svg enable-background="new 0 0 512 512" height="512" viewBox="0 0 512 512" width="512" xmlns="http://www.w3.org/2000/svg"><g id="_x35_9_Phishing_Nft"><g><path d="m413.401 310.101c-4.237 0-7.665 3.428-7.665 7.665v4.057c0 4.237 3.428 7.665 7.665 7.665s7.665-3.428 7.665-7.665v-4.057c0-4.236-3.429-7.665-7.665-7.665z"/><path d="m120.285 432.099 106.316 61.321c9.05 5.225 19.2 7.837 29.365 7.837s20.338-2.612 29.425-7.837l106.339-61.336c18.092-10.54 29.336-30.054 29.336-50.931v-24.298c0-4.237-3.428-7.665-7.665-7.665s-7.665 3.428-7.665 7.665v24.298c0 15.443-8.324 29.882-21.693 37.667l-106.309 61.313c-13.429 7.74-30.099 7.732-43.468.007l-106.286-61.305c-13.399-7.8-21.715-22.239-21.715-37.682v-122.716c0-15.502 8.309-29.934 21.685-37.667l95.903-55.382c7.763 10.196 19.992 16.817 33.768 16.817 4.237 0 7.665-3.428 7.665-7.665s-3.428-7.665-7.665-7.665c-8.011 0-15.145-3.555-20.117-9.091 12.769-6.001 27.847-5.528 40.223 1.591l106.316 61.396c13.377 7.725 21.693 22.164 21.693 37.667v24.298c0 4.237 3.428 7.665 7.665 7.665s7.665-3.428 7.665-7.665v-24.298c0-20.959-11.251-40.481-29.358-50.946l-93.91-54.234c1.458-4.349 2.288-8.906 2.288-13.509v-49.777c9.068-3.192 15.622-11.751 15.622-21.899 0-10.147-6.561-18.709-15.637-21.896v-11.257c0-4.881 3.967-8.848 8.848-8.848h69.473c4.237 0 7.665-3.428 7.665-7.665s-3.428-7.665-7.665-7.665h-69.473c-13.332 0-24.178 10.846-24.178 24.178v11.257c-9.076 3.187-15.637 11.749-15.637 21.896 0 10.159 6.569 18.725 15.652 21.908v49.765c0 1.919-.308 3.816-.709 5.686-16.525-8.931-36.304-9.399-53.133-1.459-.219-1.387-.428-2.78-.428-4.227v-15.51c0-4.237-3.428-7.665-7.665-7.665s-7.665 3.428-7.665 7.665v15.51c0 4.153.626 8.155 1.742 11.951l-96.613 55.793c-18.107 10.465-29.351 29.987-29.351 50.946v122.717c0 20.877 11.236 40.392 29.351 50.946zm172.121-371.99c4.394 0 7.972 3.571 7.972 7.965s-3.578 7.972-7.972 7.972-7.972-3.578-7.972-7.972 3.578-7.965 7.972-7.965z"/><path d="m259.821 190.394c-2.365-1.362-5.3-1.362-7.665 0l-106.309 61.373c-2.373 1.37-3.833 3.9-3.833 6.64v122.747c0 2.74 1.46 5.27 3.833 6.64l106.309 61.373c1.183.681 2.508 1.026 3.833 1.026s2.65-.344 3.833-1.026l106.308-61.367c2.373-1.37 3.833-3.9 3.833-6.64v-122.746c0-2.74-1.46-5.27-3.833-6.64zm94.811 186.343-98.644 56.942-98.644-56.949v-113.899l98.644-56.949 98.644 56.957z"/><path d="m217.424 288.311c-4.237 0-7.665 3.428-7.665 7.665v21.902l-17.082-26.102c-4.158-6.338-14.08-3.405-14.08 4.199v47.608c0 4.237 3.428 7.665 7.665 7.665s7.665-3.428 7.665-7.665v-21.902l17.082 26.102c4.155 6.33 14.08 3.436 14.08-4.199v-47.608c0-4.237-3.429-7.665-7.665-7.665z"/><path d="m291.874 303.641h9.252v39.942c0 4.237 3.428 7.665 7.665 7.665s7.665-3.428 7.665-7.665v-39.942h9.26c4.237 0 7.665-3.428 7.665-7.665s-3.428-7.665-7.665-7.665h-33.842c-4.237 0-7.665 3.428-7.665 7.665s3.428 7.665 7.665 7.665z"/><path d="m237.537 295.976v47.608c0 4.237 3.428 7.665 7.665 7.665s7.665-3.428 7.665-7.665v-16.139h16.169c4.237 0 7.665-3.428 7.665-7.665s-3.428-7.665-7.665-7.665h-16.169v-8.474h16.169c4.237 0 7.665-3.428 7.665-7.665s-3.428-7.665-7.665-7.665h-23.834c-4.237 0-7.665 3.428-7.665 7.665z"/></g></g></svg>