<svg enable-background="new 0 0 512 512" height="512" viewBox="0 0 512 512" width="512" xmlns="http://www.w3.org/2000/svg"><g id="_x36_0_Question"><g><path d="m311.407 312.702c-4.237 0-7.665 3.428-7.665 7.665v4.065c0 4.237 3.428 7.665 7.665 7.665s7.665-3.428 7.665-7.665v-4.065c.001-4.236-3.428-7.665-7.665-7.665z"/><path d="m38.375 436.774 98.876 57.099c8.518 4.925 18.077 7.388 27.636 7.388s19.11-2.463 27.636-7.388l98.958-57.107c17.014-9.843 27.591-28.153 27.591-47.795v-29.515c0-4.237-3.428-7.665-7.665-7.665s-7.665 3.428-7.665 7.665v29.515c0 14.185-7.643 27.412-19.934 34.523l-98.95 57.099c-12.314 7.119-27.614 7.126-39.942 0l-98.868-57.092c-12.351-7.141-20.016-20.375-20.016-34.53v-114.212c0-14.207 7.665-27.464 20.009-34.598l98.876-57.107c12.314-7.111 27.614-7.119 39.942 0l98.943 57.099c12.299 7.119 19.941 20.375 19.941 34.605v10.577c0 4.237 3.428 7.665 7.665 7.665s7.665-3.428 7.665-7.665v-10.577c0-19.687-10.577-38.026-27.599-47.877l-98.95-57.107c-17.052-9.836-38.221-9.836-55.273 0l-98.883 57.114c-17.067 9.866-27.666 28.213-27.666 47.87v114.213c-.001 19.613 10.599 37.93 27.673 47.803z"/><path d="m168.727 210.967c-2.365-1.362-5.3-1.362-7.665 0l-98.935 57.114c-2.373 1.37-3.833 3.9-3.833 6.64v114.228c0 2.74 1.46 5.27 3.833 6.64l98.935 57.122c1.183.681 2.508 1.025 3.833 1.025s2.65-.344 3.833-1.025l98.935-57.114c2.373-1.37 3.833-3.9 3.833-6.64v-114.228c0-2.74-1.46-5.27-3.833-6.64zm87.438 173.566-91.27 52.69-91.27-52.698v-105.38l91.27-52.69 91.27 52.698z"/><path d="m129.009 302.021c-4.237 0-7.665 3.428-7.665 7.665v18.601l-14.919-22.801c-1.856-2.83-5.337-4.117-8.608-3.144-3.249.966-5.472 3.952-5.472 7.343v44.306c0 4.237 3.428 7.665 7.665 7.665s7.665-3.428 7.665-7.665v-18.601l14.919 22.801c4.155 6.33 14.08 3.436 14.08-4.199v-44.306c0-4.237-3.428-7.665-7.665-7.665z"/><path d="m198.287 317.351h8.084v36.641c0 4.237 3.428 7.665 7.665 7.665s7.665-3.428 7.665-7.665v-36.641h8.084c4.237 0 7.665-3.428 7.665-7.665s-3.428-7.665-7.665-7.665h-31.499c-4.237 0-7.665 3.428-7.665 7.665s3.429 7.665 7.666 7.665z"/><path d="m147.191 309.686v44.306c0 4.237 3.428 7.665 7.665 7.665s7.665-3.428 7.665-7.665v-14.484h14.514c4.237 0 7.665-3.428 7.665-7.665s-3.428-7.665-7.665-7.665h-14.514v-6.827h14.514c4.237 0 7.665-3.428 7.665-7.665s-3.428-7.665-7.665-7.665h-22.179c-4.236 0-7.665 3.428-7.665 7.665z"/><path d="m501.299 62.68c0-28.639-23.302-51.942-51.942-51.942h-129.401c-28.639 0-51.942 23.302-51.942 51.942v123.69c0 6.568 7.762 10.073 12.703 5.779l46.163-40.219h122.477c28.639 0 51.942-23.302 51.942-51.942zm-15.33 37.308c0 20.188-16.423 36.611-36.611 36.611h-125.345c-1.849 0-3.638.666-5.038 1.886l-35.631 31.042v-106.847c0-20.188 16.423-36.611 36.611-36.611h129.401c20.188 0 36.611 16.423 36.611 36.611v37.308z"/><path d="m384.66 42.821c-12.426 0-22.539 10.113-22.539 22.539 0 4.237 3.428 7.665 7.665 7.665s7.665-3.428 7.665-7.665c0-3.975 3.234-7.209 7.208-7.209 3.967 0 7.201 3.234 7.201 7.209 0 3.967-3.234 7.201-7.201 7.201-4.237 0-7.665 3.428-7.665 7.665v12.104c0 4.237 3.428 7.665 7.665 7.665s7.665-3.428 7.665-7.665v-5.779c8.661-3.144 14.866-11.46 14.866-21.191.001-12.426-10.104-22.539-22.53-22.539z"/><path d="m384.66 105.28c-4.237 0-7.665 3.428-7.665 7.665v2.066c0 4.237 3.428 7.665 7.665 7.665s7.665-3.428 7.665-7.665v-2.066c0-4.237-3.428-7.665-7.665-7.665z"/></g></g></svg>