<svg enable-background="new 0 0 512 512" height="512" viewBox="0 0 512 512" width="512" xmlns="http://www.w3.org/2000/svg"><g id="_x36_1_Nft_Profit"><g><path d="m470.608 10.742h-280.465c-16.906 0-30.66 13.751-30.66 30.66v170.977c-11.906-5.248-25.769-4.634-37.165 1.945l-91.024 52.556c-12.684 7.321-20.563 20.967-20.563 35.616v105.103c0 14.642 7.878 28.288 20.563 35.616l91.023 52.548c6.34 3.66 13.451 5.494 20.563 5.494 7.111 0 14.222-1.834 20.563-5.494l91.023-52.548c12.684-7.328 20.563-20.974 20.563-35.616v-105.103c0-3.596-.487-7.128-1.391-10.525h196.971c16.906 0 30.66-13.751 30.66-30.66v-18.242c0-4.237-3.432-7.665-7.665-7.665s-7.665 3.428-7.665 7.665v18.242c0 8.451-6.875 15.33-15.33 15.33h-204.816c-3.121-3.859-6.91-7.212-11.327-9.761l-79.653-45.991c0-37.468 0-66.236 0-103.988 0-8.451 6.875-15.33 15.33-15.33h280.466c8.455 0 15.33 6.879 15.33 15.33v52.046c0 4.237 3.432 7.665 7.665 7.665s7.665-3.428 7.665-7.665c0-3.267 0-133.416 0-127.545 0-16.909-13.755-30.66-30.661-30.66zm-280.465 15.331h280.466c8.455 0 15.33 6.879 15.33 15.33v11.316c-4.528-2.64-9.721-4.265-15.33-4.265h-280.466c-5.609 0-10.802 1.624-15.33 4.265v-11.316c0-8.451 6.875-15.33 15.33-15.33zm69.555 276.423v105.103c0 9.185-4.944 17.741-12.897 22.337l-91.027 52.548c-7.946 4.596-17.83 4.596-25.791 0l-91.02-52.548c-7.957-4.596-12.901-13.152-12.901-22.337v-105.103c0-9.185 4.94-17.748 12.897-22.337l91.023-52.555c7.941-4.587 17.838-4.596 25.795 0l91.023 52.555c7.957 4.589 12.898 13.152 12.898 22.337zm210.91-216.255h-280.465c-5.609 0-10.802 1.624-15.33 4.265v-11.391c0-8.451 6.875-15.33 15.33-15.33h280.466c8.455 0 15.33 6.879 15.33 15.33v11.391c-4.529-2.641-9.722-4.265-15.331-4.265z"/><path d="m493.604 196.315c-4.233 0-7.665 3.428-7.665 7.665v4.057c0 4.237 3.432 7.665 7.665 7.665s7.665-3.428 7.665-7.665v-4.057c0-4.237-3.432-7.665-7.665-7.665z"/><path d="m284.976 189.106c0 25.039 20.372 45.414 45.414 45.414s45.414-20.375 45.414-45.414c0-25.046-20.372-45.422-45.414-45.422s-45.414 20.376-45.414 45.422zm75.499 0c0 16.588-13.496 30.084-30.084 30.084s-30.084-13.496-30.084-30.084c0-16.595 13.496-30.092 30.084-30.092s30.084 13.497 30.084 30.092z"/><path d="m221.982 181.441c-4.233 0-7.665 3.428-7.665 7.665s3.432 7.665 7.665 7.665h6.812c4.233 0 7.665-3.428 7.665-7.665s-3.432-7.665-7.665-7.665z"/><path d="m431.983 181.441c-4.233 0-7.665 3.428-7.665 7.665s3.432 7.665 7.665 7.665h6.816c4.233 0 7.665-3.428 7.665-7.665s-3.432-7.665-7.665-7.665z"/><path d="m105.014 324.009c-4.233 0-7.665 3.428-7.665 7.665v21.042l-16.52-25.241c-4.184-6.382-14.08-3.363-14.08 4.199v46.747c0 4.237 3.432 7.665 7.665 7.665s7.665-3.428 7.665-7.665v-21.042l16.52 25.241c4.155 6.33 14.08 3.436 14.08-4.199v-46.747c0-4.236-3.432-7.665-7.665-7.665z"/><path d="m178.114 339.339h8.953v39.082c0 4.237 3.432 7.665 7.665 7.665s7.665-3.428 7.665-7.665v-39.082h8.949c4.233 0 7.665-3.428 7.665-7.665s-3.432-7.665-7.665-7.665h-33.232c-4.233 0-7.665 3.428-7.665 7.665s3.432 7.665 7.665 7.665z"/><path d="m132.288 324.009c-4.233 0-7.665 3.428-7.665 7.665v46.747c0 4.237 3.432 7.665 7.665 7.665s7.665-3.428 7.665-7.665v-15.712h15.738c4.233 0 7.665-3.428 7.665-7.665s-3.432-7.665-7.665-7.665h-15.738v-8.039h15.738c4.233 0 7.665-3.428 7.665-7.665s-3.432-7.665-7.665-7.665h-23.403z"/></g></g></svg>