<svg enable-background="new 0 0 512 512" height="512" viewBox="0 0 512 512" width="512" xmlns="http://www.w3.org/2000/svg"><g id="_x36_2_Startup"><g><path d="m249.861 360.314c15.6 17.438 44.586 7.178 44.808-16.543.389-44.811-22.628-86.693-60.339-110.661 4.65-29.125 7.144-58.989 7.144-85.406 0-119.176-47.832-136.969-76.344-136.969-25.454 0-69.128 14.41-75.637 110.935-.284 4.222 2.908 7.882 7.13 8.167 4.248.21 7.878-2.912 8.163-7.134 2.975-44.089 15.858-96.637 60.344-96.637 39.347 0 61.014 43.199 61.014 121.639 0 92.874-30.035 209.032-61.014 209.032-16.485 0-30.576-36.981-31.528-38.767-12.28-29.83-22.604-73.997-27.221-122.387-.404-4.214-4.136-7.426-8.361-6.902-4.214.397-7.302 4.139-6.902 8.354 1.018 10.672 2.582 23.037 4.693 36.14-37.638 23.984-60.617 65.877-60.224 110.673.222 23.739 29.156 33.972 44.726 16.543 11.545-12.878 26.078-22.89 42.33-29.238 11.078 24.109 25.133 40.916 42.488 40.916 16.248 0 30.438-16.178 42.04-41.095 16.339 6.256 31.006 16.295 42.69 29.34zm-180.973-10.151c-6.337 7.101-17.884 3.137-17.973-6.452-.327-37.343 17.77-72.398 47.79-93.999 4.345 22.845 10.328 46.718 18.061 67.272-18.367 7.225-34.795 18.584-47.878 33.179zm210.45-6.527c-.088 9.554-11.663 13.573-18.055 6.452-13.203-14.733-29.732-26.122-48.15-33.258 7.5-19.57 13.674-42.806 18.317-67.178 30.079 21.587 48.215 56.635 47.888 93.984z"/><path d="m96.596 168.94c.146 0 .296-.007.445-.015 4.226-.24 7.456-3.863 7.216-8.084l-.153-4.072c-.24-4.222-3.915-7.418-8.096-7.209-4.226.24-7.456 3.863-7.212 8.092l.153 4.057c.232 4.08 3.612 7.231 7.647 7.231z"/><path d="m165.155 141.671c18.796 0 34.089-15.345 34.089-34.209s-15.293-34.216-34.089-34.216c-18.863 0-34.212 15.353-34.212 34.216s15.349 34.209 34.212 34.209zm0-53.095c10.345 0 18.759 8.474 18.759 18.886s-8.414 18.878-18.759 18.878c-10.412 0-18.882-8.466-18.882-18.878s8.47-18.886 18.882-18.886z"/><path d="m129.592 427.054c0 16.505 23.965 61.381 28.767 70.206 1.344 2.47 3.926 4.005 6.733 4.005s5.39-1.535 6.733-4.005c4.806-8.825 28.77-53.701 28.77-70.206 0-19.574-15.925-35.496-35.504-35.496-19.574 0-35.499 15.922-35.499 35.496zm55.673 0c0 7.5-10.315 30.623-20.173 50.048-9.855-19.425-20.17-42.54-20.17-50.048 0-11.116 9.046-20.166 20.17-20.166 11.123 0 20.173 9.05 20.173 20.166z"/><path d="m392.927 248.391 62.013-35.796c13.249-7.65 21.48-21.902 21.48-37.203v-71.606c0-15.3-8.23-29.553-21.476-37.203l-62.017-35.803c-13.257-7.658-29.717-7.658-42.959 0l-62.013 35.796c-13.249 7.65-21.48 21.902-21.48 37.203v71.606c0 15.3 8.23 29.553 21.476 37.203l62.021 35.803c13.231 7.64 29.705 7.65 42.955 0zm-111.122-73.006v-71.606c0-9.843 5.292-19.006 13.814-23.924l62.017-35.796c8.399-4.857 18.967-5.004 27.621 0l62.021 35.803c8.518 4.918 13.811 14.088 13.811 23.924v71.606c0 9.843-5.292 19.006-13.814 23.924l-62.013 35.796c-8.515 4.925-19.103 4.925-27.625 0l-62.021-35.803c-8.519-4.918-13.811-14.088-13.811-23.924z"/><path d="m339.495 112.2c-4.233 0-7.665 3.428-7.665 7.665v13.736l-11.745-17.935c-4.172-6.363-14.076-3.378-14.076 4.199v39.441c0 4.237 3.432 7.665 7.665 7.665s7.665-3.428 7.665-7.665v-13.736l11.745 17.935c4.138 6.32 14.076 3.451 14.076-4.199v-39.441c.001-4.236-3.432-7.665-7.665-7.665z"/><path d="m401.179 127.531h6.355v31.776c0 4.237 3.432 7.665 7.665 7.665s7.665-3.428 7.665-7.665v-31.776h6.355c4.233 0 7.665-3.428 7.665-7.665s-3.432-7.665-7.665-7.665h-28.041c-4.233 0-7.665 3.428-7.665 7.665.001 4.236 3.433 7.665 7.666 7.665z"/><path d="m370.175 159.306v-12.059h12.082c4.233 0 7.665-3.428 7.665-7.665s-3.432-7.665-7.665-7.665h-12.082v-4.386h12.082c4.233 0 7.665-3.428 7.665-7.665s-3.432-7.665-7.665-7.665h-19.747c-4.233 0-7.665 3.428-7.665 7.665v39.441c0 4.237 3.432 7.665 7.665 7.665s7.665-3.429 7.665-7.666z"/></g></g></svg>