<svg enable-background="new 0 0 512 512" height="512" viewBox="0 0 512 512" width="512" xmlns="http://www.w3.org/2000/svg"><g id="_x36_3_Security"><g><path d="m18.363 235.927c4.233 0 7.665-3.428 7.665-7.665v-4.065c0-4.237-3.432-7.665-7.665-7.665s-7.665 3.428-7.665 7.665v4.065c-.001 4.236 3.432 7.665 7.665 7.665z"/><path d="m164.704 195.415c-4.233 0-7.665 3.428-7.665 7.665v32.899l-24.279-37.098c-1.86-2.837-5.382-4.117-8.605-3.144-3.249.966-5.476 3.952-5.476 7.343v58.604c0 4.237 3.432 7.665 7.665 7.665s7.665-3.428 7.665-7.665v-32.899l24.279 37.098c4.155 6.33 14.08 3.436 14.08-4.199v-58.604c.001-4.236-3.431-7.665-7.664-7.665z"/><path d="m298.005 210.746c4.233 0 7.665-3.428 7.665-7.665s-3.432-7.665-7.665-7.665h-41.66c-4.233 0-7.665 3.428-7.665 7.665s3.432 7.665 7.665 7.665h13.163v50.939c0 4.237 3.432 7.665 7.665 7.665s7.665-3.428 7.665-7.665v-50.939z"/><path d="m228.233 210.746c4.233 0 7.665-3.428 7.665-7.665s-3.432-7.665-7.665-7.665h-29.336c-4.233 0-7.665 3.428-7.665 7.665v58.604c0 4.237 3.432 7.665 7.665 7.665s7.665-3.428 7.665-7.665v-21.64h21.67c4.233 0 7.665-3.428 7.665-7.665s-3.432-7.665-7.665-7.665h-21.67v-13.968h21.671z"/><path d="m485.811 296.013-67.646-40.01c-1.453-.857-2.969-1.549-4.51-2.154v-97.029c0-25.091-13.537-48.513-35.335-61.141l-130.838-75.491c-21.779-12.605-48.832-12.598-70.603-.007l-130.85 75.506c-21.794 12.621-35.331 36.043-35.331 61.134v32.345c0 4.237 3.432 7.665 7.665 7.665s7.665-3.428 7.665-7.665v-32.346c0-19.642 10.607-37.981 27.674-47.862l130.85-75.506c17.044-9.851 38.221-9.851 55.258.007l130.839 75.491c17.071 9.888 27.678 28.228 27.678 47.87v95.053c-4.258.514-8.435 1.876-12.254 4.129l-35.346 20.886v-120.068c0-2.74-1.46-5.27-3.833-6.64l-130.923-75.58c-2.373-1.362-5.292-1.362-7.665 0l-130.842 75.581c-2.373 1.37-3.833 3.9-3.833 6.64v151.079c0 2.74 1.46 5.27 3.833 6.64l130.842 75.581c1.186.681 2.508 1.026 3.833 1.026s2.646-.344 3.833-1.026l88.937-51.348 7.731 50.481-72.838 42.09c-17.044 9.873-38.206 9.873-55.258-.007l-130.854-75.583c-17.063-9.806-27.663-28.145-27.663-47.855v-44.613c0-4.237-3.432-7.665-7.665-7.665s-7.665 3.428-7.665 7.665v44.614c0 25.181 13.545 48.611 35.339 61.141l130.835 75.566c10.888 6.31 23.096 9.462 35.305 9.462s24.414-3.151 35.301-9.454l67.693-39.112c.91 5.227 3.106 10.179 6.443 14.343l55.916 69.622c6.018 7.493 14.982 11.797 24.594 11.797 9.608 0 18.571-4.304 24.59-11.797l55.909-69.615c3.473-4.327 5.753-9.514 6.587-15.001l11.726-76.951c1.951-12.793-3.989-25.309-15.124-31.888zm-273.672 78.62-123.177-71.157v-142.232l123.177-71.157 123.256 71.157v124.704l-17.018 10.057c-9.475 5.596-15.131 15.497-15.431 26.195zm273.639-49.038-11.726 76.951c-.427 2.822-1.598 5.487-3.383 7.71l-55.909 69.615c-6.187 7.695-19.095 7.695-25.275 0l-55.913-69.615c-1.785-2.231-2.957-4.895-3.387-7.703l-11.786-76.943c-.002-.011.002-.022 0-.032 0-.001 0-.002 0-.002-.991-6.568 2.053-12.997 7.777-16.374l67.695-39.995c5.093-3.011 11.389-3.015 16.494-.008l67.642 40.01c5.723 3.376 8.774 9.814 7.771 16.386z"/><path d="m402.128 335.117c-14.099 0-25.57 11.438-25.57 25.496 0 11.414 7.565 20.988 17.905 24.267v15.773c0 4.237 3.432 7.665 7.665 7.665s7.665-3.428 7.665-7.665v-15.78c10.298-3.285 17.827-12.853 17.827-24.259-.001-14.059-11.435-25.497-25.492-25.497zm0 35.735c-5.648 0-10.24-4.596-10.24-10.24 0-5.607 4.592-10.165 10.24-10.165 5.509 0 10.162 4.656 10.162 10.165-.001 5.644-4.56 10.24-10.162 10.24z"/></g></g></svg>