<svg enable-background="new 0 0 512 512" height="512" viewBox="0 0 512 512" width="512" xmlns="http://www.w3.org/2000/svg"><g id="_x36_4_Nft_Website"><g><path d="m473.511 379.963c-4.233 0-7.665 3.428-7.665 7.665v3.982c0 4.237 3.432 7.665 7.665 7.665s7.665-3.428 7.665-7.665v-3.982c0-4.237-3.432-7.665-7.665-7.665z"/><path d="m30.772 462.977c0 21.132 17.194 38.326 38.326 38.326h373.752c21.132 0 38.326-17.194 38.326-38.326v-36.334c0-4.237-3.432-7.665-7.665-7.665s-7.665 3.428-7.665 7.665v36.334c0 12.68-10.315 22.995-22.995 22.995h-373.754c-12.68 0-22.995-10.315-22.995-22.995v-325.693h419.744v215.312c0 4.237 3.432 7.665 7.665 7.665s7.665-3.428 7.665-7.665c0-.954.039-227.68.052-303.573 0-21.131-17.194-38.326-38.326-38.326h-373.801c-21.131 0-38.326 17.194-38.326 38.326 0 41.736-.003 374.238-.003 413.954zm15.334-413.954c0-12.68 10.315-22.995 22.995-22.995h373.802c12.68 0 22.995 10.315 22.995 22.995v72.901h-419.792z"/><path d="m95.974 66.314h-6.561c-4.233 0-7.665 3.428-7.665 7.665s3.432 7.665 7.665 7.665h6.561c4.233 0 7.665-3.428 7.665-7.665s-3.432-7.665-7.665-7.665z"/><path d="m140.445 66.314h-6.561c-4.233 0-7.665 3.428-7.665 7.665s3.432 7.665 7.665 7.665h6.561c4.233 0 7.665-3.428 7.665-7.665s-3.432-7.665-7.665-7.665z"/><path d="m184.92 66.314h-6.565c-4.233 0-7.665 3.428-7.665 7.665s3.432 7.665 7.665 7.665h6.565c4.233 0 7.665-3.428 7.665-7.665s-3.432-7.665-7.665-7.665z"/><path d="m422.591 66.314h-125.397c-4.233 0-7.665 3.428-7.665 7.665s3.432 7.665 7.665 7.665h125.397c4.233 0 7.665-3.428 7.665-7.665s-3.432-7.665-7.665-7.665z"/><path d="m275.161 182.092c-11.816-6.812-26.499-6.812-38.322 0l-83.407 48.154c-11.82 6.827-19.163 19.545-19.163 33.198v96.301c0 13.653 7.343 26.371 19.163 33.191l83.411 48.162c5.91 3.406 12.531 5.113 19.159 5.113 6.625 0 13.253-1.707 19.163-5.113l83.403-48.162c11.823-6.819 19.167-19.537 19.167-33.191v-96.301c0-13.654-7.343-26.371-19.163-33.198zm87.243 177.653c0 8.189-4.405 15.824-11.498 19.911l-83.403 48.161c-7.104 4.087-15.918 4.08-22.999 0l-83.411-48.161c-7.089-4.087-11.494-11.722-11.494-19.911v-96.301c0-8.189 4.405-15.824 11.498-19.919l83.403-48.154c7.036-4.053 15.834-4.131 22.999 0l83.407 48.154c7.092 4.095 11.498 11.73 11.498 19.919z"/><path d="m221.303 282.51c-4.233 0-7.665 3.428-7.665 7.665v17.134l-13.96-21.334c-4.184-6.382-14.08-3.363-14.08 4.199v42.839c0 4.237 3.432 7.665 7.665 7.665s7.665-3.428 7.665-7.665v-17.133l13.96 21.334c4.155 6.33 14.08 3.436 14.08-4.199v-42.839c0-4.238-3.432-7.666-7.665-7.666z"/><path d="m318.741 282.51h-30.451c-4.233 0-7.665 3.428-7.665 7.665s3.432 7.665 7.665 7.665h7.56v35.174c0 4.237 3.432 7.665 7.665 7.665s7.665-3.428 7.665-7.665v-35.174h7.56c4.233 0 7.665-3.428 7.665-7.665.001-4.237-3.431-7.665-7.664-7.665z"/><path d="m267.739 297.84c4.233 0 7.665-3.428 7.665-7.665s-3.432-7.665-7.665-7.665h-21.442c-4.233 0-7.665 3.428-7.665 7.665v42.839c0 4.237 3.432 7.665 7.665 7.665s7.665-3.428 7.665-7.665v-13.758h13.777c4.233 0 7.665-3.428 7.665-7.665s-3.432-7.665-7.665-7.665h-13.777v-6.086z"/></g></g></svg>