<svg enable-background="new 0 0 512 512" height="512" viewBox="0 0 512 512" width="512" xmlns="http://www.w3.org/2000/svg"><g id="_x36_5_Nft"><g><path d="m360.142 485.965c-4.233 0-7.665 3.428-7.665 7.665s3.432 7.665 7.665 7.665h4.061c4.233 0 7.665-3.428 7.665-7.665s-3.432-7.665-7.665-7.665z"/><path d="m434.098 125.712c-3.964-1.557-8.395.374-9.948 4.304l-97.917 247.372h-140.466l-97.917-247.372c-1.553-3.93-5.988-5.861-9.948-4.304-3.934 1.557-5.865 6.011-4.304 9.948l95.683 241.728h-12.732c-12.68 0-22.995 10.315-22.995 22.995v12.456h-18.62c-1.89 0-3.709.696-5.116 1.961l-34.19 30.66c-1.621 1.452-2.545 3.526-2.545 5.704v42.465c0 4.237 3.432 7.665 7.665 7.665h244.362c4.233 0 7.665-3.428 7.665-7.665s-3.432-7.665-7.665-7.665h-236.698v-31.379l29.455-26.416h276.285l29.455 26.416v31.379h-24.373c-4.233 0-7.665 3.428-7.665 7.665s3.432 7.665 7.665 7.665h32.038c4.233 0 7.665-3.428 7.665-7.665v-42.465c0-2.178-.924-4.252-2.545-5.704l-34.19-30.668c-1.407-1.258-3.23-1.954-5.116-1.954h-18.639v-12.456c0-12.68-10.315-22.995-22.995-22.995h-12.732l95.683-241.728c1.56-3.937-.371-8.39-4.305-9.947zm-70.981 274.671v12.418h-214.234v-12.418c0-4.229 3.44-7.665 7.665-7.665h198.904c4.225 0 7.665 3.436 7.665 7.665z"/><path d="m248.335 313.792v22.726c0 4.237 3.432 7.665 7.665 7.665s7.665-3.428 7.665-7.665v-22.726c0-4.237-3.432-7.665-7.665-7.665s-7.665 3.428-7.665 7.665z"/><path d="m170.684 453.381c-4.233 0-7.665 3.428-7.665 7.665s3.432 7.665 7.665 7.665h5.685c4.233 0 7.665-3.428 7.665-7.665s-3.432-7.665-7.665-7.665z"/><path d="m225.665 453.381c-4.233 0-7.665 3.428-7.665 7.665s3.432 7.665 7.665 7.665h5.685c4.233 0 7.665-3.428 7.665-7.665s-3.432-7.665-7.665-7.665z"/><path d="m280.65 453.381c-4.233 0-7.665 3.428-7.665 7.665s3.432 7.665 7.665 7.665h5.685c4.233 0 7.665-3.428 7.665-7.665s-3.432-7.665-7.665-7.665z"/><path d="m335.63 453.381c-4.233 0-7.665 3.428-7.665 7.665s3.432 7.665 7.665 7.665h5.685c4.233 0 7.665-3.428 7.665-7.665s-3.432-7.665-7.665-7.665z"/><path d="m358.566 226.668c11.823-6.819 19.167-19.537 19.167-33.191v-96.307c0-13.646-7.343-26.364-19.163-33.191l-83.407-48.154c-11.816-6.827-26.502-6.827-38.326 0l-83.407 48.154c-11.82 6.827-19.163 19.545-19.163 33.191v96.308c0 13.654 7.343 26.371 19.163 33.191l83.411 48.162c5.91 3.406 12.531 5.113 19.159 5.113 6.625 0 13.253-1.707 19.163-5.113zm-114.064 34.882-83.411-48.162c-7.089-4.087-11.494-11.722-11.494-19.911v-96.307c0-8.189 4.405-15.817 11.498-19.911l83.407-48.154c3.548-2.051 7.523-3.077 11.498-3.077s7.953 1.026 11.498 3.077l83.407 48.154c7.092 4.095 11.498 11.722 11.498 19.911v96.308c0 8.189-4.405 15.824-11.498 19.911l-83.403 48.162c-7.101 4.087-15.915 4.079-23-.001z"/><path d="m221.301 116.243c-4.233 0-7.665 3.428-7.665 7.665v17.134l-13.96-21.334c-4.164-6.351-14.08-3.393-14.08 4.199v42.839c0 4.237 3.432 7.665 7.665 7.665s7.665-3.428 7.665-7.665v-17.134l13.96 21.334c4.155 6.33 14.08 3.436 14.08-4.199v-42.839c0-4.237-3.432-7.665-7.665-7.665z"/><path d="m318.739 116.243h-30.451c-4.233 0-7.665 3.428-7.665 7.665s3.432 7.665 7.665 7.665h7.56v35.174c0 4.237 3.432 7.665 7.665 7.665s7.665-3.428 7.665-7.665v-35.174h7.56c4.233 0 7.665-3.428 7.665-7.665.002-4.237-3.43-7.665-7.664-7.665z"/><path d="m267.737 131.573c4.233 0 7.665-3.428 7.665-7.665s-3.432-7.665-7.665-7.665h-21.442c-4.233 0-7.665 3.428-7.665 7.665v42.839c0 4.237 3.432 7.665 7.665 7.665s7.665-3.428 7.665-7.665v-13.758h13.777c4.233 0 7.665-3.428 7.665-7.665s-3.432-7.665-7.665-7.665h-13.777v-6.086z"/></g></g></svg>