<svg enable-background="new 0 0 512 512" height="512" viewBox="0 0 512 512" width="512" xmlns="http://www.w3.org/2000/svg"><g id="_x36_6_Bid"><g><path d="m447.531 168.783v-119.76c0-21.131-17.194-38.326-38.326-38.326h-273.422c-21.131 0-38.326 17.194-38.326 38.326v119.76c0 21.131 17.194 38.326 38.326 38.326h102.79v43.588c-.767.256-54.348-2.939-72.021 49.636-5.264-4.254-11.871-6.909-19.152-6.909h-75.266c-4.237 0-7.665 3.428-7.665 7.665v139.469c0 4.237 3.428 7.665 7.665 7.665h75.266c8.137 0 15.495-3.237 20.989-8.426 7.084 3.168 26.839 19.31 59.802 19.31h10.382v34.53c0 4.237 3.428 7.665 7.665 7.665h52.503c4.237 0 7.665-3.428 7.665-7.665v-34.56h2.335c14.874 0 26.97-12.096 26.97-26.97 0-7.574-3.159-14.406-8.203-19.311 5.044-4.903 8.203-11.733 8.203-19.307s-3.159-14.406-8.203-19.311c5.044-4.903 8.203-11.733 8.203-19.307s-3.159-14.406-8.203-19.311c5.044-4.903 8.203-11.733 8.203-19.307 0-14.091-10.896-25.559-24.687-26.74 1.472-2.864 2.445-6.005 2.747-9.332.68-7.488-1.71-15.159-7.366-21.09v-51.983h102.798c21.134.001 38.328-17.193 38.328-38.325zm-334.743 0v-119.76c0-12.68 10.315-22.995 22.995-22.995h273.422c12.68 0 22.995 10.315 22.995 22.995v119.76c0 12.68-10.315 22.995-22.995 22.995-54.948 0-175.427 0-273.422 0-12.68 0-22.995-10.315-22.995-22.995zm34.613 264.11h-67.601v-124.139h67.601c8.451 0 15.33 6.879 15.33 15.33v93.479c0 8.451-6.879 15.33-15.33 15.33zm30.66-5.24v-10.09-93.479-.659c0-31.649 25.75-57.399 57.399-57.399 1.606 0 53.104 0 51.448 0 6.814 0 12.236 5.765 11.595 12.77-.531 5.861-6.033 10.45-12.531 10.45-.787.001-28.025.04-26.379.037-14.874 0-26.97 12.096-26.97 26.97 0 7.574 3.159 14.404 8.203 19.307-5.044 4.905-8.203 11.736-8.203 19.311 0 7.574 3.159 14.404 8.203 19.307-5.044 4.905-8.203 11.736-8.203 19.311 0 7.574 3.159 14.404 8.203 19.307-5.044 4.905-8.203 11.736-8.203 19.311 0 4.197 1.047 8.124 2.764 11.67h-7.196c-27.662 0-44.459-13.593-50.13-16.124zm113.016 58.319h-37.173v-26.865c.772-.001 39.639-.032 37.173-.03zm29.306-53.865c0 6.415-5.225 11.64-11.64 11.64-1.408 0-49.956 0-49.15 0-6.415 0-11.64-5.225-11.64-11.64 0-6.423 5.225-11.647 11.64-11.647h49.15c6.415 0 11.64 5.224 11.64 11.647zm0-38.618c0 6.415-5.225 11.64-11.64 11.64h-49.15c-6.415 0-11.64-5.225-11.64-11.64 0-6.423 5.225-11.647 11.64-11.647h49.15c6.415 0 11.64 5.225 11.64 11.647zm0-38.617c0 6.415-5.225 11.64-11.64 11.64h-49.15c-6.415 0-11.64-5.225-11.64-11.64 0-6.423 5.225-11.647 11.64-11.647h49.15c6.415-.001 11.64 5.224 11.64 11.647zm0-38.618c0 6.415-5.225 11.64-11.64 11.64h-49.15c-6.415 0-11.64-5.225-11.64-11.64s5.225-11.64 11.64-11.64h49.15c6.415 0 11.64 5.225 11.64 11.64zm-29.306-65.12c-1.378-.217-2.758-.438-4.169-.438h-33.003v-43.588h37.173v44.026z"/><path d="m235.612 108.884c6.919-5.859 11.413-14.497 11.413-24.253 0-17.606-14.32-31.926-31.918-31.926h-38.685c-4.237 0-7.665 3.428-7.665 7.665v48.513 48.521c0 4.237 3.428 7.665 7.665 7.665h38.685c17.598 0 31.918-14.32 31.918-31.926 0-9.757-4.494-18.398-11.413-24.259zm-51.525-40.848h31.02c9.147 0 16.588 7.448 16.588 16.595s-7.441 16.588-16.588 16.588h-31.02zm31.02 81.704h-31.02v-33.191h31.02c9.147 0 16.588 7.448 16.588 16.595s-7.441 16.596-16.588 16.596z"/><path d="m305.606 165.1h14.432c30.982 0 56.193-25.211 56.193-56.201 0-30.982-25.211-56.193-56.193-56.193h-14.432c-4.237 0-7.665 3.428-7.665 7.665v97.064c0 4.237 3.428 7.665 7.665 7.665zm7.665-97.064h6.767c22.531 0 40.863 18.332 40.863 40.863 0 22.539-18.332 40.871-40.863 40.871h-6.767z"/><path d="m268.838 165.07c4.237 0 7.665-3.428 7.665-7.665v-97.034c0-4.237-3.428-7.665-7.665-7.665s-7.665 3.428-7.665 7.665v97.034c-.001 4.237 3.428 7.665 7.665 7.665z"/></g></g></svg>