<svg enable-background="new 0 0 512 512" height="512" viewBox="0 0 512 512" width="512" xmlns="http://www.w3.org/2000/svg"><g id="_x36_7_Processer"><g><path d="m427.806 383.732v-255.457c0-24.328-19.792-44.119-44.127-44.119h-255.359c-24.335 0-44.127 19.792-44.127 44.119v255.457c0 24.328 19.792 44.119 44.127 44.119h255.36c24.335 0 44.126-19.791 44.126-44.119zm-15.33 0c0 15.877-12.92 28.789-28.797 28.789h-255.359c-15.877 0-28.797-12.912-28.797-28.789v-255.457c0-15.877 12.92-28.789 28.797-28.789h255.36c15.877 0 28.797 12.912 28.797 28.789v255.457z"/><path d="m374.166 304.783c-4.237 0-7.665 3.428-7.665 7.665v4.065c0 4.237 3.428 7.665 7.665 7.665s7.665-3.428 7.665-7.665v-4.065c0-4.237-3.429-7.665-7.665-7.665z"/><path d="m374.166 130.169h-236.317c-4.237 0-7.665 3.428-7.665 7.665v236.399c0 4.237 3.428 7.665 7.665 7.665h236.316c4.237 0 7.665-3.428 7.665-7.665v-22.688c0-4.237-3.428-7.665-7.665-7.665s-7.665 3.428-7.665 7.665v15.023h-220.986v-221.069h220.986v131.924c0 4.237 3.428 7.665 7.665 7.665s7.665-3.428 7.665-7.665v-139.589c.001-4.236-3.428-7.665-7.664-7.665z"/><path d="m156.9 49.82v-31.439c0-4.237-3.428-7.665-7.665-7.665s-7.665 3.428-7.665 7.665v31.439c0 4.237 3.428 7.665 7.665 7.665s7.665-3.428 7.665-7.665z"/><path d="m228.079 49.82v-31.439c0-4.237-3.428-7.665-7.665-7.665s-7.665 3.428-7.665 7.665v31.439c0 4.237 3.428 7.665 7.665 7.665s7.665-3.428 7.665-7.665z"/><path d="m299.251 49.82v-31.439c0-4.237-3.428-7.665-7.665-7.665s-7.665 3.428-7.665 7.665v31.439c0 4.237 3.428 7.665 7.665 7.665s7.665-3.428 7.665-7.665z"/><path d="m370.423 49.82v-31.439c0-4.237-3.428-7.665-7.665-7.665s-7.665 3.428-7.665 7.665v31.439c0 4.237 3.428 7.665 7.665 7.665s7.665-3.428 7.665-7.665z"/><path d="m156.9 493.619v-31.439c0-4.237-3.428-7.665-7.665-7.665s-7.665 3.428-7.665 7.665v31.439c0 4.237 3.428 7.665 7.665 7.665s7.665-3.428 7.665-7.665z"/><path d="m228.079 493.619v-31.439c0-4.237-3.428-7.665-7.665-7.665s-7.665 3.428-7.665 7.665v31.439c0 4.237 3.428 7.665 7.665 7.665s7.665-3.428 7.665-7.665z"/><path d="m291.586 501.284c4.237 0 7.665-3.428 7.665-7.665v-31.439c0-4.237-3.428-7.665-7.665-7.665s-7.665 3.428-7.665 7.665v31.439c0 4.237 3.428 7.665 7.665 7.665z"/><path d="m370.423 493.619v-31.439c0-4.237-3.428-7.665-7.665-7.665s-7.665 3.428-7.665 7.665v31.439c0 4.237 3.428 7.665 7.665 7.665s7.665-3.428 7.665-7.665z"/><path d="m493.619 141.577h-31.439c-4.237 0-7.665 3.428-7.665 7.665s3.428 7.665 7.665 7.665h31.439c4.237 0 7.665-3.428 7.665-7.665s-3.428-7.665-7.665-7.665z"/><path d="m493.619 212.749h-31.439c-4.237 0-7.665 3.428-7.665 7.665s3.428 7.665 7.665 7.665h31.439c4.237 0 7.665-3.428 7.665-7.665s-3.428-7.665-7.665-7.665z"/><path d="m493.619 283.921h-31.439c-4.237 0-7.665 3.428-7.665 7.665s3.428 7.665 7.665 7.665h31.439c4.237 0 7.665-3.428 7.665-7.665s-3.428-7.665-7.665-7.665z"/><path d="m493.619 355.1h-31.439c-4.237 0-7.665 3.428-7.665 7.665s3.428 7.665 7.665 7.665h31.439c4.237 0 7.665-3.428 7.665-7.665s-3.428-7.665-7.665-7.665z"/><path d="m49.82 141.577h-31.439c-4.237 0-7.665 3.428-7.665 7.665s3.428 7.665 7.665 7.665h31.439c4.237 0 7.665-3.428 7.665-7.665s-3.428-7.665-7.665-7.665z"/><path d="m49.82 212.749h-31.439c-4.237 0-7.665 3.428-7.665 7.665s3.428 7.665 7.665 7.665h31.439c4.237 0 7.665-3.428 7.665-7.665s-3.428-7.665-7.665-7.665z"/><path d="m49.82 283.928h-31.439c-4.237 0-7.665 3.428-7.665 7.665s3.428 7.665 7.665 7.665h31.439c4.237 0 7.665-3.428 7.665-7.665 0-4.236-3.428-7.665-7.665-7.665z"/><path d="m49.82 355.1h-31.439c-4.237 0-7.665 3.428-7.665 7.665s3.428 7.665 7.665 7.665h31.439c4.237 0 7.665-3.428 7.665-7.665s-3.428-7.665-7.665-7.665z"/><path d="m213.64 234.584v17.134l-13.96-21.334c-1.856-2.829-5.345-4.124-8.608-3.144-3.249.966-5.472 3.952-5.472 7.343v42.839c0 4.237 3.428 7.665 7.665 7.665s7.665-3.428 7.665-7.665v-17.134l13.96 21.334c1.445 2.201 3.877 3.466 6.415 3.466.726 0 1.467-.105 2.193-.322 3.249-.966 5.472-3.952 5.472-7.343v-42.839c0-4.237-3.428-7.665-7.665-7.665s-7.665 3.428-7.665 7.665z"/><path d="m303.51 285.089c4.237 0 7.665-3.428 7.665-7.665v-35.174h7.56c4.237 0 7.665-3.428 7.665-7.665s-3.428-7.665-7.665-7.665h-30.451c-4.237 0-7.665 3.428-7.665 7.665s3.428 7.665 7.665 7.665h7.56v35.174c.001 4.236 3.429 7.665 7.666 7.665z"/><path d="m267.737 242.249c4.237 0 7.665-3.428 7.665-7.665s-3.428-7.665-7.665-7.665h-21.446c-4.237 0-7.665 3.428-7.665 7.665v42.839c0 4.237 3.428 7.665 7.665 7.665s7.665-3.428 7.665-7.665v-13.758h13.781c4.237 0 7.665-3.428 7.665-7.665s-3.428-7.665-7.665-7.665h-13.781v-6.086z"/></g></g></svg>