<svg enable-background="new 0 0 512 512" height="512" viewBox="0 0 512 512" width="512" xmlns="http://www.w3.org/2000/svg"><g id="_x36_8_Coins"><g><path d="m245.296 237.256c50.445 0 91.487-41.043 91.487-91.487s-41.043-91.48-91.487-91.48-91.48 41.035-91.48 91.48 41.035 91.487 91.48 91.487zm0-167.637c41.993 0 76.157 34.164 76.157 76.15 0 41.993-34.164 76.157-76.157 76.157-41.986 0-76.15-34.164-76.15-76.157 0-41.986 34.164-76.15 76.15-76.15z"/><path d="m477.038 344.576c-4.207.457-7.246 4.237-6.789 8.451.045.397.03.756.03 1.16 0 .412.015.823-.03 1.235-.457 4.214 2.582 7.994 6.789 8.451.284.03.561.045.838.045 3.862 0 7.186-2.912 7.613-6.834.105-.966.12-1.931.12-2.897 0-.973-.015-1.841-.12-2.822-.456-4.207-4.236-7.224-8.451-6.789z"/><path d="m474.651 383.949c-4.057-1.235-8.331 1.07-9.559 5.113-15.398 50.796-61.456 84.93-114.617 84.93-66.022 0-119.73-53.746-119.73-119.805 0-66.022 53.708-119.73 119.73-119.73 52.308 0 99.437 34.927 114.617 84.93 1.228 4.05 5.494 6.348 9.559 5.113 4.057-1.228 6.34-5.509 5.113-9.559-16.625-54.769-64.838-92.273-121.392-95.498 14.21-21.844 22-47.465 22-73.674 0-74.465-60.587-135.053-135.06-135.053-74.51 0-135.135 60.587-135.135 135.053 0 31.894 11.476 62.74 31.781 86.891-65.244 9.498-115.565 65.651-115.565 133.481 0 74.518 60.587 135.143 135.06 135.143 38.813 0 75.083-16.333 100.732-45.07 23.703 20.564 54.53 33.108 88.291 33.108 59.959 0 111.915-38.505 129.289-95.814 1.226-4.05-1.065-8.331-5.114-9.559zm-248.739 22.426c-13.873 22.212-38.169 35.961-64.461 35.961-41.971 0-76.112-34.179-76.112-76.195 0-41.971 34.141-76.112 76.112-76.112 22.874 0 44.606 10.53 58.979 28.173-3.181 11.477-5.017 23.509-5.017 35.984.001 18.493 3.749 36.122 10.499 52.189zm-100.406-260.606c0-66.014 53.746-119.723 119.805-119.723 66.022 0 119.73 53.708 119.73 119.723 0 27.173-8.909 52.632-25.647 73.919-35.474 2.902-67.03 19.564-89.463 44.635-24.579-21.411-55.64-33.235-88.481-33.235-.018 0-.034.003-.052.003-22.789-22.351-35.892-53.232-35.892-85.322zm35.945 340.185c-66.022 0-119.73-53.746-119.73-119.812 0-66.014 53.708-119.723 119.73-119.723 29.318 0 57.033 10.631 78.888 29.864-5.593 7.882-10.447 16.321-14.266 25.323-17.014-16.978-40.282-26.907-64.622-26.907-50.422 0-91.442 41.02-91.442 91.443 0 50.467 41.02 91.525 91.442 91.525 28.547 0 55.197-13.435 72.369-35.696 4.909 8.425 10.704 16.243 17.254 23.386-22.765 25.787-54.988 40.597-89.623 40.597z"/><path d="m350.504 262.714c-50.445 0-91.48 41.043-91.48 91.487s41.035 91.48 91.48 91.48 91.48-41.035 91.48-91.48-41.035-91.487-91.48-91.487zm0 167.638c-41.986 0-76.15-34.164-76.15-76.15 0-41.993 34.164-76.157 76.15-76.157s76.15 34.164 76.15 76.157c0 41.986-34.164 76.15-76.15 76.15z"/><path d="m357.001 310.928c-2.8-4.476-10.195-4.476-12.995 0l-24.545 39.201c-1.557 2.485-1.557 5.644 0 8.129l24.545 39.209c2.996 4.791 9.993 4.8 12.995 0l24.545-39.209c1.557-2.485 1.557-5.644 0-8.129zm-6.497 68.028-15.502-24.762 15.502-24.754 15.502 24.754z"/><path d="m228.446 139.803h33.707c4.237 0 7.665-3.428 7.665-7.665s-3.428-7.665-7.665-7.665h-33.707c-4.237 0-7.665 3.428-7.665 7.665s3.428 7.665 7.665 7.665z"/><path d="m228.446 167.073h33.707c4.237 0 7.665-3.428 7.665-7.665s-3.428-7.665-7.665-7.665h-33.707c-4.237 0-7.665 3.428-7.665 7.665s3.428 7.665 7.665 7.665z"/><path d="m200.181 350.13-21.985-3.196-9.843-19.926c-2.575-5.24-11.168-5.24-13.743 0l-9.828 19.926-22 3.196c-2.889.419-5.285 2.44-6.19 5.21-.898 2.777-.15 5.824 1.939 7.86l15.914 15.517-3.75 21.902c-.494 2.874.689 5.786 3.047 7.5 2.373 1.714 5.494 1.939 8.077.576l19.664-10.345 19.679 10.345c5.575 2.936 12.203-1.784 11.123-8.084l-3.765-21.902 15.914-15.51c2.088-2.036 2.837-5.083 1.939-7.852-.907-2.777-3.303-4.798-6.192-5.217zm-25.256 20.42c-1.804 1.759-2.627 4.297-2.201 6.789l1.819 10.555-9.492-4.985c-2.246-1.183-4.91-1.183-7.141 0l-9.484 4.993 1.804-10.569c.427-2.485-.397-5.023-2.201-6.782l-7.673-7.485 10.614-1.542c2.5-.359 4.656-1.931 5.771-4.192l4.746-9.611 4.746 9.611c1.115 2.268 3.271 3.833 5.771 4.192l10.599 1.542z"/></g></g></svg>