<svg enable-background="new 0 0 512 512" height="512" viewBox="0 0 512 512" width="512" xmlns="http://www.w3.org/2000/svg"><g id="_x36_9_Nft_Stats"><g><path d="m136.494 345.352c-3.705 2.044-5.053 6.707-3.002 10.412 2.064 3.731 6.737 5.038 10.412 3.002l95.919-53.027c.494-.27.951-.591 1.37-.966l95.919-84.788c.397-.344.749-.734 1.063-1.153l95.919-128.219c2.538-3.383 1.841-8.189-1.549-10.727-3.391-2.545-8.197-1.841-10.727 1.549l-95.447 127.582-94.699 83.71z"/><path d="m453.579 404.652c-4.237 0-7.665 3.428-7.665 7.665v4.065c0 4.237 3.428 7.665 7.665 7.665s7.665-3.428 7.665-7.665v-4.065c0-4.237-3.428-7.665-7.665-7.665z"/><path d="m493.619 483.698h-32.375v-32.292c0-4.237-3.428-7.665-7.665-7.665s-7.665 3.428-7.665 7.665v32.27h-35.87v-303.079h35.87v196.688c0 4.237 3.428 7.665 7.665 7.665s7.665-3.428 7.665-7.665v-204.354c0-4.237-3.428-7.665-7.665-7.665h-51.201c-4.237 0-7.665 3.428-7.665 7.665v310.767h-29.418v-201.209c0-4.237-3.428-7.665-7.665-7.665h-51.186c-4.237 0-7.665 3.428-7.665 7.665v201.209h-29.403v-131.639c0-4.237-3.428-7.665-7.665-7.665h-51.186c-4.237 0-7.665 3.428-7.665 7.665v131.639h-29.403v-97.79c0-4.237-3.428-7.665-7.665-7.665h-51.186c-4.237 0-7.665 3.428-7.665 7.665v97.79h-32.404c-4.237 0-7.665 3.428-7.665 7.665s3.428 7.665 7.665 7.665h419.081c4.237 0 7.665-3.428 7.665-7.665.001-4.237-3.427-7.665-7.664-7.665zm-371.347 0v-90.125h35.855v90.125zm95.919 0v-123.974h35.855v123.974zm95.919 0v-193.544h35.855v193.544z"/><path d="m130.094 273.776c8.279 0 16.565-2.133 23.954-6.393l71.456-41.252c14.776-8.541 23.961-24.44 23.961-41.499v-82.505c0-17.059-9.185-32.959-23.961-41.499l-71.456-41.252c-14.776-8.533-33.138-8.541-47.914 0l-71.457 41.243c-14.776 8.541-23.961 24.44-23.961 41.499v82.505c0 17.059 9.185 32.959 23.961 41.499l71.456 41.252c7.389 4.268 15.675 6.402 23.961 6.402zm-104.048-89.152v-82.505c0-11.602 6.243-22.419 16.296-28.22l71.456-41.245c10.045-5.808 22.539-5.809 32.584 0l71.456 41.252c10.053 5.801 16.296 16.618 16.296 28.22v82.505c0 11.602-6.243 22.419-16.296 28.22l-71.456 41.252c-10.046 5.794-22.539 5.801-32.584-.007l-71.456-41.252c-10.053-5.801-16.296-16.618-16.296-28.22z"/><path d="m93.648 113.212c-4.237 0-7.665 3.428-7.665 7.665v19.283l-15.368-23.482c-4.161-6.342-14.08-3.405-14.08 4.199v44.995c0 4.237 3.428 7.665 7.665 7.665s7.665-3.428 7.665-7.665v-19.282l15.368 23.482c4.155 6.33 14.08 3.436 14.08-4.199v-44.995c0-4.237-3.429-7.666-7.665-7.666z"/><path d="m163.996 128.543h8.331v37.33c0 4.237 3.428 7.665 7.665 7.665s7.665-3.428 7.665-7.665v-37.33h8.324c4.237 0 7.665-3.428 7.665-7.665s-3.428-7.665-7.665-7.665h-31.985c-4.237 0-7.665 3.428-7.665 7.665 0 4.236 3.428 7.665 7.665 7.665z"/><path d="m119.899 173.538c4.237 0 7.665-3.428 7.665-7.665v-14.829h14.851c4.237 0 7.665-3.428 7.665-7.665s-3.428-7.665-7.665-7.665h-14.851v-7.171h14.851c4.237 0 7.665-3.428 7.665-7.665s-3.428-7.665-7.665-7.665h-22.516c-4.237 0-7.665 3.428-7.665 7.665v44.995c0 4.236 3.428 7.665 7.665 7.665z"/></g></g></svg>