<svg enable-background="new 0 0 512 512" height="512" viewBox="0 0 512 512" width="512" xmlns="http://www.w3.org/2000/svg"><g id="_x37_1_E-wallet"><g><path d="m348.034 180.427c-4.233 0-7.665 3.428-7.665 7.665v4.065c0 4.237 3.432 7.665 7.665 7.665s7.665-3.428 7.665-7.665v-4.065c0-4.237-3.432-7.665-7.665-7.665z"/><path d="m443.234 341.459v-55.33c0-18.474-15.027-33.497-33.497-33.497h-54.038v-25.451c0-4.237-3.432-7.665-7.665-7.665s-7.665 3.428-7.665 7.665v25.451h-149.47c-18.47 0-33.497 15.023-33.497 33.497v181.665c0 6.705 2.025 12.926 5.43 18.167h-66.905c-16.906 0-30.66-13.751-30.66-30.66v-398.586c0-16.91 13.755-30.66 30.66-30.66h28.827v18.399c0 12.68 10.315 22.995 22.995 22.995h110.16c12.68 0 22.995-10.315 22.995-22.995v-18.4h28.804c16.906 0 30.66 13.751 30.66 30.66v96.345c0 4.237 3.432 7.665 7.665 7.665s7.665-3.428 7.665-7.665v-96.344c0-25.361-20.63-45.991-45.991-45.991.771-.002-49.92-.035-213.781 0-25.361 0-45.991 20.63-45.991 45.991v398.586c0 25.361 20.63 45.991 45.991 45.991h313.81c18.47 0 33.497-15.023 33.497-33.497v-55.39c10.518-.905 18.83-9.652 18.83-20.401v-30.144c.001-10.748-8.311-19.496-18.829-20.401zm-177.66-297.005c0 4.229-3.44 7.665-7.665 7.665h-110.16c-4.226 0-7.665-3.436-7.665-7.665v-18.4h125.49zm144.163 441.507c-56.611 0-165.296 0-218.838 0-10.019 0-18.167-8.152-18.167-18.167v-181.665c0-10.016 8.148-18.167 18.167-18.167h218.838c10.019 0 18.167 8.152 18.167 18.167v55.153h-46.941c-11.348 0-20.581 9.23-20.581 20.578v30.144c0 11.348 9.233 20.578 20.581 20.578h46.941v55.213c0 10.015-8.148 18.166-18.167 18.166zm36.996-93.957c0 2.897-2.354 5.247-5.251 5.247h-60.52c-2.897 0-5.251-2.35-5.251-5.247v-30.144c0-2.897 2.354-5.247 5.251-5.247 1.391 0 61.964 0 60.52 0 2.897 0 5.251 2.35 5.251 5.247z"/><path d="m247.785 312.62c-18.265 0-33.123 14.859-33.123 33.123v62.376c0 18.265 14.859 33.123 33.123 33.123 18.261 0 33.119-14.859 33.119-33.123v-62.376c0-18.264-14.858-33.123-33.119-33.123zm17.789 95.5c0 9.813-7.98 17.793-17.789 17.793-9.81 0-17.793-7.98-17.793-17.793v-62.376c0-9.813 7.983-17.793 17.793-17.793s17.789 7.98 17.789 17.793z"/></g></g></svg>