<svg enable-background="new 0 0 512 512" height="512" viewBox="0 0 512 512" width="512" xmlns="http://www.w3.org/2000/svg"><g id="_x37_2_Tokens"><g><path d="m477.063 216.806h-19.255c1.066-2.717 1.702-5.652 1.702-8.743v-30.354c0-13.272-10.794-24.066-24.066-24.066h-10.872c1.055-2.704 1.687-5.619 1.687-8.691v-30.331c0-3.086-.635-6.015-1.699-8.728h10.898c13.264 0 24.055-10.787 24.055-24.051v-30.338c0-13.264-10.79-24.051-24.055-24.051h-248.221c-13.264 0-24.058 10.787-24.058 24.051v30.339c0 3.084.635 6.009 1.697 8.721h-10.896c-13.264 0-24.055 10.794-24.055 24.058v30.331c0 13.264 10.79 24.058 24.055 24.058h10.888c-1.055 2.706-1.688 5.623-1.688 8.698v19.531c-2.906-.176-5.79-.444-8.739-.444-59.349 0-111.852 35.623-133.75 90.761-1.564 3.937.359 8.391 4.293 9.956 3.934 1.557 8.391-.367 9.952-4.297 19.567-49.262 66.478-81.09 119.506-81.09 53.078 0 98.736 32.345 118.327 78.352.02.049.045.091.066.138 6.532 15.393 10.151 32.31 10.151 50.057 0 70.88-57.664 128.54-128.544 128.54-62.567 0-115.838-44.598-126.669-106.039-.737-4.169-4.708-6.999-8.882-6.213-4.166.734-6.95 4.708-6.217 8.878 12.126 68.784 71.748 118.705 141.767 118.705h229.722c13.272 0 24.07-10.764 24.07-23.991v-30.354c0-3.091-.636-6.026-1.702-8.743h30.446c13.272 0 24.07-10.794 24.07-24.066v-30.279c0-6.352-2.52-12.096-6.555-16.401 4.035-4.305 6.555-10.048 6.555-16.401v-30.354c0-3.092-.636-6.026-1.702-8.743h17.721c13.227 0 23.991-10.794 23.991-24.066v-30.279c-.003-13.267-10.767-24.061-23.994-24.061zm-298.554-134.963v-30.339c0-4.806 3.915-8.721 8.728-8.721h248.222c4.809 0 8.724 3.915 8.724 8.721v30.339c0 4.806-3.915 8.721-8.724 8.721-63.154 0-185.339 0-248.222 0-4.813 0-8.728-3.915-8.728-8.721zm-33.254 63.11v-30.331c0-4.813 3.915-8.728 8.724-8.728h248.222c4.813 0 8.728 3.915 8.728 8.728v30.331c0 4.748-3.82 8.586-8.543 8.691-25.4.004 92.011-.014-248.407.037-4.809 0-8.724-3.915-8.724-8.728zm33.254 32.756c0-4.748 3.824-8.593 8.551-8.698 25.397-.004-92.003.014 248.384-.037 4.817 0 8.736 3.922 8.736 8.736v30.354c0 4.821-3.919 8.743-8.736 8.743-82.151 0-132.885 0-208.179 0-14.782-8.726-31.217-14.855-48.756-17.829zm214.392 252.493v30.354c0 4.776-3.919 8.661-8.739 8.661h-165.47c22.041-11.064 40.924-27.507 54.718-47.757h110.751c4.821-.001 8.74 3.921 8.74 8.742zm52.813-32.809c0 4.813-3.919 8.736-8.739 8.736-56.194 0-99.043 0-154.571 0 7.527-14.654 12.603-30.733 14.705-47.75h139.866c4.821 0 8.739 3.922 8.739 8.736zm0-93.434v30.354c0 4.813-3.919 8.736-8.739 8.736h-138.781c.013-.797.12-1.572.12-2.373 0-15.896-2.695-31.151-7.478-45.459h146.138c4.822-.001 8.74 3.922 8.74 8.742zm40.01-32.808c0 4.895-3.803 8.736-8.661 8.736-73.78 0-76.819 0-192.409 0-8.607-18.358-20.926-34.6-36.065-47.75h228.474c4.776 0 8.661 3.922 8.661 8.736z"/><path d="m18.62 337.142c4.031 0 7.414-3.151 7.646-7.231.064-1.108.183-2.163.307-3.264 0 0 .041-.374.041-.382.472-4.207-2.579-7.807-6.786-8.279-4.289-.509-8.021 2.747-8.492 6.954-.153 1.385-.296 2.71-.378 4.102-.249 4.391 3.245 8.1 7.662 8.1z"/><path d="m154.421 437.957c53.637 0 97.277-43.64 97.277-97.274 0-53.648-43.64-97.289-97.277-97.289s-97.277 43.64-97.277 97.289c0 53.633 43.64 97.274 97.277 97.274zm0-179.232c45.186 0 81.947 36.769 81.947 81.958 0 45.182-36.761 81.943-81.947 81.943s-81.947-36.761-81.947-81.943c0-45.19 36.761-81.958 81.947-81.958z"/><path d="m126.088 353.917-4.065 23.699c-1.076 6.308 5.562 11.008 11.127 8.077l21.27-11.191 21.292 11.191c5.597 2.948 12.196-1.816 11.12-8.077l-4.072-23.706 17.209-16.775c4.548-4.426 2.03-12.159-4.248-13.07l-23.781-3.458-10.648-21.551c-1.291-2.62-3.956-4.274-6.872-4.274-.827.246-4.81.095-6.875 4.274l-10.626 21.551-23.8 3.458c-6.275.91-8.798 8.642-4.248 13.07zm17.022-18.721c2.5-.359 4.66-1.931 5.775-4.192l5.539-11.236 5.554 11.236c1.115 2.268 3.275 3.833 5.771 4.192l12.4 1.804-8.975 8.75c-1.808 1.759-2.635 4.297-2.204 6.782l2.122 12.366-11.105-5.839c-1.115-.591-2.343-.883-3.567-.883-1.228 0-2.451.292-3.571.883l-11.09 5.831 2.118-12.358c.423-2.485-.4-5.023-2.208-6.782l-8.975-8.75z"/></g></g></svg>