<svg enable-background="new 0 0 512 512" height="512" viewBox="0 0 512 512" width="512" xmlns="http://www.w3.org/2000/svg"><g id="_x37_3_Box"><g><path d="m424.146 405.545c-4.233 0-7.665 3.428-7.665 7.665v3.982c0 4.237 3.432 7.665 7.665 7.665s7.665-3.428 7.665-7.665v-3.982c0-4.237-3.432-7.665-7.665-7.665z"/><path d="m287.11 150.852-24.612-39.314c-2.807-4.476-10.188-4.476-12.995 0l-24.612 39.314c-1.557 2.485-1.557 5.644 0 8.129l24.612 39.314c1.404 2.238 3.855 3.601 6.497 3.601s5.094-1.362 6.497-3.601l24.612-39.314c1.558-2.485 1.558-5.644.001-8.129zm-31.11 28.931-15.57-24.867 15.57-24.867 15.57 24.867z"/><path d="m430.483 222.772c-1.43-2.073-3.788-3.309-6.307-3.309h-39.308c10.036-19.954 15.362-42.005 15.362-64.57 0-79.503-64.716-144.178-144.26-144.178-79.499 0-144.178 64.674-144.178 144.178 0 22.621 5.303 44.67 15.291 64.57h-39.26c-2.519 0-4.877 1.235-6.307 3.309l-34.819 50.407c-5.285 7.643-5.884 17.509-1.568 25.735 4.319 8.234 12.774 13.347 22.071 13.347h12.931v164.029c0 13.781 11.176 24.994 24.912 24.994h301.857c13.736 0 24.912-11.213 24.912-24.994v-24.066c0-4.237-3.432-7.665-7.665-7.665s-7.665 3.428-7.665 7.665v24.066c0 5.33-4.297 9.664-9.581 9.664h-301.857c-5.285 0-9.581-4.334-9.581-9.664v-164.029h321.018v65.917c0 4.237 3.432 7.665 7.665 7.665s7.665-3.428 7.665-7.665v-65.917h12.987c9.297 0 17.752-5.113 22.071-13.347 4.315-8.227 3.717-18.092-1.568-25.735zm-303.36-67.878c0-71.045 57.799-128.847 128.847-128.847 71.093 0 128.93 57.803 128.93 128.847 0 22.803-6.073 45.012-17.468 64.57h-38.545c15.743-17.667 24.585-40.296 24.585-64.57 0-53.761-43.738-97.498-97.502-97.498-53.761 0-97.498 43.738-97.498 97.498 0 24.273 8.841 46.903 24.585 64.57h-38.543c-11.344-19.487-17.391-41.695-17.391-64.57zm78.22 64.569c-20.027-15.736-31.541-39.1-31.541-64.57 0-45.31 36.862-82.168 82.168-82.168 45.31 0 82.172 36.858 82.172 82.168 0 25.469-11.514 48.833-31.541 64.57zm247.948 72.333c-1.684 3.219-4.862 5.135-8.492 5.135h-377.598c-3.63 0-6.808-1.916-8.492-5.135-1.688-3.211-1.46-6.917.603-9.903l32.532-47.099h328.313l32.532 47.099c2.061 2.986 2.29 6.691.602 9.903z"/></g></g></svg>