<svg enable-background="new 0 0 512 512" height="512" viewBox="0 0 512 512" width="512" xmlns="http://www.w3.org/2000/svg"><g id="_x37_4_Gaming"><g><path d="m195.371 26.065c4.233 0 7.665-3.428 7.665-7.665s-3.432-7.665-7.665-7.665h-4.065c-4.233 0-7.665 3.428-7.665 7.665s3.432 7.665 7.665 7.665z"/><path d="m375.655 10.735h-145.255c-4.233 0-7.665 3.428-7.665 7.665s3.432 7.665 7.665 7.665h145.256c60.819 0 110.298 49.516 110.298 110.373 0 60.775-49.516 110.224-110.377 110.224-45.104 0-85.188-27.06-102.121-68.949-1.171-2.897-3.982-4.791-7.107-4.791h-20.619c-3.125 0-5.936 1.894-7.107 4.791-16.928 41.889-57.073 68.949-102.274 68.949-60.819 0-110.302-49.449-110.302-110.224 0-61.033 49.408-110.373 110.302-110.373h19.93c4.233 0 7.665-3.428 7.665-7.665s-3.432-7.665-7.665-7.665h-19.93c-69.378 0-125.632 56.215-125.632 125.703 0 69.233 56.358 125.554 125.632 125.554 49.737 0 94.1-28.767 114.438-73.739h10.506c20.338 44.973 64.641 73.739 114.284 73.739 69.315 0 125.707-56.321 125.707-125.554 0-69.315-56.358-125.703-125.629-125.703z"/><path d="m136.401 204.496c13.186 0 23.916-10.727 23.916-23.916v-20.308h20.308c13.186 0 23.916-10.727 23.916-23.916s-10.73-23.916-23.916-23.916h-20.308v-20.308c0-13.189-10.73-23.916-23.916-23.916s-23.912 10.727-23.912 23.916v20.308h-20.308c-13.186 0-23.916 10.727-23.916 23.916s10.73 23.916 23.916 23.916h20.308v20.308c0 13.19 10.726 23.916 23.912 23.916zm-44.22-59.554c-4.735 0-8.586-3.855-8.586-8.586s3.851-8.586 8.586-8.586h27.973c4.233 0 7.665-3.428 7.665-7.665v-27.973c0-4.731 3.851-8.586 8.582-8.586 4.735 0 8.586 3.855 8.586 8.586v27.973c0 4.237 3.432 7.665 7.665 7.665h27.973c4.735 0 8.586 3.855 8.586 8.586s-3.851 8.586-8.586 8.586h-27.973c-4.233 0-7.665 3.428-7.665 7.665v27.973c0 4.731-3.851 8.586-8.586 8.586-4.731 0-8.582-3.855-8.582-8.586v-27.973c0-4.237-3.432-7.665-7.665-7.665z"/><path d="m375.674 156.679c-13.193 0-23.924 10.734-23.924 23.924 0 13.189 10.73 23.924 23.924 23.924s23.924-10.734 23.924-23.924-10.731-23.924-23.924-23.924zm0 32.517c-4.738 0-8.593-3.855-8.593-8.593s3.855-8.593 8.593-8.593 8.593 3.855 8.593 8.593c0 4.656-3.933 8.593-8.593 8.593z"/><path d="m375.674 68.208c-13.193 0-23.924 10.734-23.924 23.924s10.73 23.924 23.924 23.924 23.924-10.734 23.924-23.924-10.731-23.924-23.924-23.924zm0 32.517c-4.738 0-8.593-3.855-8.593-8.593s3.855-8.593 8.593-8.593 8.593 3.855 8.593 8.593c0 4.656-3.933 8.593-8.593 8.593z"/><path d="m331.439 112.447c-13.193 0-23.924 10.734-23.924 23.924s10.73 23.916 23.924 23.916 23.924-10.727 23.924-23.916-10.731-23.924-23.924-23.924zm0 32.51c-4.66 0-8.593-3.93-8.593-8.586 0-4.738 3.855-8.593 8.593-8.593s8.593 3.855 8.593 8.593c0 4.731-3.855 8.586-8.593 8.586z"/><path d="m419.909 160.287c13.193 0 23.924-10.727 23.924-23.916s-10.73-23.924-23.924-23.924-23.924 10.734-23.924 23.924 10.731 23.916 23.924 23.916zm0-32.509c4.738 0 8.593 3.855 8.593 8.593 0 4.731-3.855 8.586-8.593 8.586-4.66 0-8.593-3.93-8.593-8.586 0-4.738 3.855-8.593 8.593-8.593z"/><path d="m256.03 256.977c-67.328 0-122.107 54.779-122.107 122.11 0 67.369 54.779 122.178 122.107 122.178s122.107-54.809 122.107-122.178c0-67.331-54.779-122.11-122.107-122.11zm0 228.958c-58.877 0-106.776-47.929-106.776-106.848 0-58.881 47.9-106.78 106.776-106.78s106.776 47.9 106.776 106.78c0 58.918-47.899 106.848-106.776 106.848z"/><path d="m221.331 350.036c-4.233 0-7.665 3.428-7.665 7.665v17.134l-13.96-21.334c-1.86-2.837-5.382-4.117-8.605-3.144-3.249.966-5.476 3.952-5.476 7.343v42.839c0 4.237 3.432 7.665 7.665 7.665s7.665-3.428 7.665-7.665v-17.134l13.96 21.334c4.155 6.33 14.08 3.436 14.08-4.199v-42.839c.001-4.236-3.431-7.665-7.664-7.665z"/><path d="m318.769 350.036h-30.451c-4.233 0-7.665 3.428-7.665 7.665s3.432 7.665 7.665 7.665h7.56v35.174c0 4.237 3.432 7.665 7.665 7.665s7.665-3.428 7.665-7.665v-35.174h7.56c4.233 0 7.665-3.428 7.665-7.665.002-4.236-3.431-7.665-7.664-7.665z"/><path d="m267.767 365.366c4.233 0 7.665-3.428 7.665-7.665s-3.432-7.665-7.665-7.665h-21.442c-4.233 0-7.665 3.428-7.665 7.665v42.839c0 4.237 3.432 7.665 7.665 7.665s7.665-3.428 7.665-7.665v-13.75h13.777c4.233 0 7.665-3.428 7.665-7.665s-3.432-7.665-7.665-7.665h-13.777v-6.093h13.777z"/></g></g></svg>