<svg enable-background="new 0 0 512 512" height="512" viewBox="0 0 512 512" width="512" xmlns="http://www.w3.org/2000/svg"><g id="_x37_5_Crown"><g><path d="m461.233 167.608-101.383 50.003-80.794-119.843c-10.997-16.376-35.073-16.397-46.066-.007l-80.802 119.85-101.402-50.011c-22.818-11.204-47.53 11.66-38.004 35.272l61.924 153.631v42.279c0 15.293 12.445 27.741 27.737 27.741h307.129c15.293 0 27.737-12.448 27.737-27.741v-42.244l6.677-16.621c1.579-3.93-.326-8.391-4.255-9.971s-8.391.329-9.967 4.252l-5.274 13.129h-336.95l-60.539-150.189c-4.276-10.594 6.809-20.79 17.018-15.787l107.39 52.967c3.428 1.699 7.598.591 9.746-2.59l84.556-125.412c4.701-7.029 15.895-7.029 20.622.007l84.548 125.404c2.145 3.181 6.307 4.289 9.746 2.59l107.383-52.96c10.204-5.048 21.215 5.277 17.022 15.779l-25.372 62.93c-1.583 3.93.314 8.391 4.241 9.978 3.926 1.572 8.395-.322 9.974-4.244l25.383-62.953c9.406-23.554-15.217-46.474-38.025-35.239zm-39.254 231.173c0 6.842-5.565 12.411-12.407 12.411h-307.129c-6.842 0-12.407-5.569-12.407-12.411v-36.095h331.943z"/><path d="m455.488 290.841c-3.945-1.557-8.395.374-9.948 4.304l-1.609 4.065c-1.561 3.937.367 8.391 4.304 9.948.924.367 1.883.539 2.818.539 3.054 0 5.94-1.834 7.13-4.843l1.609-4.065c1.561-3.937-.367-8.391-4.304-9.948z"/><path d="m249.51 212.101-29.238 46.709c-1.557 2.485-1.557 5.644 0 8.129l29.238 46.702c1.404 2.238 3.855 3.601 6.497 3.601s5.094-1.362 6.497-3.601l29.238-46.702c1.557-2.485 1.557-5.644 0-8.129l-29.238-46.709c-2.798-4.476-10.194-4.476-12.994 0zm6.498 83.029-20.196-32.255 20.196-32.262 20.196 32.262z"/></g></g></svg>