<svg enable-background="new 0 0 512 512" height="512" viewBox="0 0 512 512" width="512" xmlns="http://www.w3.org/2000/svg"><g id="_x37_6_Nft_Chat"><g><path d="m345.171 103.323c0-51.073-41.552-92.625-92.625-92.625h-189.757c-4.237 0-7.665 3.428-7.665 7.665v251.37c0 3.159 1.939 5.988 4.873 7.141.906.352 1.856.524 2.792.524 2.096 0 4.154-.861 5.637-2.47l72.856-78.979h111.264c51.073-.001 92.625-41.553 92.625-92.626zm-207.251 77.295c-2.141 0-4.184.898-5.637 2.47l-61.83 67.032v-224.092h182.092c42.622 0 77.295 34.673 77.295 77.295s-34.673 77.295-77.295 77.295z"/><path d="m376.699 249.881c4.237 0 7.665-3.428 7.665-7.665s-3.428-7.665-7.665-7.665h-4.057c-4.237 0-7.665 3.428-7.665 7.665s3.428 7.665 7.665 7.665z"/><path d="m449.211 234.55h-37.48c-4.237 0-7.665 3.428-7.665 7.665s3.428 7.665 7.665 7.665h29.815v224.13l-61.815-67.055c-1.452-1.572-3.496-2.47-5.637-2.47h-114.67c-42.607 0-77.265-34.658-77.265-77.258 0-42.652 34.658-77.347 77.265-77.347h78.186c4.237 0 7.665-3.428 7.665-7.665s-3.428-7.665-7.665-7.665h-78.186c-51.058 0-92.595 41.574-92.595 92.678 0 51.051 41.537 92.588 92.595 92.588h111.309l72.841 79.017c1.482 1.609 3.541 2.47 5.637 2.47.936 0 1.879-.172 2.792-.524 2.934-1.153 4.873-3.982 4.873-7.141v-251.422c0-4.237-3.428-7.666-7.665-7.666z"/><path d="m160.601 72.602c-4.237 0-7.665 3.428-7.665 7.665v23.123l-17.883-27.322c-1.856-2.83-5.345-4.11-8.608-3.144-3.249.966-5.472 3.952-5.472 7.343v48.828c0 4.237 3.428 7.665 7.665 7.665s7.665-3.428 7.665-7.665v-23.123l17.883 27.322c4.155 6.33 14.08 3.436 14.08-4.199v-48.828c.001-4.236-3.428-7.665-7.665-7.665z"/><path d="m261.97 129.095v-41.163h9.686c4.237 0 7.665-3.428 7.665-7.665s-3.428-7.665-7.665-7.665h-34.703c-4.237 0-7.665 3.428-7.665 7.665s3.428 7.665 7.665 7.665h9.686v41.163c0 4.237 3.428 7.665 7.665 7.665s7.666-3.428 7.666-7.665z"/><path d="m213.531 87.932c4.237 0 7.665-3.428 7.665-7.665s-3.428-7.665-7.665-7.665h-24.448c-4.237 0-7.665 3.428-7.665 7.665v48.828c0 4.237 3.428 7.665 7.665 7.665s7.665-3.428 7.665-7.665v-16.752h16.782c4.237 0 7.665-3.428 7.665-7.665s-3.428-7.665-7.665-7.665h-16.782v-9.08h16.783z"/><path d="m386.363 306.553c0-4.237-3.428-7.665-7.665-7.665h-133.675c-4.237 0-7.665 3.428-7.665 7.665s3.428 7.665 7.665 7.665h133.676c4.236 0 7.664-3.428 7.664-7.665z"/><path d="m245.023 340.545c-4.237 0-7.665 3.428-7.665 7.665s3.428 7.665 7.665 7.665h66.838c4.237 0 7.665-3.428 7.665-7.665s-3.428-7.665-7.665-7.665z"/></g></g></svg>