<svg enable-background="new 0 0 512 512" height="512" viewBox="0 0 512 512" width="512" xmlns="http://www.w3.org/2000/svg"><g id="_x37_7_Download"><g><path d="m405.059 173.331c-4.237 0-7.665 3.428-7.665 7.665v4.057c0 4.237 3.428 7.665 7.665 7.665s7.665-3.428 7.665-7.665v-4.057c0-4.236-3.428-7.665-7.665-7.665z"/><path d="m412.724 124.885c0-19.979-10.749-38.588-28.056-48.566l-100.634-58.094c-17.291-10.016-38.775-10.008-56.036-.007l-100.635 58.102c-17.314 9.97-28.063 28.579-28.063 48.565v116.205c0 19.986 10.749 38.595 28.056 48.566l100.627 58.095c8.646 5.008 18.339 7.515 28.033 7.515 9.686 0 19.372-2.508 28.011-7.508l100.635-58.102c17.314-9.978 28.063-28.587 28.063-48.566v-21.004c0-4.237-3.428-7.665-7.665-7.665s-7.665 3.428-7.665 7.665v21.004c0 14.514-7.815 28.033-20.39 35.286l-100.65 58.11c-12.546 7.283-28.13 7.268-40.691-.007l-100.65-58.102c-12.576-7.246-20.383-20.765-20.383-35.286v-116.206c0-14.522 7.807-28.041 20.39-35.286l100.657-58.11c12.531-7.276 28.123-7.268 40.684.007l100.65 58.102c12.568 7.253 20.383 20.772 20.383 35.286v21.079c0 4.237 3.428 7.665 7.665 7.665s7.665-3.428 7.665-7.665v-21.078z"/><path d="m259.833 60.144c-2.365-1.362-5.3-1.362-7.665 0l-100.657 58.11c-2.373 1.37-3.833 3.9-3.833 6.64v116.219c0 2.74 1.46 5.27 3.833 6.64l100.657 58.117c1.183.681 2.508 1.026 3.833 1.026s2.65-.344 3.833-1.026l100.657-58.11c2.373-1.37 3.833-3.9 3.833-6.64v-116.22c0-2.74-1.46-5.27-3.833-6.64zm89.16 176.552-92.992 53.686-92.992-53.693v-107.372l92.992-53.686 92.992 53.693z"/><path d="m219.487 152.799c-4.237 0-7.665 3.428-7.665 7.665v19.365l-15.42-23.564c-1.856-2.83-5.352-4.11-8.608-3.144-3.249.966-5.472 3.952-5.472 7.343v45.077c0 4.237 3.428 7.665 7.665 7.665s7.665-3.428 7.665-7.665v-19.365l15.42 23.564c4.155 6.33 14.08 3.436 14.08-4.199v-45.077c0-4.237-3.429-7.665-7.665-7.665z"/><path d="m289.977 168.129h8.354v37.412c0 4.237 3.428 7.665 7.665 7.665s7.665-3.428 7.665-7.665v-37.412h8.354c4.237 0 7.665-3.428 7.665-7.665s-3.428-7.665-7.665-7.665h-32.038c-4.237 0-7.665 3.428-7.665 7.665s3.429 7.665 7.665 7.665z"/><path d="m238.126 160.464v45.077c0 4.237 3.428 7.665 7.665 7.665s7.665-3.428 7.665-7.665v-14.874h14.896c4.237 0 7.665-3.428 7.665-7.665s-3.428-7.665-7.665-7.665h-14.896v-7.209h14.896c4.237 0 7.665-3.428 7.665-7.665s-3.428-7.665-7.665-7.665h-22.561c-4.237.001-7.665 3.429-7.665 7.666z"/><path d="m295.157 443.287h-14.672v-42.337c0-13.481-10.966-24.448-24.448-24.448-13.474 0-24.44 10.966-24.44 24.448v42.338h-14.754c-3.039 0-5.794 1.797-7.021 4.581-1.22 2.785-.681 6.033 1.377 8.271l39.194 42.667c1.452 1.579 3.496 2.478 5.644 2.478s4.199-.906 5.652-2.485l39.119-42.667c2.051-2.238 2.59-5.487 1.362-8.264-1.219-2.785-3.974-4.582-7.013-4.582zm-39.126 39-21.738-23.669h4.97c4.237 0 7.665-3.428 7.665-7.665v-50.003c0-5.03 4.087-9.117 9.11-9.117 5.03 0 9.117 4.087 9.117 9.117v50.003c0 4.237 3.428 7.665 7.665 7.665h4.91z"/><path d="m429.364 383.853h-14.679v-42.345c0-13.474-10.966-24.44-24.44-24.44s-24.44 10.966-24.44 24.44v42.345h-14.761c-3.039 0-5.794 1.797-7.021 4.581-1.22 2.785-.681 6.033 1.377 8.271l39.201 42.667c1.452 1.579 3.496 2.478 5.644 2.478h.007c2.141 0 4.192-.906 5.644-2.485l39.119-42.667c2.051-2.238 2.59-5.487 1.362-8.264-1.219-2.785-3.974-4.581-7.013-4.581zm-39.126 38.999-21.745-23.669h4.978c4.237 0 7.665-3.428 7.665-7.665v-50.01c0-5.023 4.087-9.11 9.11-9.11s9.11 4.087 9.11 9.11v50.01c0 4.237 3.428 7.665 7.665 7.665h4.918z"/><path d="m160.958 383.853h-14.679v-42.345c0-13.474-10.966-24.44-24.44-24.44-13.481 0-24.448 10.966-24.448 24.44v42.345h-14.754c-3.039 0-5.794 1.797-7.021 4.581-1.22 2.785-.681 6.033 1.377 8.271l39.201 42.667c1.452 1.579 3.496 2.478 5.644 2.478h.007c2.141 0 4.192-.906 5.644-2.485l39.119-42.667c2.051-2.238 2.59-5.487 1.362-8.264-1.218-2.785-3.973-4.581-7.012-4.581zm-39.127 38.999-21.745-23.669h4.97c4.237 0 7.665-3.428 7.665-7.665v-50.01c0-5.023 4.087-9.11 9.117-9.11 5.023 0 9.11 4.087 9.11 9.11v50.01c0 4.237 3.428 7.665 7.665 7.665h4.918z"/></g></g></svg>