<svg enable-background="new 0 0 512 512" height="512" viewBox="0 0 512 512" width="512" xmlns="http://www.w3.org/2000/svg"><g id="_x37_8_Upload"><g><path d="m405.057 314.671c-4.237 0-7.665 3.428-7.665 7.665v4.065c0 4.237 3.428 7.665 7.665 7.665s7.665-3.428 7.665-7.665v-4.065c0-4.237-3.428-7.665-7.665-7.665z"/><path d="m384.667 222.338-100.635-58.095c-17.291-10.016-38.775-10.008-56.036-.007l-100.635 58.102c-17.314 9.971-28.063 28.58-28.063 48.566v116.204c0 19.986 10.749 38.595 28.056 48.566l100.627 58.095c8.646 5.008 18.339 7.515 28.033 7.515 9.686 0 19.372-2.508 28.011-7.508l100.635-58.102c17.314-9.978 28.063-28.587 28.063-48.566v-25.675c0-4.237-3.428-7.665-7.665-7.665s-7.665 3.428-7.665 7.665v25.675c0 14.514-7.815 28.033-20.39 35.286l-100.65 58.11c-12.546 7.283-28.13 7.268-40.691-.008l-100.65-58.102c-12.576-7.246-20.383-20.765-20.383-35.286v-116.204c0-14.522 7.807-28.041 20.39-35.286l100.657-58.11c12.531-7.276 28.123-7.268 40.684.007l100.65 58.102c12.568 7.253 20.383 20.772 20.383 35.286v16.401c0 4.237 3.428 7.665 7.665 7.665s7.665-3.428 7.665-7.665v-16.401c-.001-19.978-10.75-38.587-28.056-48.565z"/><path d="m259.832 206.139c-2.365-1.362-5.3-1.362-7.665 0l-100.657 58.103c-2.373 1.37-3.833 3.9-3.833 6.64v116.227c0 2.74 1.46 5.27 3.833 6.64l100.657 58.117c1.183.681 2.508 1.025 3.833 1.025s2.65-.344 3.833-1.025l100.657-58.11c2.373-1.37 3.833-3.9 3.833-6.64v-116.22c0-2.74-1.46-5.27-3.833-6.64zm89.159 176.553-92.992 53.686-92.992-53.693v-107.38l92.992-53.678 92.992 53.693z"/><path d="m219.485 298.794c-4.237 0-7.665 3.428-7.665 7.665v19.365l-15.42-23.564c-4.161-6.342-14.08-3.405-14.08 4.199v45.077c0 4.237 3.428 7.665 7.665 7.665s7.665-3.428 7.665-7.665v-19.365l15.42 23.564c4.155 6.33 14.08 3.436 14.08-4.199v-45.076c0-4.237-3.428-7.666-7.665-7.666z"/><path d="m289.976 314.125h8.354v37.412c0 4.237 3.428 7.665 7.665 7.665s7.665-3.428 7.665-7.665v-37.412h8.361c4.237 0 7.665-3.428 7.665-7.665s-3.428-7.665-7.665-7.665h-32.045c-4.237 0-7.665 3.428-7.665 7.665 0 4.236 3.428 7.665 7.665 7.665z"/><path d="m238.124 306.46v45.077c0 4.237 3.428 7.665 7.665 7.665s7.665-3.428 7.665-7.665v-14.874h14.896c4.237 0 7.665-3.428 7.665-7.665s-3.428-7.665-7.665-7.665h-14.896v-7.209h14.896c4.237 0 7.665-3.428 7.665-7.665s-3.428-7.665-7.665-7.665h-22.561c-4.237 0-7.665 3.429-7.665 7.666z"/><path d="m255.962 135.499c13.474 0 24.44-10.966 24.44-24.44v-42.345h14.754c3.039 0 5.794-1.797 7.021-4.581 1.22-2.785.681-6.033-1.377-8.271l-39.194-42.667c-1.452-1.579-3.496-2.478-5.644-2.478s-4.199.906-5.652 2.485l-39.119 42.667c-2.051 2.238-2.59 5.487-1.362 8.264 1.22 2.785 3.975 4.581 7.014 4.581h14.672v42.345c-.001 13.474 10.965 24.44 24.447 24.44zm.007-105.785 21.738 23.669h-4.97c-4.237 0-7.665 3.428-7.665 7.665v50.01c0 5.023-4.087 9.11-9.11 9.11-5.03 0-9.117-4.087-9.117-9.11v-50.01c0-4.237-3.428-7.665-7.665-7.665h-4.91z"/><path d="m121.755 194.941c13.474 0 24.44-10.966 24.44-24.448v-42.338h14.761c3.039 0 5.794-1.797 7.021-4.581 1.22-2.785.681-6.033-1.377-8.271l-39.201-42.675c-1.452-1.579-3.496-2.478-5.644-2.478 0 0 0 0-.007 0-2.141 0-4.192.906-5.644 2.485l-39.119 42.675c-2.051 2.238-2.59 5.487-1.362 8.264 1.22 2.785 3.975 4.581 7.014 4.581h14.679v42.338c-.001 13.482 10.965 24.448 24.439 24.448zm.007-105.785 21.745 23.669h-4.978c-4.237 0-7.665 3.428-7.665 7.665v50.003c0 5.03-4.087 9.117-9.11 9.117s-9.11-4.087-9.11-9.117v-50.003c0-4.237-3.428-7.665-7.665-7.665h-4.918z"/><path d="m395.805 72.628c-1.452-1.579-3.496-2.478-5.644-2.478 0 0 0 0-.007 0-2.141 0-4.192.906-5.644 2.485l-39.119 42.675c-2.051 2.238-2.59 5.487-1.362 8.264 1.22 2.785 3.975 4.581 7.014 4.581h14.679v42.338c0 13.481 10.966 24.448 24.44 24.448 13.481 0 24.448-10.966 24.448-24.448v-42.338h14.754c3.039 0 5.794-1.797 7.021-4.581 1.22-2.785.681-6.033-1.377-8.271zm11.139 40.197c-4.237 0-7.665 3.428-7.665 7.665v50.003c0 5.03-4.087 9.117-9.117 9.117-5.023 0-9.11-4.087-9.11-9.117v-50.003c0-4.237-3.428-7.665-7.665-7.665h-4.918l21.7-23.669 21.745 23.669z"/></g></g></svg>