<svg enable-background="new 0 0 512 512" height="512" viewBox="0 0 512 512" width="512" xmlns="http://www.w3.org/2000/svg"><g id="_x37_9_Buyer"><g><path d="m179.777 485.972h-4.065c-4.237 0-7.665 3.428-7.665 7.665s3.428 7.665 7.665 7.665h4.065c4.237 0 7.665-3.428 7.665-7.665s-3.428-7.665-7.665-7.665z"/><path d="m372.026 288.124c-24.59-13.863-55.452-8.391-73.32 12.995-22.478 26.624-63.332 26.374-85.394.105-18.025-21.483-48.895-26.993-73.425-13.085-38.707 21.977-70.296 54.165-91.323 93.059-29.311 53.745 11.051 120.104 73.185 120.104h18.931c4.237 0 7.665-3.428 7.665-7.665s-3.428-7.665-7.665-7.665h-18.93c-50.463 0-83.483-53.855-59.712-97.461 19.672-36.387 49.209-66.486 85.417-87.041 18.085-10.263 40.848-6.205 54.12 9.604 28.145 33.556 80.199 33.859 108.869-.09 13.144-15.749 35.863-19.762 54.045-9.514 36.222 20.503 65.782 50.602 85.499 87.063 23.684 43.514-9.228 97.438-59.809 97.438h-175.378c-4.237 0-7.665 3.428-7.665 7.665s3.428 7.665 7.665 7.665h175.377c62.171 0 102.552-66.327 73.283-120.082-21.079-38.983-52.69-71.17-91.435-93.095z"/><path d="m255.994 249.858c65.94 0 119.58-53.641 119.58-119.58s-53.641-119.58-119.58-119.58-119.58 53.641-119.58 119.58 53.64 119.58 119.58 119.58zm0-223.83c57.481 0 104.25 46.769 104.25 104.25s-46.769 104.25-104.25 104.25-104.25-46.769-104.25-104.25 46.769-104.25 104.25-104.25z"/><path d="m193.258 159.366c4.237 0 7.665-3.428 7.665-7.665v-17.134l13.96 21.334c4.165 6.345 14.08 3.399 14.08-4.199v-42.839c0-4.237-3.428-7.665-7.665-7.665s-7.665 3.428-7.665 7.665v17.134l-13.96-21.334c-4.166-6.349-14.08-3.404-14.08 4.199v42.839c0 4.237 3.428 7.665 7.665 7.665z"/><path d="m288.279 116.527h7.56v35.174c0 4.237 3.428 7.665 7.665 7.665s7.665-3.428 7.665-7.665v-35.174h7.56c4.237 0 7.665-3.428 7.665-7.665s-3.428-7.665-7.665-7.665h-30.451c-4.237 0-7.665 3.428-7.665 7.665.001 4.237 3.429 7.665 7.666 7.665z"/><path d="m246.285 159.366c4.237 0 7.665-3.428 7.665-7.665v-13.758h13.781c4.237 0 7.665-3.428 7.665-7.665s-3.428-7.665-7.665-7.665h-13.781v-6.086h13.781c4.237 0 7.665-3.428 7.665-7.665s-3.428-7.665-7.665-7.665h-21.446c-4.237 0-7.665 3.428-7.665 7.665v42.839c0 4.237 3.429 7.665 7.665 7.665z"/></g></g></svg>