<svg enable-background="new 0 0 512 512" height="512" viewBox="0 0 512 512" width="512" xmlns="http://www.w3.org/2000/svg"><g id="_x38_0_Music"><g><path d="m62.321 350.879c-4.237 0-7.665 3.428-7.665 7.665v81.397c0 4.237 3.428 7.665 7.665 7.665h69.271c4.237 0 7.665-3.428 7.665-7.665v-81.397c0-4.237-3.428-7.665-7.665-7.665zm61.605 81.397h-53.94v-66.066h53.94z"/><path d="m503.335 389.617c-4.237 0-7.665 3.428-7.665 7.665v4.065c0 4.237 3.428 7.665 7.665 7.665s7.665-3.428 7.665-7.665v-4.065c0-4.237-3.428-7.665-7.665-7.665z"/><path d="m475.736 297.253h-15.24v-20.053c0-19.455-15.824-35.287-35.279-35.287h-2.523c-1.764-23.964 7.033-64.692-19.196-114.38 12.574-13.184 13.312-32.875 1.986-46.513-77.94-93.845-221.148-93.676-298.962 0-11.235 13.529-10.679 33.189 1.953 46.477-26.306 49.801-17.487 90.959-19.215 114.415h-2.463c-19.455 0-35.279 15.832-35.279 35.287v20.024h-15.231c-19.455 0-35.287 15.832-35.287 35.287v133.466c0 19.455 15.832 35.287 35.287 35.287h121.347c19.455 0 35.279-15.832 35.279-35.287v-133.466c0-19.455-15.824-35.286-35.279-35.286h-15.233v-20.024c0-19.455-15.832-35.287-35.286-35.287h-2.523c1.658-24.239-6.427-60.954 16.691-105.877 14.83 5.69 30.394.961 39.892-10.372 49.537-59.122 140.025-59.246 189.667 0 9.362 11.159 24.824 16.126 39.841 10.39 23.113 44.926 14.994 81.173 16.681 105.859h-2.463c-19.455 0-35.287 15.832-35.287 35.287v20.054h-15.218c-19.485 0-35.331 15.817-35.331 35.257v133.451c0 19.485 15.847 35.339 35.331 35.339h121.339c19.447 0 35.264-15.854 35.264-35.339v-29.59c0-4.237-3.428-7.665-7.665-7.665s-7.665 3.428-7.665 7.665v29.59c0 11.034-8.945 20.009-19.934 20.009h-121.339c-11.026 0-20.001-8.975-20.001-20.009v-133.452c0-10.989 8.975-19.926 20.001-19.926h121.339c10.989 0 19.934 8.938 19.934 19.926v29.74c0 4.237 3.428 7.665 7.665 7.665s7.665-3.428 7.665-7.665v-29.74c.001-19.44-15.816-35.257-35.263-35.257zm-298.154 35.257v133.466c0 11.004-8.953 19.956-19.949 19.956h-121.346c-11.004 0-19.956-8.953-19.956-19.956v-133.466c0-11.004 8.953-19.956 19.956-19.956h121.347c10.996 0 19.948 8.952 19.948 19.956zm-50.512-55.31v20.024h-60.22v-20.024c0-11.004 8.953-19.956 19.949-19.956h20.316c11.003 0 19.955 8.952 19.955 19.956zm235.523-161.387c-55.675-66.421-157.383-66.556-213.171 0-17.034 20.375-47.427-5.357-31.102-25.001 71.818-86.452 203.697-86.294 275.368 0 16.333 19.655-14.062 45.336-31.095 25.001zm22.352 161.387c0-11.004 8.953-19.956 19.956-19.956h20.316c10.996 0 19.949 8.953 19.949 19.956v20.024h-60.221z"/><path d="m380.423 350.879c-4.237 0-7.665 3.428-7.665 7.665v81.397c0 4.237 3.428 7.665 7.665 7.665h69.271c4.237 0 7.665-3.428 7.665-7.665v-81.397c0-4.237-3.428-7.665-7.665-7.665zm61.606 81.397h-53.94v-66.066h53.94z"/><path d="m228.977 271.631v-42.839c0-4.237-3.428-7.665-7.665-7.665s-7.665 3.428-7.665 7.665v17.134l-13.96-21.334c-4.158-6.338-14.08-3.405-14.08 4.199v42.839c0 4.237 3.428 7.665 7.665 7.665s7.665-3.428 7.665-7.665v-17.134l13.96 21.334c4.156 6.33 14.08 3.436 14.08-4.199z"/><path d="m326.408 228.791c0-4.237-3.428-7.665-7.665-7.665h-30.451c-4.237 0-7.665 3.428-7.665 7.665s3.428 7.665 7.665 7.665h7.56v35.174c0 4.237 3.428 7.665 7.665 7.665s7.665-3.428 7.665-7.665v-35.174h7.56c4.238 0 7.666-3.428 7.666-7.665z"/><path d="m267.745 236.456c4.237 0 7.665-3.428 7.665-7.665s-3.428-7.665-7.665-7.665h-21.446c-4.237 0-7.665 3.428-7.665 7.665v42.839c0 4.237 3.428 7.665 7.665 7.665s7.665-3.428 7.665-7.665v-13.758h13.781c4.237 0 7.665-3.428 7.665-7.665s-3.428-7.665-7.665-7.665h-13.781v-6.086z"/><path d="m299.783 406.556h-10.158c-2.485 0-4.813 1.205-6.25 3.226l-17.509 24.642-12.74-60.7c-.651-3.114-3.159-5.502-6.303-5.996-3.151-.517-6.265.996-7.852 3.758l-17.164 29.994h-9.574c-4.237 0-7.665 3.428-7.665 7.665s3.428 7.665 7.665 7.665h14.02c2.747 0 5.285-1.475 6.655-3.855l9.357-16.356 12.201 58.125c1.349 6.485 9.85 8.348 13.751 2.867l25.368-35.706h6.198c4.237 0 7.665-3.428 7.665-7.665 0-4.235-3.429-7.664-7.665-7.664z"/></g></g></svg>