<?xml version="1.0" encoding="UTF-8" standalone="no"?>
<svg
   xmlns:dc="http://purl.org/dc/elements/1.1/"
   xmlns:cc="http://creativecommons.org/ns#"
   xmlns:rdf="http://www.w3.org/1999/02/22-rdf-syntax-ns#"
   xmlns:svg="http://www.w3.org/2000/svg"
   xmlns="http://www.w3.org/2000/svg"
   xmlns:sodipodi="http://sodipodi.sourceforge.net/DTD/sodipodi-0.dtd"
   xmlns:inkscape="http://www.inkscape.org/namespaces/inkscape"
   id="Layer_1"
   enable-background="new 0 0 479.984 479.984"
   height="514.00043"
   viewBox="0 0 1167.2271 481.85934"
   width="1245.0837"
   version="1.1"
   sodipodi:docname="logo-simple.svg"
   inkscape:version="0.92.5 (2060ec1f9f, 2020-04-08)">
  <metadata
     id="metadata9">
    <rdf:RDF>
      <cc:Work
         rdf:about="">
        <dc:format>image/svg+xml</dc:format>
        <dc:type
           rdf:resource="http://purl.org/dc/dcmitype/StillImage" />
        <dc:title></dc:title>
      </cc:Work>
    </rdf:RDF>
  </metadata>
  <defs
     id="defs7" />
  <sodipodi:namedview
     pagecolor="#ffffff"
     bordercolor="#666666"
     borderopacity="1"
     objecttolerance="10"
     gridtolerance="10"
     guidetolerance="10"
     inkscape:pageopacity="0"
     inkscape:pageshadow="2"
     inkscape:window-width="1868"
     inkscape:window-height="1016"
     id="namedview5"
     showgrid="false"
     inkscape:zoom="0.49463727"
     inkscape:cx="629.22122"
     inkscape:cy="151.51434"
     inkscape:window-x="52"
     inkscape:window-y="27"
     inkscape:window-maximized="1"
     inkscape:current-layer="Layer_1"
     fit-margin-top="1"
     fit-margin-left="1"
     fit-margin-right="1"
     fit-margin-bottom="1" />
  <path
     d="M 411.99847,98.094969 230.01047,4.5059688 c -9.253,-4.75800005 -20.301,-4.75800005 -29.553,0 L 18.470469,98.094969 C 7.6554688,103.65697 0.93746875,114.66597 0.93746875,126.82797 v 228.203 c 0,12.162 6.71799995,23.171 17.53300025,28.733 l 181.988001,93.589 c 9.252,4.758 20.299,4.759 29.553,0 l 181.988,-93.589 c 10.815,-5.562 17.533,-16.571 17.533,-28.733 v -228.203 c -10e-4,-12.162 -6.719,-23.172 -17.534,-28.733001 z m 1.533,256.936001 c 0,6.139 -3.391,11.697 -8.851,14.504 l -181.988,93.589 c -4.671,2.401 -10.247,2.401 -14.918,0 l -181.987001,-93.589 c -5.459,-2.808 -8.851,-8.365 -8.851,-14.504 v -228.203 c 0,-6.139 3.391,-11.697 8.851,-14.504 C 222.12847,11.353969 209.58047,16.933969 215.23447,16.933969 c 5.679,0 -6.805,-5.534 189.183,95.254001 l -189.17,96.901 -154.382001,-79.614 c -3.925,-2.025 -8.751,-0.483 -10.777,3.444 -2.025,3.927 -0.483,8.751 3.444,10.777 l 153.702001,79.263 v 199.022 c 0,4.418 3.582,8 8,8 4.418,0 8,-3.582 8,-8 v -199.007 l 190.241,-97.45 c 0.088,1.104 0.056,227.918 0.056,229.507 z"
     id="block"
     style="fill:#000000;fill-opacity:0.9800995"
     inkscape:connector-curvature="0"
     inkscape:label="#path2" />
  <g
     aria-label="Artists"
     style="font-style:normal;font-variant:normal;font-weight:normal;font-stretch:normal;font-size:183.75115967px;line-height:125%;font-family:Montserrat;-inkscape-font-specification:Montserrat;letter-spacing:0px;word-spacing:0px;fill:#000000;fill-opacity:0.98009949;stroke:none;stroke-width:4.59377861px;stroke-linecap:butt;stroke-linejoin:miter;stroke-opacity:1"
     id="text4948">
    <path
       d="m 582.27201,210.46651 h -54.39035 l -10.10631,24.99016 h -37.11773 l 56.77911,-128.62582 h 35.83147 l 56.96286,128.62582 h -37.85274 z m -10.65757,-26.82767 -16.5376,-41.16026 -16.53761,41.16026 z"
       style="font-style:normal;font-variant:normal;font-weight:800;font-stretch:normal;font-family:Montserrat;-inkscape-font-specification:'Montserrat Ultra-Bold';fill:#000000;fill-opacity:0.98009949;stroke-width:4.59377861px"
       id="path9347" />
    <path
       d="m 672.1262,147.80736 q 5.32878,-6.79879 13.78133,-10.10631 8.63631,-3.49127 19.66138,-3.49127 v 31.42144 q -4.77753,-0.55125 -7.9013,-0.55125 -11.20882,0 -17.64011,6.06379 -6.24754,6.06379 -6.24754,18.55887 v 45.75404 h -34.91272 v -99.59313 h 33.25896 z"
       style="font-style:normal;font-variant:normal;font-weight:800;font-stretch:normal;font-family:Montserrat;-inkscape-font-specification:'Montserrat Ultra-Bold';fill:#000000;fill-opacity:0.98009949;stroke-width:4.59377861px"
       id="path9349" />
    <path
       d="m 791.74789,231.41414 q -4.41003,2.75627 -10.84132,4.22628 -6.24754,1.47001 -13.41384,1.47001 -19.47762,0 -29.95144,-9.55506 -10.47381,-9.55507 -10.47381,-28.48143 v -33.44272 h -14.51634 v -26.09266 h 14.51634 v -25.90891 h 34.91272 v 25.90891 h 22.78514 v 26.09266 H 761.9802 v 33.07521 q 0,5.32879 2.75627,8.45256 2.94001,2.94002 7.71754,2.94002 6.06379,0 10.65757,-3.12377 z"
       style="font-style:normal;font-variant:normal;font-weight:800;font-stretch:normal;font-family:Montserrat;-inkscape-font-specification:'Montserrat Ultra-Bold';fill:#000000;fill-opacity:0.98009949;stroke-width:4.59377861px"
       id="path9351" />
    <path
       d="m 805.16146,135.86354 h 34.91272 v 99.59313 h -34.91272 z m 17.45636,-11.02507 q -9.55506,0 -15.4351,-5.32879 -5.88004,-5.32878 -5.88004,-13.23008 0,-7.9013 5.88004,-13.230084 5.88004,-5.328783 15.4351,-5.328783 9.55506,0 15.4351,5.145032 5.88003,4.961281 5.88003,12.862585 0,8.2688 -5.88003,13.78133 -5.88004,5.32879 -15.4351,5.32879 z"
       style="font-style:normal;font-variant:normal;font-weight:800;font-stretch:normal;font-family:Montserrat;-inkscape-font-specification:'Montserrat Ultra-Bold';fill:#000000;fill-opacity:0.98009949;stroke-width:4.59377861px"
       id="path9353" />
    <path
       d="m 898.8745,237.11043 q -12.49507,0 -24.62265,-2.75627 -12.12758,-2.94002 -19.47762,-7.5338 l 10.47381,-23.88765 q 6.7988,4.22628 16.1701,6.79879 9.37131,2.38877 18.55887,2.38877 8.45255,0 11.94383,-1.65376 3.67502,-1.83751 3.67502,-5.14504 0,-3.30752 -4.41003,-4.59377 -4.22627,-1.47001 -13.59758,-2.75627 -11.94383,-1.47001 -20.39638,-3.85878 -8.2688,-2.38876 -14.33259,-8.82005 -6.06379,-6.43129 -6.06379,-18.00762 0,-9.55506 5.69628,-16.9051 5.69629,-7.5338 16.53761,-11.76008 11.02507,-4.41002 26.27642,-4.41002 10.84131,0 21.49888,2.20501 10.65757,2.20501 17.82386,6.24754 l -10.47381,23.7039 q -13.23009,-7.35005 -28.66518,-7.35005 -8.26881,0 -12.12758,2.02127 -3.85877,1.83751 -3.85877,4.96128 0,3.49127 4.22627,4.96128 4.22628,1.28626 13.96509,2.75627 12.31133,1.83751 20.39638,4.22627 8.08505,2.38877 13.96509,8.82006 6.06379,6.24754 6.06379,17.64011 0,9.37131 -5.69629,16.90511 -5.69629,7.35004 -16.90511,11.57632 -11.02507,4.22628 -26.64392,4.22628 z"
       style="font-style:normal;font-variant:normal;font-weight:800;font-stretch:normal;font-family:Montserrat;-inkscape-font-specification:'Montserrat Ultra-Bold';fill:#000000;fill-opacity:0.98009949;stroke-width:4.59377861px"
       id="path9355" />
    <path
       d="m 1031.9101,231.41414 q -4.41,2.75627 -10.8413,4.22628 -6.2475,1.47001 -13.4138,1.47001 -19.47763,0 -29.95144,-9.55506 -10.47382,-9.55507 -10.47382,-28.48143 V 165.63122 H 952.7134 v -26.09266 h 14.51634 v -25.90891 h 34.91276 v 25.90891 h 22.7851 v 26.09266 h -22.7851 v 33.07521 q 0,5.32879 2.7562,8.45256 2.94,2.94002 7.7176,2.94002 6.0638,0 10.6575,-3.12377 z"
       style="font-style:normal;font-variant:normal;font-weight:800;font-stretch:normal;font-family:Montserrat;-inkscape-font-specification:'Montserrat Ultra-Bold';fill:#000000;fill-opacity:0.98009949;stroke-width:4.59377861px"
       id="path9357" />
    <path
       d="m 1081.5227,237.11043 q -12.4951,0 -24.6227,-2.75627 -12.1275,-2.94002 -19.4776,-7.5338 l 10.4738,-23.88765 q 6.7988,4.22628 16.1701,6.79879 9.3713,2.38877 18.5589,2.38877 8.4526,0 11.9438,-1.65376 3.6751,-1.83751 3.6751,-5.14504 0,-3.30752 -4.4101,-4.59377 -4.2263,-1.47001 -13.5976,-2.75627 -11.9438,-1.47001 -20.3963,-3.85878 -8.2688,-2.38876 -14.3326,-8.82005 -6.0638,-6.43129 -6.0638,-18.00762 0,-9.55506 5.6963,-16.9051 5.6963,-7.5338 16.5376,-11.76008 11.025,-4.41002 26.2764,-4.41002 10.8413,0 21.4989,2.20501 10.6575,2.20501 17.8238,6.24754 l -10.4738,23.7039 q -13.2301,-7.35005 -28.6652,-7.35005 -8.2688,0 -12.1275,2.02127 -3.8588,1.83751 -3.8588,4.96128 0,3.49127 4.2263,4.96128 4.2262,1.28626 13.9651,2.75627 12.3113,1.83751 20.3963,4.22627 8.0851,2.38877 13.9651,8.82006 6.0638,6.24754 6.0638,17.64011 0,9.37131 -5.6963,16.90511 -5.6963,7.35004 -16.9051,11.57632 -11.0251,4.22628 -26.6439,4.22628 z"
       style="font-style:normal;font-variant:normal;font-weight:800;font-stretch:normal;font-family:Montserrat;-inkscape-font-specification:'Montserrat Ultra-Bold';fill:#000000;fill-opacity:0.98009949;stroke-width:4.59377861px"
       id="path9359" />
  </g>
  <g
     aria-label="on the block"
     style="font-style:normal;font-variant:normal;font-weight:normal;font-stretch:normal;font-size:193.41105652px;line-height:125%;font-family:Montserrat;-inkscape-font-specification:Montserrat;letter-spacing:0px;word-spacing:0px;fill:#000000;fill-opacity:0.98009949;stroke:none;stroke-width:4.83527565px;stroke-linecap:butt;stroke-linejoin:miter;stroke-opacity:1"
     id="text4948-3">
    <path
       d="m 516.31698,346.74989 q -8.24135,0 -14.87233,-3.41021 -6.63097,-3.41022 -10.4201,-9.47282 -3.6944,-6.0626 -3.6944,-13.73559 0,-7.57825 3.6944,-13.64086 3.78913,-6.0626 10.32537,-9.37809 6.63098,-3.41021 14.96706,-3.41021 8.33608,0 14.96705,3.41021 6.63097,3.31549 10.32537,9.37809 3.6944,5.96788 3.6944,13.64086 0,7.67299 -3.6944,13.73559 -3.6944,6.0626 -10.32537,9.47282 -6.63097,3.41021 -14.96705,3.41021 z m 0,-14.30395 q 4.73641,0 7.76771,-3.22076 3.0313,-3.31549 3.0313,-9.09391 0,-5.68369 -3.0313,-8.90445 -3.0313,-3.22076 -7.76771,-3.22076 -4.73641,0 -7.76771,3.22076 -3.03131,3.22076 -3.03131,8.90445 0,5.77842 3.03131,9.09391 3.0313,3.22076 7.76771,3.22076 z"
       style="font-style:normal;font-variant:normal;font-weight:800;font-stretch:normal;font-size:94.72818756px;font-family:Montserrat;-inkscape-font-specification:'Montserrat Ultra-Bold';fill:#000000;fill-opacity:0.98009949;stroke-width:4.83527565px"
       id="path9362" />
    <path
       d="m 587.07879,293.70211 q 9.56754,0 15.34596,5.68369 5.87315,5.68369 5.87315,17.1458 v 29.36574 h -17.99836 v -26.42917 q 0,-10.51482 -8.4308,-10.51482 -4.64169,0 -7.48353,3.0313 -2.74712,3.0313 -2.74712,9.0939 v 24.81879 h -17.99835 v -51.34268 h 17.1458 v 5.58896 q 3.0313,-3.12603 7.19934,-4.73641 4.16804,-1.7051 9.09391,-1.7051 z"
       style="font-style:normal;font-variant:normal;font-weight:800;font-stretch:normal;font-size:94.72818756px;font-family:Montserrat;-inkscape-font-specification:'Montserrat Ultra-Bold';fill:#000000;fill-opacity:0.98009949;stroke-width:4.83527565px"
       id="path9364" />
    <path
       d="m 682.56458,343.81332 q -2.27348,1.42092 -5.58896,2.17875 -3.22076,0.75782 -6.91516,0.75782 -10.04119,0 -15.4407,-4.92586 -5.3995,-4.92587 -5.3995,-14.68287 v -17.24053 h -7.48353 v -13.45141 h 7.48353 v -13.35667 h 17.99835 v 13.35667 h 11.7463 v 13.45141 h -11.7463 v 17.05107 q 0,2.74712 1.42093,4.3575 1.51565,1.51565 3.97858,1.51565 3.12603,0 5.49424,-1.61038 z"
       style="font-style:normal;font-variant:normal;font-weight:800;font-stretch:normal;font-size:94.72818756px;font-family:Montserrat;-inkscape-font-specification:'Montserrat Ultra-Bold';fill:#000000;fill-opacity:0.98009949;stroke-width:4.83527565px"
       id="path9366" />
    <path
       d="m 722.91866,293.70211 q 9.56754,0 15.34596,5.68369 5.87315,5.68369 5.87315,17.1458 v 29.36574 h -17.99835 v -26.42917 q 0,-10.51482 -8.43081,-10.51482 -4.64168,0 -7.48353,3.0313 -2.74712,3.0313 -2.74712,9.0939 v 24.81879 h -17.99835 v -70.28832 h 17.99835 v 23.68205 q 2.93658,-2.74712 6.91516,-4.16804 3.97858,-1.42092 8.52554,-1.42092 z"
       style="font-style:normal;font-variant:normal;font-weight:800;font-stretch:normal;font-size:94.72818756px;font-family:Montserrat;-inkscape-font-specification:'Montserrat Ultra-Bold';fill:#000000;fill-opacity:0.98009949;stroke-width:4.83527565px"
       id="path9368" />
    <path
       d="m 808.64751,320.32073 q 0,0.18945 -0.28418,4.45222 h -37.32291 q 1.13674,3.97859 4.3575,6.15734 3.31549,2.08402 8.24135,2.08402 3.6944,0 6.34679,-1.04201 2.74712,-1.04201 5.49424,-3.41022 l 9.47281,9.85173 q -7.48352,8.33608 -21.88221,8.33608 -8.99917,0 -15.8196,-3.41021 -6.82043,-3.41022 -10.60956,-9.47282 -3.6944,-6.0626 -3.6944,-13.73559 0,-7.57825 3.59967,-13.54613 3.6944,-6.0626 10.13592,-9.47282 6.44151,-3.41021 14.49341,-3.41021 7.67298,0 13.92504,3.22076 6.25206,3.12603 9.85173,9.18863 3.6944,5.96788 3.6944,14.20923 z m -27.37644,-13.83032 q -4.16804,0 -7.00989,2.36821 -2.74712,2.3682 -3.50494,6.44151 h 21.02966 q -0.75783,-4.07331 -3.59967,-6.44151 -2.74712,-2.36821 -6.91516,-2.36821 z"
       style="font-style:normal;font-variant:normal;font-weight:800;font-stretch:normal;font-size:94.72818756px;font-family:Montserrat;-inkscape-font-specification:'Montserrat Ultra-Bold';fill:#000000;fill-opacity:0.98009949;stroke-width:4.83527565px"
       id="path9370" />
    <path
       d="m 876.85151,293.70211 q 7.00989,0 12.69358,3.22076 5.77842,3.22075 9.09391,9.28336 3.41021,5.96787 3.41021,13.92504 0,7.95717 -3.41021,14.01977 -3.31549,6.06261 -9.09391,9.37809 -5.68369,3.22076 -12.69358,3.22076 -10.13591,0 -15.15651,-5.96787 v 5.11532 h -17.1458 v -70.28832 h 17.99836 v 23.39787 q 5.21005,-5.30478 14.30395,-5.30478 z m -3.78912,38.74383 q 4.73641,0 7.76771,-3.22076 3.0313,-3.31549 3.0313,-9.09391 0,-5.68369 -3.0313,-8.90445 -3.0313,-3.22076 -7.76771,-3.22076 -4.73641,0 -7.76772,3.22076 -3.0313,3.22076 -3.0313,8.90445 0,5.77842 3.0313,9.09391 3.03131,3.22076 7.76772,3.22076 z"
       style="font-style:normal;font-variant:normal;font-weight:800;font-stretch:normal;font-size:94.72818756px;font-family:Montserrat;-inkscape-font-specification:'Montserrat Ultra-Bold';fill:#000000;fill-opacity:0.98009949;stroke-width:4.83527565px"
       id="path9372" />
    <path
       d="m 910.38526,275.60902 h 17.99836 v 70.28832 h -17.99836 z"
       style="font-style:normal;font-variant:normal;font-weight:800;font-stretch:normal;font-size:94.72818756px;font-family:Montserrat;-inkscape-font-specification:'Montserrat Ultra-Bold';fill:#000000;fill-opacity:0.98009949;stroke-width:4.83527565px"
       id="path9374" />
    <path
       d="m 965.80123,346.74989 q -8.24135,0 -14.87232,-3.41021 -6.63098,-3.41022 -10.42011,-9.47282 -3.69439,-6.0626 -3.69439,-13.73559 0,-7.57825 3.69439,-13.64086 3.78913,-6.0626 10.32538,-9.37809 6.63097,-3.41021 14.96705,-3.41021 8.33608,0 14.96705,3.41021 6.63098,3.31549 10.32538,9.37809 3.6944,5.96788 3.6944,13.64086 0,7.67299 -3.6944,13.73559 -3.6944,6.0626 -10.32538,9.47282 -6.63097,3.41021 -14.96705,3.41021 z m 0,-14.30395 q 4.73641,0 7.76771,-3.22076 3.0313,-3.31549 3.0313,-9.09391 0,-5.68369 -3.0313,-8.90445 -3.0313,-3.22076 -7.76771,-3.22076 -4.73641,0 -7.76771,3.22076 -3.0313,3.22076 -3.0313,8.90445 0,5.77842 3.0313,9.09391 3.0313,3.22076 7.76771,3.22076 z"
       style="font-style:normal;font-variant:normal;font-weight:800;font-stretch:normal;font-size:94.72818756px;font-family:Montserrat;-inkscape-font-specification:'Montserrat Ultra-Bold';fill:#000000;fill-opacity:0.98009949;stroke-width:4.83527565px"
       id="path9376" />
    <path
       d="m 1029.3637,346.74989 q -8.5256,0 -15.2513,-3.41021 -6.7257,-3.41022 -10.5148,-9.47282 -3.69439,-6.0626 -3.69439,-13.73559 0,-7.67298 3.69439,-13.64086 3.7891,-6.0626 10.5148,-9.37809 6.7257,-3.41021 15.2513,-3.41021 8.715,0 15.0618,3.78913 6.3467,3.69439 8.9991,10.32537 l -13.925,7.10461 q -3.5049,-6.91516 -10.2307,-6.91516 -4.8311,0 -8.0518,3.22076 -3.1261,3.22076 -3.1261,8.90445 0,5.77842 3.1261,9.09391 3.2207,3.22076 8.0518,3.22076 6.7258,0 10.2307,-6.91516 l 13.925,7.10461 q -2.6524,6.63098 -8.9991,10.4201 -6.3468,3.6944 -15.0618,3.6944 z"
       style="font-style:normal;font-variant:normal;font-weight:800;font-stretch:normal;font-size:94.72818756px;font-family:Montserrat;-inkscape-font-specification:'Montserrat Ultra-Bold';fill:#000000;fill-opacity:0.98009949;stroke-width:4.83527565px"
       id="path9378" />
    <path
       d="m 1083.3586,327.89898 -5.3048,5.39951 v 12.59885 h -17.9984 v -70.28832 h 17.9984 v 36.84927 l 18.3773,-17.90363 h 21.3138 l -21.3138,21.97694 23.1136,29.36574 h -21.7875 z"
       style="font-style:normal;font-variant:normal;font-weight:800;font-stretch:normal;font-size:94.72818756px;font-family:Montserrat;-inkscape-font-specification:'Montserrat Ultra-Bold';fill:#000000;fill-opacity:0.98009949;stroke-width:4.83527565px"
       id="path9380" />
  </g>
</svg>
