<?xml version="1.0" encoding="UTF-8" standalone="no"?>
<svg
   xmlns:dc="http://purl.org/dc/elements/1.1/"
   xmlns:cc="http://creativecommons.org/ns#"
   xmlns:rdf="http://www.w3.org/1999/02/22-rdf-syntax-ns#"
   xmlns:svg="http://www.w3.org/2000/svg"
   xmlns="http://www.w3.org/2000/svg"
   xmlns:sodipodi="http://sodipodi.sourceforge.net/DTD/sodipodi-0.dtd"
   xmlns:inkscape="http://www.inkscape.org/namespaces/inkscape"
   id="Layer_1"
   enable-background="new 0 0 479.984 479.984"
   height="514.00043"
   viewBox="0 0 1167.2271 481.85934"
   width="1245.0837"
   version="1.1"
   sodipodi:docname="logo-aotb3.svg"
   inkscape:version="0.92.5 (2060ec1f9f, 2020-04-08)">
  <metadata
     id="metadata9">
    <rdf:RDF>
      <cc:Work
         rdf:about="">
        <dc:format>image/svg+xml</dc:format>
        <dc:type
           rdf:resource="http://purl.org/dc/dcmitype/StillImage" />
        <dc:title></dc:title>
      </cc:Work>
    </rdf:RDF>
  </metadata>
  <defs
     id="defs7" />
  <sodipodi:namedview
     pagecolor="#ffffff"
     bordercolor="#666666"
     borderopacity="1"
     objecttolerance="10"
     gridtolerance="10"
     guidetolerance="10"
     inkscape:pageopacity="0"
     inkscape:pageshadow="2"
     inkscape:window-width="1868"
     inkscape:window-height="1016"
     id="namedview5"
     showgrid="false"
     inkscape:zoom="0.40151978"
     inkscape:cx="37.409407"
     inkscape:cy="-185.82721"
     inkscape:window-x="52"
     inkscape:window-y="27"
     inkscape:window-maximized="1"
     inkscape:current-layer="Layer_1"
     fit-margin-top="1"
     fit-margin-left="1"
     fit-margin-right="1"
     fit-margin-bottom="1" />
  <path
     d="M 411.99847,98.094969 230.01047,4.5059688 c -9.253,-4.75800005 -20.301,-4.75800005 -29.553,0 L 18.470469,98.094969 C 7.6554688,103.65697 0.93746875,114.66597 0.93746875,126.82797 v 228.203 c 0,12.162 6.71799995,23.171 17.53300025,28.733 l 181.988001,93.589 c 9.252,4.758 20.299,4.759 29.553,0 l 181.988,-93.589 c 10.815,-5.562 17.533,-16.571 17.533,-28.733 v -228.203 c -10e-4,-12.162 -6.719,-23.172 -17.534,-28.733001 z m 1.533,256.936001 c 0,6.139 -3.391,11.697 -8.851,14.504 l -181.988,93.589 c -4.671,2.401 -10.247,2.401 -14.918,0 l -181.987001,-93.589 c -5.459,-2.808 -8.851,-8.365 -8.851,-14.504 v -228.203 c 0,-6.139 3.391,-11.697 8.851,-14.504 C 222.12847,11.353969 209.58047,16.933969 215.23447,16.933969 c 5.679,0 -6.805,-5.534 189.183,95.254001 l -189.17,96.901 -154.382001,-79.614 c -3.925,-2.025 -8.751,-0.483 -10.777,3.444 -2.025,3.927 -0.483,8.751 3.444,10.777 l 153.702001,79.263 v 199.022 c 0,4.418 3.582,8 8,8 4.418,0 8,-3.582 8,-8 v -199.007 l 190.241,-97.45 c 0.088,1.104 0.056,227.918 0.056,229.507 z"
     id="path2"
     style="fill:#ffffff;fill-opacity:1"
     inkscape:connector-curvature="0" />
  <text
     xml:space="preserve"
     style="font-style:normal;font-variant:normal;font-weight:normal;font-stretch:normal;font-size:158.85112px;line-height:125%;font-family:Montserrat;-inkscape-font-specification:Montserrat;letter-spacing:0px;word-spacing:0px;fill:#ffffff;fill-opacity:1;stroke:none;stroke-width:3.97127795px;stroke-linecap:butt;stroke-linejoin:miter;stroke-opacity:1"
     x="466.28116"
     y="271.04526"
     id="text4948"><tspan
       sodipodi:role="line"
       id="tspan4946"
       x="466.28116"
       y="271.04526"
       style="font-style:normal;font-variant:normal;font-weight:800;font-stretch:normal;font-family:Montserrat;-inkscape-font-specification:'Montserrat Ultra-Bold';fill:#ffffff;fill-opacity:1;stroke-width:3.97127795px">ARTISTS</tspan></text>
  <text
     xml:space="preserve"
     style="font-style:normal;font-variant:normal;font-weight:normal;font-stretch:normal;font-size:175.3739624px;line-height:125%;font-family:Montserrat;-inkscape-font-specification:Montserrat;letter-spacing:0px;word-spacing:0px;fill:#ffffff;fill-opacity:1;stroke:none;stroke-width:4.38434982px;stroke-linecap:butt;stroke-linejoin:miter;stroke-opacity:1"
     x="579.24585"
     y="405.14822"
     id="text4948-7-3"
     transform="scale(1.0217781,0.97868607)"><tspan
       sodipodi:role="line"
       id="tspan4946-5-5"
       x="579.24585"
       y="405.14822"
       style="font-style:normal;font-variant:normal;font-weight:800;font-stretch:normal;font-size:151.04418945px;font-family:Montserrat;-inkscape-font-specification:'Montserrat Ultra-Bold';fill:#ffffff;fill-opacity:1;stroke-width:4.38434982px">BLOCK</tspan></text>
  <g
     id="g4821"
     transform="matrix(0.26431185,0.1289135,0,0.34008804,43.364176,177.22566)"
     style="fill:#cee9ff;fill-opacity:0.64676621">
    <g
       id="g4755"
       style="fill:#cee9ff;fill-opacity:0.64676621">
	<g
   id="g4753"
   style="fill:#cee9ff;fill-opacity:0.64676621">
		<path
   id="path4751"
   d="M 446.575,0 H 65.425 C 29.349,0 0,29.35 0,65.426 V 446.575 C 0,482.65 29.22283,512.25073 65.425,512 l 388.24366,-2.68892 c 36.20217,-0.25073 66.09635,-29.60825 65.425,-65.426 L 512,65.426 C 511.32865,29.608255 482.651,0 446.575,0 Z m 42.36066,443.88608 c 0,19.447 -15.75299,35.13185 -35.267,35.267 L 65.425,481.842 C 45.909987,481.97716 30.157,466.021 30.157,446.575 v -55.007 l 99.255,-84.451 c 3.622,-3.082 8.906,-3.111 12.562,-0.075 l 62.174,51.628 c 5.995,4.977 14.795,4.569 20.304,-0.946 L 372.181,209.77 c 2.67,-2.675 5.783,-2.935 7.408,-2.852 1.62,0.083 4.695,0.661 7.078,3.596 l 102.26966,114.50108 v 118.871 z m 0,-166.71 L 410.076,191.499 c -7.117,-8.764 -17.666,-14.122 -28.942,-14.701 -11.268,-0.57 -22.317,3.672 -30.294,11.662 L 212.832,326.681 161.242,283.842 C 146.283,271.42 124.679,271.549 109.869,284.15 L 30.157,351.972 V 65.426 c 0,-19.447 15.821,-35.268 35.268,-35.268 h 381.15 c 19.447,0 35.267,15.821 35.267,35.268 z"
   inkscape:connector-curvature="0"
   sodipodi:nodetypes="ssssssssscssscccccccccccccccccccssssc"
   style="fill:#cee9ff;fill-opacity:0.64676621" />

	</g>

</g>
    <g
       id="g4761"
       style="fill:#cee9ff;fill-opacity:0.64676621">
	<g
   id="g4759"
   style="fill:#cee9ff;fill-opacity:0.64676621">
		<path
   id="path4757"
   d="m 161.174,62.995 c -40.095,0 -72.713,32.62 -72.713,72.713 0,40.094 32.619,72.713 72.713,72.713 40.094,0 72.713,-32.619 72.713,-72.713 0,-40.094 -32.618,-72.713 -72.713,-72.713 z m 0,115.269 c -23.466,0 -42.556,-19.091 -42.556,-42.556 0,-23.466 19.09,-42.556 42.556,-42.556 23.466,0 42.556,19.091 42.556,42.556 0,23.465 -19.09,42.556 -42.556,42.556 z"
   inkscape:connector-curvature="0"
   style="fill:#cee9ff;fill-opacity:0.64676621" />

	</g>

</g>
    <g
       id="g4763"
       style="fill:#cee9ff;fill-opacity:0.64676621">
</g>
    <g
       id="g4765"
       style="fill:#cee9ff;fill-opacity:0.64676621">
</g>
    <g
       id="g4767"
       style="fill:#cee9ff;fill-opacity:0.64676621">
</g>
    <g
       id="g4769"
       style="fill:#cee9ff;fill-opacity:0.64676621">
</g>
    <g
       id="g4771"
       style="fill:#cee9ff;fill-opacity:0.64676621">
</g>
    <g
       id="g4773"
       style="fill:#cee9ff;fill-opacity:0.64676621">
</g>
    <g
       id="g4775"
       style="fill:#cee9ff;fill-opacity:0.64676621">
</g>
    <g
       id="g4777"
       style="fill:#cee9ff;fill-opacity:0.64676621">
</g>
    <g
       id="g4779"
       style="fill:#cee9ff;fill-opacity:0.64676621">
</g>
    <g
       id="g4781"
       style="fill:#cee9ff;fill-opacity:0.64676621">
</g>
    <g
       id="g4783"
       style="fill:#cee9ff;fill-opacity:0.64676621">
</g>
    <g
       id="g4785"
       style="fill:#cee9ff;fill-opacity:0.64676621">
</g>
    <g
       id="g4787"
       style="fill:#cee9ff;fill-opacity:0.64676621">
</g>
    <g
       id="g4789"
       style="fill:#cee9ff;fill-opacity:0.64676621">
</g>
    <g
       id="g4791"
       style="fill:#cee9ff;fill-opacity:0.64676621">
</g>
  </g>
  <g
     data-name="tone"
     id="tone-2"
     transform="matrix(14.9995,0,0,14.9995,240.14073,13.786129)"
     style="fill:#cee9ff;fill-opacity:0.64676621">
    <path
       id="path4867"
       d="M 8.6253516,15.85123 8.1451317,16.522423 6.5590545,14.289874 V 21.36358 A 1.8633871,2.622888 0 1 1 5.8826889,19.345241 v -7.354559 z"
       inkscape:connector-curvature="0"
       style="fill:#cee9ff;fill-opacity:0.64676621;stroke-width:0.40122667" />
  </g>
  <g
     id="g4906"
     transform="matrix(1.125344,0.66409227,-0.81995388,0.48715983,95.318789,-68.865121)"
     style="fill:#cee9ff;fill-opacity:0.64676621">
    <text
       id="text4882"
       y="109.34492"
       x="118.86865"
       style="font-style:normal;font-variant:normal;font-weight:normal;font-stretch:normal;font-size:37.49874878px;line-height:125%;font-family:'Brandon Grotesque';-inkscape-font-specification:'Brandon Grotesque';letter-spacing:0px;word-spacing:0px;fill:#cee9ff;fill-opacity:0.64676621;stroke:none;stroke-width:0.93746877px;stroke-linecap:butt;stroke-linejoin:miter;stroke-opacity:1"
       xml:space="preserve"><tspan
         style="fill:#cee9ff;fill-opacity:0.64676621;stroke-width:0.93746877px"
         y="109.34492"
         x="118.86865"
         id="tspan4880"
         sodipodi:role="line">1010100</tspan></text>
    <text
       id="text4882-3"
       y="141.90594"
       x="118.45263"
       style="font-style:normal;font-variant:normal;font-weight:normal;font-stretch:normal;font-size:37.49874496px;line-height:125%;font-family:'Brandon Grotesque';-inkscape-font-specification:'Brandon Grotesque';letter-spacing:0px;word-spacing:0px;fill:#cee9ff;fill-opacity:0.64676621;stroke:none;stroke-width:0.93746877px;stroke-linecap:butt;stroke-linejoin:miter;stroke-opacity:1"
       xml:space="preserve"><tspan
         style="fill:#cee9ff;fill-opacity:0.64676621;stroke-width:0.93746877px"
         y="141.90594"
         x="118.45263"
         id="tspan4880-6"
         sodipodi:role="line">0001101 </tspan></text>
  </g>
  <text
     xml:space="preserve"
     style="font-style:normal;font-variant:normal;font-weight:normal;font-stretch:normal;font-size:241.12901306px;line-height:125%;font-family:Montserrat;-inkscape-font-specification:Montserrat;letter-spacing:0px;word-spacing:0px;fill:#cee9ff;fill-opacity:0.64676621;stroke:none;stroke-width:6.02822542px;stroke-linecap:butt;stroke-linejoin:miter;stroke-opacity:1"
     x="459.62177"
     y="347.72479"
     id="text4948-7"><tspan
       sodipodi:role="line"
       x="459.62177"
       y="347.72479"
       style="font-style:normal;font-variant:normal;font-weight:800;font-stretch:normal;font-size:77.0890274px;line-height:0%;font-family:Montserrat;-inkscape-font-specification:'Montserrat Ultra-Bold';fill:#cee9ff;fill-opacity:0.64676621;stroke-width:6.02822542px"
       id="tspan4996">ON</tspan></text>
  <path
     inkscape:connector-curvature="0"
     id="path5139"
     style="font-style:normal;font-variant:normal;font-weight:800;font-stretch:normal;font-size:40px;line-height:125%;font-family:Montserrat;-inkscape-font-specification:'Montserrat Ultra-Bold';letter-spacing:0px;word-spacing:0px;fill:#cee9ff;fill-opacity:0.64676621;stroke:none;stroke-width:1.45095372px;stroke-linecap:butt;stroke-linejoin:miter;stroke-opacity:1"
     d="m 475.12484,369.88348 h -12.47822 v -9.11201 h 36.38993 v 9.11201 h -12.42017 v 31.5147 h -11.49154 z" />
  <path
     inkscape:connector-curvature="0"
     id="path5141"
     style="font-style:normal;font-variant:normal;font-weight:800;font-stretch:normal;font-size:40px;line-height:125%;font-family:Montserrat;-inkscape-font-specification:'Montserrat Ultra-Bold';letter-spacing:0px;word-spacing:0px;fill:#cee9ff;fill-opacity:0.64676621;stroke:none;stroke-width:1.45095372px;stroke-linecap:butt;stroke-linejoin:miter;stroke-opacity:1"
     d="m 541.98469,360.77147 v 40.62671 h -11.49154 v -15.84441 h -15.67031 v 15.84441 H 503.3313 v -40.62671 h 11.49154 v 15.26404 h 15.67031 v -15.26404 z" />
  <path
     inkscape:connector-curvature="0"
     id="path5143"
     style="font-style:normal;font-variant:normal;font-weight:800;font-stretch:normal;font-size:40px;line-height:125%;font-family:Montserrat;-inkscape-font-specification:'Montserrat Ultra-Bold';letter-spacing:0px;word-spacing:0px;fill:#cee9ff;fill-opacity:0.64676621;stroke:none;stroke-width:1.45095372px;stroke-linecap:butt;stroke-linejoin:miter;stroke-opacity:1"
     d="m 582.72746,392.51835 v 8.87983 h -32.61745 v -40.62671 h 31.86295 v 8.87985 H 561.4855 v 6.8485 h 18.04987 v 8.58965 H 561.4855 v 7.42888 z" />
</svg>
